<svg id="icon1" xmlns="http://www.w3.org/2000/svg" xmlns:xlink="http://www.w3.org/1999/xlink" width="124.561" height="87.255" viewBox="0 0 124.561 87.255">
  <defs>
    <clipPath id="clip-path">
      <rect id="Rectangle_20" data-name="Rectangle 20" width="124.561" height="87.255" fill="#0027ff"/>
    </clipPath>
  </defs>
  <g id="Group_36" data-name="Group 36" clip-path="url(#clip-path)">
    <path id="Path_34" data-name="Path 34" d="M118.841,15.88C113.73,6.383,108.45,2.405,104.929.744a6.987,6.987,0,0,0-6.376.048c-.324.127-.674.268-1.056.422-3.218,1.3-8.082,3.262-13.506,2.882A17.141,17.141,0,0,0,74.669,5.99l-10.505,5.6-.543.392,0-.005-6.7,4.817a44.046,44.046,0,0,0-10.8-5.665c-4.1-1.12-6.308-3.255-8.644-5.515a24,24,0,0,0-3.916-3.289l0,0A8.214,8.214,0,0,0,26.858.8c-4.121.822-10.514,3.549-17.565,11.868C2.576,20.6.564,27.052.061,31.061a7.691,7.691,0,0,0,3.646,7.432l.093.054a56.993,56.993,0,0,1,6.377,4.638c1.12.941,2.1,1.742,2.892,2.386.684.557,1.339,1.093,1.961,1.617a8.037,8.037,0,0,0-.345,1.684,7.9,7.9,0,0,0,7.129,8.606c.249.024.5.035.755.035.1,0,.2-.009.3-.013a7.854,7.854,0,0,0,6.926,9.627c.242.023.494.035.749.035.1,0,.2-.009.3-.013A7.879,7.879,0,0,0,40.293,76.6a7.432,7.432,0,0,0,7.447,7.875A7.492,7.492,0,0,0,52.5,82.769l1.058-.877,2.473,1.979A14.338,14.338,0,0,0,64.1,87.252l.2,0a6.59,6.59,0,0,0,4.36-1.521,7.42,7.42,0,0,0,3.142-5.32,8.629,8.629,0,0,0,3.353.778,7.683,7.683,0,0,0,6.285-2.858,7.6,7.6,0,0,0,1.654-5.086,7.94,7.94,0,0,0,9.486-2,7.67,7.67,0,0,0,1.569-5.983,8.4,8.4,0,0,0-.217-1c.076,0,.151.013.227.015l.2,0a7.632,7.632,0,0,0,7.4-9.96,70.851,70.851,0,0,1,12.187-9.313,44.288,44.288,0,0,1,6.2-3.068l.106-.04a7.026,7.026,0,0,0,4.31-6.463c.072-3.956-.862-10.56-5.717-19.555m-20.953,43.5a4.454,4.454,0,0,1-3.662,1.631,5.467,5.467,0,0,1-3.267-1.21l-.216-.173-.548-.442v0l0,0-.009.011L77.228,49.124l-2,2.58L88.849,62.3l.061.05a5.431,5.431,0,0,1,2,3.4,4.426,4.426,0,0,1-.889,3.457c-1.524,1.906-4.377,2.076-6.8.411L80.57,67.491l.009-.011-.827-.642-.7-.562-.008.01L68.13,57.8l-2,2.582,11.648,9.053,0,0a5.412,5.412,0,0,1,2.02,3.583,4.4,4.4,0,0,1-.912,3.263,4.479,4.479,0,0,1-3.654,1.635,5.482,5.482,0,0,1-3.275-1.219l-2.2-1.755.009-.011-.815-.633-.716-.573-.008.01-9.261-7.2-2,2.582,9.98,7.755.022.018a3.881,3.881,0,0,1,1.581,3.043,4.211,4.211,0,0,1-1.9,3.213l-.046.036a3.471,3.471,0,0,1-2.424.791,11.032,11.032,0,0,1-6.1-2.665L56.1,79.739A7.469,7.469,0,0,0,52.028,67.1a7.945,7.945,0,0,0,.811-3.224A7.879,7.879,0,0,0,46.2,55.8a7.865,7.865,0,0,0-.852-8.789A7.815,7.815,0,0,0,40.021,44.2a7.905,7.905,0,0,0-3.175.347,7.889,7.889,0,0,0-10.821-7.581l-1.9,1.1-6.615,5.452a7.957,7.957,0,0,0-.827.79c-.488-.406-1-.824-1.55-1.272l-.1-.078c-.8-.657-1.716-1.4-2.758-2.276a60.373,60.373,0,0,0-6.855-4.974l-.073-.042A4.323,4.323,0,0,1,3.3,31.478c.45-3.578,2.287-9.379,8.485-16.7C18.227,7.18,23.888,4.724,27.51,4a4.9,4.9,0,0,1,3.982.861l.133.107.106.074A20.954,20.954,0,0,1,35.2,7.966c2.408,2.33,5.136,4.97,10.016,6.308a41.212,41.212,0,0,1,8.863,4.561L50.095,21.7l-.412.3-.172.48c-.9,2.534-.434,5.462,1.429,8.952l7.645,14.325a8.169,8.169,0,0,0,7.233,4.665,9.011,9.011,0,0,0,4.268-1.13c3.386-1.819,5.527-6.483,2.827-11.543l-3.645-6.822c1.007.778,1.661,1.234,2.374,1.729.273.19.558.387.878.616l-.057.111.761.4c.608.444,1.352,1,2.338,1.774l21.21,16.976a5.561,5.561,0,0,1,1.581,2.022,4.594,4.594,0,0,1-.467,4.832M50.415,80.251a4.216,4.216,0,0,1-5.918-.557,4.206,4.206,0,0,1,.559-5.9L48.1,71.264l.035-.028a3.039,3.039,0,0,1,.291-.214L48.462,71a4.195,4.195,0,0,1,5.022,6.707Zm-14.863-14.9h0L42.024,60a4.636,4.636,0,0,1,5.879,7.17l-6.4,5.312a4.642,4.642,0,0,1-5.95-7.128M39.914,57.5l-5.05,4.18-1.4,1.157a4.6,4.6,0,0,1-5.873-7.09l8.754-7.26a4.53,4.53,0,0,1,2.922-1.051c.149,0,.3.007.447.021a4.6,4.6,0,0,1,4.176,4.737,4.629,4.629,0,0,1-1.658,3.388L39.953,57.47l-.039.031M17.937,49.176a4.591,4.591,0,0,1,1.656-3.137l6.3-5.221,1.456-.858a4.665,4.665,0,0,1,5.175,1.39,4.648,4.648,0,0,1-.614,6.524l-6.405,5.307a4.634,4.634,0,0,1-7.569-4.005m80.882.8L80.033,34.94c4.435-.192,11.3-1.956,20.037-8.779l.776-.606-2.011-2.576-.776.606c-13.735,10.722-22.218,7.753-23.143,7.377-.556-.4-1-.711-1.417-1-1.025-.711-1.928-1.339-4.151-3.158l.952-5.445-3.22-.562-1.268,7.25-.037.046.026.021-.429,2.451,4.659,8.721c1.924,3.606.163,6.236-1.488,7.123-4.259,2.274-6.492-1.106-7.076-2.195L53.823,29.889c-1.278-2.4-1.727-4.319-1.366-5.864L57.1,20.69l.014.019,6.268-4.533,2.145-1.541,0-.007.289-.209,10.4-5.546a13.852,13.852,0,0,1,7.552-1.516c6.194.427,11.686-1.791,14.967-3.116.419-.169.806-.326,1.159-.462l.365-.167.03-.031a3.811,3.811,0,0,1,3.239.114c3.087,1.456,7.751,5.021,12.442,13.736,4.519,8.373,5.391,14.38,5.326,17.946a3.707,3.707,0,0,1-2.223,3.475l-.089.033a47.652,47.652,0,0,0-6.718,3.318,72.112,72.112,0,0,0-12.084,9.132,8.952,8.952,0,0,0-1.357-1.358" transform="translate(0 0.001)" fill="#0027ff"/>
  </g>
</svg>
