<svg id="icon2" xmlns="http://www.w3.org/2000/svg" xmlns:xlink="http://www.w3.org/1999/xlink" width="107.41" height="93.128" viewBox="0 0 107.41 93.128">
  <defs>
    <clipPath id="clip-path">
      <rect id="Rectangle_23" data-name="Rectangle 23" width="107.41" height="93.128" fill="#0027ff"/>
    </clipPath>
  </defs>
  <g id="Group_1049" data-name="Group 1049" clip-path="url(#clip-path)">
    <path id="Path_338" data-name="Path 338" d="M371.9,3l5.933,6.227a2.478,2.478,0,0,0,.324.285,3.585,3.585,0,0,0,5.5-1.684,4.568,4.568,0,0,1,4.262-3.04,4.093,4.093,0,0,1,3.064,1.336q.039.043.081.084a4.1,4.1,0,0,1,1.2,2.974,4.467,4.467,0,0,1-1.406,3.2,4.568,4.568,0,0,1-1.827,1.071,3.522,3.522,0,0,0-2.318,2.206,3.6,3.6,0,0,0,.39,3.208,2.479,2.479,0,0,0,.271.337l5.954,6.2-6.836,6.516a2.471,2.471,0,0,0-.748,1.486,3.494,3.494,0,0,0,2.357,3.776,4.6,4.6,0,0,1,2.945,4l0,.021a.3.3,0,0,1-.006.093,5.728,5.728,0,0,1-1.9,3.282,4.509,4.509,0,0,1-2.819,1.005,4.1,4.1,0,0,1-2.988-1.256,3.981,3.981,0,0,1-.96-1.667,3.482,3.482,0,0,0-3.384-2.507,3.66,3.66,0,0,0-.506.035,2.47,2.47,0,0,0-1.362.659l-6.844,6.524L365.539,42.4a10.207,10.207,0,0,0,5.432-6.995,2.475,2.475,0,0,0,.054-.3,9.194,9.194,0,0,0-.063-2.619q-.011-.063-.025-.125a9.927,9.927,0,0,0-2.392-4.667l-.049-.051a9.94,9.94,0,0,0-4.55-2.6c-.046-.013-.093-.024-.14-.034a9.282,9.282,0,0,0-1.916-.2c-.228,0-.459.009-.687.025a2.517,2.517,0,0,0-.3.04,10.208,10.208,0,0,0-7.236,5.109l-4.748-4.951,6.822-6.545a2.471,2.471,0,0,0,.718-1.327,3.493,3.493,0,0,0-2.3-4,3.958,3.958,0,0,1-1.616-1.031,4.2,4.2,0,0,1-.9-4.227,5.172,5.172,0,0,1,4.279-3.339.317.317,0,0,1,.052,0,.274.274,0,0,1,.051,0l.008,0a4.6,4.6,0,0,1,3.858,3.12,3.5,3.5,0,0,0,3.4,2.538c.08,0,.161,0,.241-.008a2.47,2.47,0,0,0,1.547-.682Zm0-3a1.129,1.129,0,0,0-.784.319l-7.747,7.431-.077,0A1.039,1.039,0,0,1,362.27,7a7.014,7.014,0,0,0-5.764-4.863,2.744,2.744,0,0,0-.529-.051,2.783,2.783,0,0,0-.483.042c-6.577,1.157-8.271,7.994-4.736,11.7a6.45,6.45,0,0,0,2.615,1.667,1.036,1.036,0,0,1,.659,1.2l-7.792,7.476a1.105,1.105,0,0,0-.057,1.568L353.23,33.1l.125.1.042.044a1.022,1.022,0,0,0,.749.324,1.162,1.162,0,0,0,1.112-.889,7.488,7.488,0,0,1,6.124-5.372q.254-.019.508-.019a6.785,6.785,0,0,1,1.4.146,6.858,6.858,0,0,1,5.23,5.475,6.729,6.729,0,0,1,.046,1.915,7.484,7.484,0,0,1-5.645,5.872,1.113,1.113,0,0,0-.646,1.836l.042.044.093.132,7.019,7.367a1.073,1.073,0,0,0,.783.333,1.141,1.141,0,0,0,.788-.318l7.817-7.452a1.152,1.152,0,0,1,.163-.011,1.024,1.024,0,0,1,1.011.726,6.465,6.465,0,0,0,1.551,2.689,6.571,6.571,0,0,0,4.77,2.015c3.072,0,6.208-2.069,7.134-6.22a2.771,2.771,0,0,0,.035-1.012,7.019,7.019,0,0,0-4.6-5.978,1.041,1.041,0,0,1-.7-1.133l7.77-7.406a1.113,1.113,0,0,0,.09-1.533l-.2-.3-6.7-6.984a1.111,1.111,0,0,1,.588-1.674,7.067,7.067,0,0,0,2.814-1.644,6.788,6.788,0,0,0,.251-9.715,6.576,6.576,0,0,0-4.89-2.142,7.04,7.04,0,0,0-6.594,4.693,1.114,1.114,0,0,1-1.7.512L372.941.508,372.651.3A1.078,1.078,0,0,0,371.9,0" transform="translate(-288.904)" fill="#0027ff"/>
    <path id="Path_339" data-name="Path 339" d="M254.573,273.622h.316a4.1,4.1,0,0,1,2.921,1.23,4.474,4.474,0,0,1,1.3,3.2,4.571,4.571,0,0,1-.494,2.059,3.519,3.519,0,0,0-.014,3.19,3.6,3.6,0,0,0,2.585,1.943,2.474,2.474,0,0,0,.43.038l8.6.005-.038,9.444a2.471,2.471,0,0,0,.561,1.577,3.509,3.509,0,0,0,4.349.911,3.98,3.98,0,0,1,1.852-.454,5.3,5.3,0,0,1,3.074,1.1.366.366,0,0,1,.078.083,5.175,5.175,0,0,1,.526,5.4,4.2,4.2,0,0,1-3.685,2.258,3.985,3.985,0,0,1-1.863-.461,3.47,3.47,0,0,0-1.606-.4,3.571,3.571,0,0,0-2.869,1.482,2.471,2.471,0,0,0-.473,1.444l-.038,9.458-6.861-.03a10.2,10.2,0,0,0-1.284-8.763,2.465,2.465,0,0,0-.171-.236,9.33,9.33,0,0,0-1.917-1.769q-.065-.045-.132-.085a9.963,9.963,0,0,0-5.016-1.5h-.07a9.94,9.94,0,0,0-5.031,1.48q-.064.038-.125.08a9.287,9.287,0,0,0-1.928,1.76,2.48,2.48,0,0,0-.172.236,10.206,10.206,0,0,0-1.331,8.755l-6.68,0,.016-9.836a2.471,2.471,0,0,0-2.471-2.475,2.439,2.439,0,0,0-.247.012,3.437,3.437,0,0,0-2.11.154l-.057-.009a2.477,2.477,0,0,0-.891.015l-.034.007a4.438,4.438,0,0,1-.6.048,4.685,4.685,0,0,1-2.657-.938c-.09-.144-.18-.312-.281-.5l-.022-.041a5.027,5.027,0,0,1-.654-2.358,3.923,3.923,0,0,1,.038-.5v-.01a3.739,3.739,0,0,1,3.613-3.354,5.325,5.325,0,0,1,.6.091l.043.008.088.015a2.468,2.468,0,0,0,.734.012l.088-.012.025,0c.075-.011.151-.02.226-.027a3.442,3.442,0,0,0,1.071.172,3.5,3.5,0,0,0,.5-.036l.066.013a2.471,2.471,0,0,0,2.952-2.42l.016-9.86,8.394.038h.011a2.48,2.48,0,0,0,.422-.036,3.608,3.608,0,0,0,2.593-1.93,3.522,3.522,0,0,0,0-3.2l0-.009a4.506,4.506,0,0,1-.483-2.048,4.327,4.327,0,0,1,4.219-4.413Zm0-2.471a6.79,6.79,0,0,0-6.691,6.881,7,7,0,0,0,.752,3.171,1.114,1.114,0,0,1-.811,1.581l-9.684-.044-.349.064a1.093,1.093,0,0,0-.937.647,1.628,1.628,0,0,1,.1.539l-.018,11.082-.607-.12a1.1,1.1,0,0,1-.438.1.96.96,0,0,1-.452-.114l-.188-.082a7.493,7.493,0,0,0-1.009.076l-.088.012-.088-.015a5.925,5.925,0,0,0-1.052-.132,6.2,6.2,0,0,0-6.065,5.519,6.352,6.352,0,0,0-.058.818,7.48,7.48,0,0,0,.945,3.522c.139.262.278.526.452.791a2.234,2.234,0,0,0,.565.579,7.1,7.1,0,0,0,4.129,1.418,6.884,6.884,0,0,0,1.025-.085l.088-.018.088.015c.283.047.5.091.708.115.172-.071.345-.142.512-.23a.961.961,0,0,1,.445-.11,1.05,1.05,0,0,1,.582.183l.485-.1-.018,11.251a1.8,1.8,0,0,1-.058.421,1.084,1.084,0,0,0,.974.638l10.177.006.156-.021h.065a1.111,1.111,0,0,0,.877-1.736,7.481,7.481,0,0,1,.372-8.135,6.8,6.8,0,0,1,1.415-1.292,6.866,6.866,0,0,1,7.572.018,6.855,6.855,0,0,1,1.41,1.3,7.479,7.479,0,0,1,.326,8.138,1.113,1.113,0,0,0,.876,1.739h.059l.161.024,10.175.044h.005a1.113,1.113,0,0,0,1.094-1.124l.044-10.8a1.1,1.1,0,0,1,.871-.465.977.977,0,0,1,.457.115,6.476,6.476,0,0,0,3.012.744h.008c5.12,0,8.9-5.934,5.206-11.5a2.831,2.831,0,0,0-.7-.727,7.747,7.747,0,0,0-4.5-1.555,6.467,6.467,0,0,0-2.991.731,1.027,1.027,0,0,1-.473.117,1.078,1.078,0,0,1-.826-.4l.043-10.733a1.106,1.106,0,0,0-1.041-1.124l-.353-.068-9.681-.006a1.109,1.109,0,0,1-.8-1.583,7.07,7.07,0,0,0,.761-3.166,6.791,6.791,0,0,0-6.69-6.915h-.14l-.177,0" transform="translate(-189.507 -226.482)" fill="#0027ff"/>
    <path id="Path_340" data-name="Path 340" d="M28.85,54.167h.316A4.109,4.109,0,0,1,32.092,55.4a4.469,4.469,0,0,1,1.3,3.2,4.544,4.544,0,0,1-.492,2.054,3.519,3.519,0,0,0-.017,3.2,3.6,3.6,0,0,0,2.588,1.942,2.474,2.474,0,0,0,.427.037l8.6.006-.04,9.443a2.471,2.471,0,0,0,.558,1.574,3.509,3.509,0,0,0,4.351.915,3.985,3.985,0,0,1,1.854-.454,5.3,5.3,0,0,1,3.072,1.1.4.4,0,0,1,.084.09A5.173,5.173,0,0,1,54.9,83.9a4.2,4.2,0,0,1-3.686,2.258,3.977,3.977,0,0,1-1.864-.462l-.009,0a3.477,3.477,0,0,0-1.6-.391,3.571,3.571,0,0,0-2.869,1.48,2.471,2.471,0,0,0-.474,1.445l-.033,8.256-5.728.01a9.993,9.993,0,0,0,.148-1.719v-.015a9.924,9.924,0,0,0-.423-2.788,10.042,10.042,0,0,0-3.4-5.071,9.433,9.433,0,0,0-5.89-2.049h-.05l-.1,0-.128,0h-.042a9.435,9.435,0,0,0-5.892,2.049,10.049,10.049,0,0,0-3.4,5.077,9.911,9.911,0,0,0-.423,2.78v.056q0,.061,0,.12a10.042,10.042,0,0,0,.147,1.56l-5.724-.01.007-8.332a2.471,2.471,0,0,0-.453-1.428A3.554,3.554,0,0,0,10.127,85.2a3.478,3.478,0,0,0-1.584.385l-.011.006a3.937,3.937,0,0,1-1.837.45H6.67A4.2,4.2,0,0,1,3,83.765a5.166,5.166,0,0,1,.55-5.386.4.4,0,0,1,.08-.087l.007-.005A5.3,5.3,0,0,1,6.69,77.2a3.992,3.992,0,0,1,1.872.462,3.5,3.5,0,0,0,1.626.4,3.545,3.545,0,0,0,2.717-1.281,2.471,2.471,0,0,0,.578-1.586l.008-9.445,8.6.037H22.1a2.481,2.481,0,0,0,.409-.034,3.6,3.6,0,0,0,2.6-1.921,3.523,3.523,0,0,0,0-3.21,4.516,4.516,0,0,1-.485-2.052,4.329,4.329,0,0,1,4.219-4.413M13.492,64.47h0M28.851,51.7a6.792,6.792,0,0,0-6.691,6.881,7.015,7.015,0,0,0,.752,3.172,1.109,1.109,0,0,1-.808,1.577l-9.685-.041-.35.064a1.107,1.107,0,0,0-1.047,1.122L11.012,75.2a1.086,1.086,0,0,1-.824.4,1.008,1.008,0,0,1-.477-.121,6.478,6.478,0,0,0-3.021-.746,7.749,7.749,0,0,0-4.48,1.534,2.845,2.845,0,0,0-.708.724c-3.723,5.546.034,11.5,5.159,11.521H6.7a6.428,6.428,0,0,0,2.978-.73.983.983,0,0,1,.453-.112,1.086,1.086,0,0,1,.873.471l-.009,10.8a1.135,1.135,0,0,0,.074.383,1.617,1.617,0,0,1,.894-.315v0a1.492,1.492,0,0,1,.375-.068l9.611.017a.576.576,0,0,0,.439-.541l-.056-.235-.011-.026-.013-.027-.013-.032a7.543,7.543,0,0,1-.78-3.3h0V94.75a7.587,7.587,0,0,1,.328-2.1,7.252,7.252,0,0,1,6.916-5.334l.174,0,.147,0a7.253,7.253,0,0,1,6.914,5.334,7.59,7.59,0,0,1,.326,2.1v.015a7.528,7.528,0,0,1-.783,3.339l-.023.059-.01.021-.058.232a.581.581,0,0,0,.441.544l9.61-.017a1.5,1.5,0,0,1,.374.068v0a1.6,1.6,0,0,1,.9.324l.061-.3.044-10.8a1.1,1.1,0,0,1,.872-.464.985.985,0,0,1,.456.113,6.463,6.463,0,0,0,3.011.744h.008c5.123,0,8.9-5.934,5.207-11.5a2.869,2.869,0,0,0-.7-.727,7.743,7.743,0,0,0-4.5-1.555,6.473,6.473,0,0,0-2.993.732,1.021,1.021,0,0,1-.472.117,1.077,1.077,0,0,1-.827-.4l.045-10.733a1.111,1.111,0,0,0-1.044-1.124l-.352-.067-9.681-.006a1.109,1.109,0,0,1-.8-1.582,7.047,7.047,0,0,0,.765-3.166A6.789,6.789,0,0,0,29.166,51.7h-.14l-.175,0" transform="translate(0 -43.18)" fill="#0027ff"/>
    <path id="Path_341" data-name="Path 341" d="M31.95,276.51l.119,0H32.2l.112,0a3.668,3.668,0,0,1,3.453,2.746,4.078,4.078,0,0,1,.186,1.111v.015a3.99,3.99,0,0,1-.385,1.708,2.485,2.485,0,0,0-.14.3l-.022.056-.016.044a4.015,4.015,0,0,0-.311,1.546,2.469,2.469,0,0,0,.041.446l.012.065a4.106,4.106,0,0,0,3.354,3.564l.043.008a2.475,2.475,0,0,0,.452.042h0l8.091-.014-.007,5.391c-.113-.006-.229-.01-.35-.01h-.01a9.6,9.6,0,0,0-6.365,2.453,10,10,0,0,0-3.329,7.464,10.327,10.327,0,0,0,.2,1.942c.075.4.153.728.244,1.043l0,.009a11.937,11.937,0,0,0,1,2.4q-.369-.316-.77-.6a2.49,2.49,0,0,0-.294-.188,10.511,10.511,0,0,0-5.214-1.528h-.105a10.693,10.693,0,0,0-5.294,1.574c-.053.032-.106.066-.156.1a9.87,9.87,0,0,0-2.031,1.858l-.015.018a2.466,2.466,0,0,0-.154.206l-.019.029-.029.044a11.339,11.339,0,0,0-1.862,6.089,10.086,10.086,0,0,0,.293,2.418l-5.575.009-.014-9.077a2.472,2.472,0,0,0-.46-1.432l-.105-.147-.006-.009a4.121,4.121,0,0,0-3.326-1.723,4.044,4.044,0,0,0-1.856.457,3.44,3.44,0,0,1-1.607.393H9.856a3.771,3.771,0,0,1-3.65-3.866,5.263,5.263,0,0,1,.955-2.9,4.728,4.728,0,0,1,2.708-.965,3.468,3.468,0,0,1,1.6.392,4.048,4.048,0,0,0,1.882.464,4.1,4.1,0,0,0,3.145-1.484l.02-.024.127-.156a2.471,2.471,0,0,0,.555-1.565l-.015-9.087,8.1.014h0a2.476,2.476,0,0,0,.46-.043l.04-.008a4.153,4.153,0,0,0,3.348-3.57l.007-.038a2.474,2.474,0,0,0,.044-.462,4.113,4.113,0,0,0-.291-1.5c-.013-.036-.026-.072-.041-.109a2.49,2.49,0,0,0-.139-.307,3.933,3.933,0,0,1-.4-1.738v-.021a3.128,3.128,0,0,1,.042-.4l0-.014a4.859,4.859,0,0,1,.143-.674l0-.013a3.908,3.908,0,0,1,1.445-2.067,3.432,3.432,0,0,1,2.007-.679m8.408,34.654.109.08q.079.057.162.108l.125.076a10.682,10.682,0,0,0,5.933,1.905c.115,0,.232,0,.35-.007l-.01,5.545-5.577-.009a10.089,10.089,0,0,0,.292-2.41,11.112,11.112,0,0,0-1.383-5.287m-8.066-37.125-.141,0h-.031l-.147,0a5.882,5.882,0,0,0-3.484,1.154,6.36,6.36,0,0,0-2.364,3.38,7.353,7.353,0,0,0-.217,1.015,5.176,5.176,0,0,0-.07.774v.021a6.41,6.41,0,0,0,.685,2.883l.014.024.009.027.014.032,0,0a1.65,1.65,0,0,1,.158.686l-.025.133a1.663,1.663,0,0,1-1.356,1.509l-.046.009-9.729-.017-.079.015-.085.018-.079.029-.085,0a.557.557,0,0,0-.516.568l.018,10.932-.127.156a1.631,1.631,0,0,1-1.249.6,1.569,1.569,0,0,1-.736-.183,5.94,5.94,0,0,0-2.748-.673A7.173,7.173,0,0,0,5.7,298.576a2.2,2.2,0,0,0-.565.58,7.725,7.725,0,0,0-1.4,4.31A6.237,6.237,0,0,0,9.851,309.8h.011a5.918,5.918,0,0,0,2.75-.673,1.555,1.555,0,0,1,.713-.176,1.638,1.638,0,0,1,1.322.7l.105.147.017,10.977a.556.556,0,0,0,.539.571l10.136-.017.161-.024h.1a.478.478,0,0,0,.359-.153.608.608,0,0,0,.145-.4l-.1-.338a7.534,7.534,0,0,1-1.123-3.972,8.822,8.822,0,0,1,1.472-4.758l.019-.029.019-.023a7.4,7.4,0,0,1,1.532-1.4l.014-.009.012-.009a8.147,8.147,0,0,1,4.064-1.221h.017a8.132,8.132,0,0,1,4.062,1.221l.014.006.014.012a7.366,7.366,0,0,1,1.53,1.4l.021.027.018.026a8.806,8.806,0,0,1,1.471,4.761,7.524,7.524,0,0,1-1.122,3.972l-.1.335a.6.6,0,0,0,.147.4.474.474,0,0,0,.359.153h.1l.039.006.121.018,10.139.017a.558.558,0,0,0,.54-.571l.018-9.912a5.521,5.521,0,0,1-.711.051h0a5.65,5.65,0,0,1-1.026-.142,7.3,7.3,0,0,1-1.084.091,8.179,8.179,0,0,1-4.6-1.515l-.174-.106a3.431,3.431,0,0,1-.843-.871,9.576,9.576,0,0,1-1.238-2.63c-.079-.273-.139-.547-.19-.817a7.945,7.945,0,0,1-.155-1.48,7.5,7.5,0,0,1,2.5-5.619A7.1,7.1,0,0,1,46.715,296l0,.541V296a6.645,6.645,0,0,1,1.183.138A9.077,9.077,0,0,1,49,296.052q.269,0,.541.026l.013-9.773a.55.55,0,0,0-.477-.561l-.036-.009-.083,0-.08-.029-.162-.032-9.73.017-.047-.009a1.664,1.664,0,0,1-1.356-1.5l-.027-.147a1.6,1.6,0,0,1,.163-.691h-.005l.022-.056.013-.018a6.466,6.466,0,0,0,.681-2.887v-.015a6.5,6.5,0,0,0-.283-1.795,6.148,6.148,0,0,0-5.85-4.534" transform="translate(-3.119 -228.894)" fill="#0027ff"/>
  </g>
</svg>
