<svg id="icon3" xmlns="http://www.w3.org/2000/svg" xmlns:xlink="http://www.w3.org/1999/xlink" width="97.5" height="82.75" viewBox="0 0 97.5 82.75">
  <defs>
    <clipPath id="clip-path">
      <rect id="Rectangle_48" data-name="Rectangle 48" width="97.5" height="82.75" fill="#0027ff"/>
    </clipPath>
  </defs>
  <g id="Group_1148" data-name="Group 1148" clip-path="url(#clip-path)">
    <path id="Path_605" data-name="Path 605" d="M97.5,8.989a1.371,1.371,0,1,0-2.742,0V76.173H55.827c6.247-2.148,17.494-4.875,34.33-4.875a1.371,1.371,0,0,0,1.371-1.371V1.372A1.371,1.371,0,0,0,90.157,0C65.106,0,52.176,5.835,49.115,7.426,46.055,5.835,33.125,0,8.074,0A1.371,1.371,0,0,0,6.7,1.372V69.927A1.371,1.371,0,0,0,8.074,71.3c16.77,0,28.03,2.727,34.3,4.875H2.742V8.989A1.371,1.371,0,0,0,0,8.989V78.915H43.28a1.655,1.655,0,0,0-.319.941c0,1.6,2.592,2.895,5.789,2.895s5.789-1.3,5.789-2.895a1.654,1.654,0,0,0-.319-.941H97.5ZM88.786,68.562c-21.443.184-33.713,4.659-38.3,6.754V9.809c2.871-1.452,15.092-6.854,38.3-7.06ZM9.445,2.749c23.132.207,35.418,5.614,38.3,7.062v65.5c-4.586-2.095-16.856-6.569-38.3-6.754Z" transform="translate(0 -0.001)" fill="#0027ff"/>
    <path id="Path_606" data-name="Path 606" d="M285.626,52.21l.317-2.724c-15.625-1.818-29.144,4.864-29.712,5.149l1.23,2.451c.132-.066,13.381-6.6,28.165-4.876" transform="translate(-202.307 -38.825)" fill="#0027ff"/>
    <path id="Path_607" data-name="Path 607" d="M285.626,98.273l.317-2.724c-15.622-1.818-29.144,4.864-29.712,5.149l1.23,2.451c.132-.066,13.381-6.595,28.165-4.876" transform="translate(-202.307 -75.194)" fill="#0027ff"/>
    <path id="Path_608" data-name="Path 608" d="M285.626,144.336l.317-2.724c-15.625-1.817-29.144,4.864-29.712,5.149l1.23,2.451c.132-.066,13.381-6.6,28.165-4.876" transform="translate(-202.307 -111.563)" fill="#0027ff"/>
    <path id="Path_609" data-name="Path 609" d="M285.626,190.4l.317-2.724c-15.625-1.818-29.144,4.863-29.712,5.149l1.23,2.451c.132-.066,13.381-6.595,28.165-4.876" transform="translate(-202.307 -147.932)" fill="#0027ff"/>
    <path id="Path_610" data-name="Path 610" d="M285.626,236.462l.317-2.724c-15.622-1.817-29.144,4.863-29.712,5.149l1.23,2.451c.132-.066,13.381-6.6,28.165-4.876" transform="translate(-202.307 -184.302)" fill="#0027ff"/>
    <path id="Path_611" data-name="Path 611" d="M285.626,282.523l.317-2.724c-15.625-1.818-29.144,4.864-29.712,5.149l1.23,2.451c.132-.066,13.381-6.595,28.165-4.876" transform="translate(-202.307 -220.669)" fill="#0027ff"/>
    <path id="Path_612" data-name="Path 612" d="M65.367,52.21l-.317-2.724c15.625-1.818,29.144,4.864,29.712,5.149l-1.23,2.451c-.132-.066-13.381-6.6-28.165-4.876" transform="translate(-51.36 -38.825)" fill="#0027ff"/>
    <path id="Path_613" data-name="Path 613" d="M65.367,98.273,65.05,95.55c15.622-1.818,29.144,4.864,29.712,5.149l-1.23,2.451c-.132-.066-13.381-6.595-28.165-4.876" transform="translate(-51.36 -75.194)" fill="#0027ff"/>
    <path id="Path_614" data-name="Path 614" d="M65.367,144.336l-.317-2.724c15.625-1.817,29.144,4.864,29.712,5.149l-1.23,2.451c-.132-.066-13.381-6.6-28.165-4.876" transform="translate(-51.36 -111.563)" fill="#0027ff"/>
    <path id="Path_615" data-name="Path 615" d="M65.367,190.4l-.317-2.724c15.625-1.818,29.144,4.863,29.712,5.149l-1.23,2.451c-.132-.066-13.381-6.595-28.165-4.876" transform="translate(-51.36 -147.932)" fill="#0027ff"/>
    <path id="Path_616" data-name="Path 616" d="M65.367,236.462l-.317-2.724c15.622-1.817,29.144,4.863,29.712,5.149l-1.23,2.451c-.132-.066-13.381-6.6-28.165-4.876" transform="translate(-51.36 -184.302)" fill="#0027ff"/>
    <path id="Path_617" data-name="Path 617" d="M65.367,282.523,65.05,279.8c15.625-1.818,29.144,4.864,29.712,5.149l-1.23,2.451c-.132-.066-13.381-6.595-28.165-4.876" transform="translate(-51.36 -220.669)" fill="#0027ff"/>
  </g>
</svg>
