<svg xmlns="http://www.w3.org/2000/svg" xmlns:xlink="http://www.w3.org/1999/xlink" width="120" height="120" viewBox="0 0 120 120">
  <defs>
    <linearGradient id="linear-gradient" x1="0.041" y1="0.097" x2="0.99" y2="0.679" gradientUnits="objectBoundingBox">
      <stop offset="0" stop-color="#0027ff"/>
      <stop offset="1" stop-color="#00a7ff"/>
    </linearGradient>
    <linearGradient id="linear-gradient-2" x1="0.5" x2="0.5" y2="1" gradientUnits="objectBoundingBox">
      <stop offset="0" stop-color="#00a7ff"/>
      <stop offset="1" stop-color="#0027ff"/>
    </linearGradient>
    <linearGradient id="linear-gradient-3" x1="0.03" y1="0.408" x2="1" y2="0.377" xlink:href="#linear-gradient-2"/>
    <clipPath id="clip-path">
      <rect id="Rectangle_33" data-name="Rectangle 33" width="120" height="120" fill="#00a7ff"/>
    </clipPath>
  </defs>
  <g id="logo" transform="translate(-100 -40)">
    <g id="Group_33" data-name="Group 33" transform="translate(6.16 257)">
      <path id="Path_30" data-name="Path 30" d="M62.435,0C53.995,0,45.9,1.429,38.592,5.8,30.68,10.532,24.7,19.066,24.469,28.345S30.631,47.07,39.654,48.881C52.4,51.439,63.683,39.516,76.62,38.231c7.873-.78,17.555-.022,24.905,7.79,0,0,21.344,17.976,7.59,49.546,0,0,11.4-13.97,11.893-33.537q.078-1.318.084-2.631v-.482A61.16,61.16,0,0,0,116.718,37.2C108.256,15.858,87.5.633,64.538.028,63.847.009,63.156,0,62.469,0Z" transform="translate(92.748 -217)" fill="url(#linear-gradient)"/>
      <path id="Path_31" data-name="Path 31" d="M36.63,4.65A59.251,59.251,0,0,0,15.988,19.112,60.025,60.025,0,0,0,0,59.791v.14A56.547,56.547,0,0,0,4.69,82.558c3.721,8.5,8.667,16.029,16.341,21.247s17.962,7.053,26.462,3.326S61.807,93.55,59.58,84.541C56.434,71.81,40.805,66.57,34.1,55.3c-4.08-6.86-7.541-16.025-3.618-26.056,0,0,7.131-27.129,41.605-27.973A54.837,54.837,0,0,0,59.755,0,57.792,57.792,0,0,0,36.63,4.65" transform="translate(93.84 -217)" fill="url(#linear-gradient-2)"/>
      <path id="Path_32" data-name="Path 32" d="M84.857,53.87c-10.906,7.286-10.522,23.763-18.845,33.9-5.065,6.169-12.51,12.539-23.28,12.259,0,0-28.252,2.378-40.765-29.757,0,0,1.768,18.442,15.252,32.629,4.722,5.825,14.129,11.739,20.744,14.572a58.282,58.282,0,0,0,22.864,4.642h.166a59.36,59.36,0,0,0,40.659-15.95c6.732-6.389,12.131-13.6,14.432-22.59s.526-19.289-5.868-26.017A21.707,21.707,0,0,0,94.752,51a17.7,17.7,0,0,0-9.895,2.873" transform="translate(92.782 -219.115)" fill="url(#linear-gradient-3)"/>
    </g>
    <g id="Group_1080" data-name="Group 1080" transform="translate(100 40)">
      <g id="Group_1079" data-name="Group 1079" clip-path="url(#clip-path)">
        <path id="Path_351" data-name="Path 351" d="M24.219.239a.02.02,0,0,0,.02-.02.02.02,0,0,0-.04,0,.02.02,0,0,0,.02.02" transform="translate(4.206 0.035)" fill="#00a7ff"/>
        <path id="Path_352" data-name="Path 352" d="M30.228.306a.078.078,0,1,0-.079-.077.078.078,0,0,0,.079.077" transform="translate(5.24 0.026)" fill="#00a7ff"/>
        <path id="Path_353" data-name="Path 353" d="M36.239.4a.156.156,0,1,0,0-.312.156.156,0,1,0,0,.312" transform="translate(6.271 0.015)" fill="#00a7ff"/>
        <path id="Path_354" data-name="Path 354" d="M42.251.485a.234.234,0,1,0-.235-.235.235.235,0,0,0,.235.235" transform="translate(7.302 0.003)" fill="#00a7ff"/>
        <path id="Path_355" data-name="Path 355" d="M48.254.508A.254.254,0,1,0,48,.255a.254.254,0,0,0,.254.254" transform="translate(8.342)" fill="#00a7ff"/>
        <path id="Path_356" data-name="Path 356" d="M54.251.485a.234.234,0,1,0-.235-.235.235.235,0,0,0,.235.235" transform="translate(9.387 0.003)" fill="#00a7ff"/>
        <path id="Path_357" data-name="Path 357" d="M60.242.418a.175.175,0,1,0-.176-.176.176.176,0,0,0,.176.176" transform="translate(10.439 0.012)" fill="#00a7ff"/>
        <path id="Path_358" data-name="Path 358" d="M66.228.306a.078.078,0,0,0,0-.156.078.078,0,1,0,0,.156" transform="translate(11.496 0.026)" fill="#00a7ff"/>
        <path id="Path_359" data-name="Path 359" d="M72.219.239a.02.02,0,0,0,.02-.02.02.02,0,0,0-.04,0,.02.02,0,0,0,.02.02" transform="translate(12.547 0.035)" fill="#00a7ff"/>
        <path id="Path_360" data-name="Path 360" d="M18.225,6.283a.058.058,0,0,0,.059-.059.059.059,0,0,0-.117,0,.058.058,0,0,0,.059.059" transform="translate(3.157 1.072)" fill="#00a7ff"/>
        <path id="Path_361" data-name="Path 361" d="M24.251,6.485a.234.234,0,1,0-.235-.235.235.235,0,0,0,.235.235" transform="translate(4.174 1.046)" fill="#00a7ff"/>
        <path id="Path_362" data-name="Path 362" d="M30.274,6.665a.391.391,0,1,0-.391-.391.391.391,0,0,0,.391.391" transform="translate(5.193 1.022)" fill="#00a7ff"/>
        <path id="Path_363" data-name="Path 363" d="M36.291,6.8a.508.508,0,1,0-.508-.507.508.508,0,0,0,.508.507" transform="translate(6.219 1.005)" fill="#00a7ff"/>
        <path id="Path_364" data-name="Path 364" d="M42.306,6.911a.606.606,0,1,0-.606-.606.606.606,0,0,0,.606.606" transform="translate(7.247 0.991)" fill="#00a7ff"/>
        <path id="Path_365" data-name="Path 365" d="M48.308,6.934a.625.625,0,1,0-.624-.624.624.624,0,0,0,.624.624" transform="translate(8.287 0.988)" fill="#00a7ff"/>
        <path id="Path_366" data-name="Path 366" d="M54.306,6.911a.606.606,0,1,0-.606-.606.606.606,0,0,0,.606.606" transform="translate(9.332 0.991)" fill="#00a7ff"/>
        <path id="Path_367" data-name="Path 367" d="M60.294,6.822a.527.527,0,1,0-.527-.527.527.527,0,0,0,.527.527" transform="translate(10.387 1.002)" fill="#00a7ff"/>
        <path id="Path_368" data-name="Path 368" d="M66.277,6.687a.41.41,0,1,0-.41-.41.409.409,0,0,0,.41.41" transform="translate(11.447 1.02)" fill="#00a7ff"/>
        <path id="Path_369" data-name="Path 369" d="M72.251,6.485a.234.234,0,1,0-.235-.235.235.235,0,0,0,.235.235" transform="translate(12.516 1.046)" fill="#00a7ff"/>
        <path id="Path_370" data-name="Path 370" d="M78.228,6.306a.078.078,0,0,0,0-.156.078.078,0,1,0,0,.156" transform="translate(13.581 1.069)" fill="#00a7ff"/>
        <path id="Path_371" data-name="Path 371" d="M12.228,12.306a.078.078,0,1,0-.079-.077.078.078,0,0,0,.079.077" transform="translate(2.111 2.112)" fill="#00a7ff"/>
        <path id="Path_372" data-name="Path 372" d="M18.262,12.575a.312.312,0,1,0-.312-.312.312.312,0,0,0,.312.312" transform="translate(3.12 2.077)" fill="#00a7ff"/>
        <path id="Path_373" data-name="Path 373" d="M24.3,12.844a.547.547,0,1,0-.547-.547.548.548,0,0,0,.547.547" transform="translate(4.127 2.042)" fill="#00a7ff"/>
        <path id="Path_374" data-name="Path 374" d="M30.323,13.046a.722.722,0,1,0-.723-.723.723.723,0,0,0,.723.723" transform="translate(5.144 2.016)" fill="#00a7ff"/>
        <path id="Path_375" data-name="Path 375" d="M36.346,13.225a.879.879,0,1,0-.879-.879.879.879,0,0,0,.879.879" transform="translate(6.164 1.993)" fill="#00a7ff"/>
        <path id="Path_376" data-name="Path 376" d="M42.358,13.315a.957.957,0,1,0-.957-.957.957.957,0,0,0,.957.957" transform="translate(7.195 1.981)" fill="#00a7ff"/>
        <path id="Path_377" data-name="Path 377" d="M48.364,13.36a1,1,0,1,0-1-1,1,1,0,0,0,1,1" transform="translate(8.232 1.976)" fill="#00a7ff"/>
        <path id="Path_378" data-name="Path 378" d="M54.361,13.337a.977.977,0,1,0-.977-.977.977.977,0,0,0,.977.977" transform="translate(9.278 1.978)" fill="#00a7ff"/>
        <path id="Path_379" data-name="Path 379" d="M60.346,13.225a.879.879,0,1,0-.879-.879.879.879,0,0,0,.879.879" transform="translate(10.335 1.993)" fill="#00a7ff"/>
        <path id="Path_380" data-name="Path 380" d="M66.326,13.069a.742.742,0,1,0-.742-.742.742.742,0,0,0,.742.742" transform="translate(11.398 2.013)" fill="#00a7ff"/>
        <path id="Path_381" data-name="Path 381" d="M72.3,12.844a.547.547,0,1,0-.547-.547.548.548,0,0,0,.547.547" transform="translate(12.469 2.042)" fill="#00a7ff"/>
        <path id="Path_382" data-name="Path 382" d="M78.265,12.6a.332.332,0,1,0-.332-.332.333.333,0,0,0,.332.332" transform="translate(13.544 2.074)" fill="#00a7ff"/>
        <path id="Path_383" data-name="Path 383" d="M84.23,12.329a.1.1,0,1,0-.1-.1.1.1,0,0,0,.1.1" transform="translate(14.621 2.109)" fill="#00a7ff"/>
        <path id="Path_384" data-name="Path 384" d="M6.225,18.283a.058.058,0,0,0,.059-.059.059.059,0,0,0-.117,0,.058.058,0,0,0,.059.059" transform="translate(1.072 3.157)" fill="#00a7ff"/>
        <path id="Path_385" data-name="Path 385" d="M12.262,18.575a.312.312,0,1,0-.312-.312.312.312,0,0,0,.312.312" transform="translate(2.077 3.12)" fill="#00a7ff"/>
        <path id="Path_386" data-name="Path 386" d="M18.3,18.888a.586.586,0,1,0-.586-.586.584.584,0,0,0,.586.586" transform="translate(3.079 3.079)" fill="#00a7ff"/>
        <path id="Path_387" data-name="Path 387" d="M24.34,19.181a.84.84,0,1,0-.839-.839.839.839,0,0,0,.839.839" transform="translate(4.084 3.041)" fill="#00a7ff"/>
        <path id="Path_388" data-name="Path 388" d="M30.372,19.427a1.055,1.055,0,1,0-1.054-1.054,1.054,1.054,0,0,0,1.054,1.054" transform="translate(5.095 3.01)" fill="#00a7ff"/>
        <path id="Path_389" data-name="Path 389" d="M36.4,19.607a1.211,1.211,0,1,0-1.211-1.21,1.21,1.21,0,0,0,1.211,1.21" transform="translate(6.115 2.987)" fill="#00a7ff"/>
        <path id="Path_390" data-name="Path 390" d="M42.413,19.741a1.328,1.328,0,1,0-1.328-1.328,1.328,1.328,0,0,0,1.328,1.328" transform="translate(7.14 2.969)" fill="#00a7ff"/>
        <path id="Path_391" data-name="Path 391" d="M48.418,19.786a1.367,1.367,0,1,0-1.367-1.367,1.367,1.367,0,0,0,1.367,1.367" transform="translate(8.177 2.963)" fill="#00a7ff"/>
        <path id="Path_392" data-name="Path 392" d="M54.413,19.741a1.328,1.328,0,1,0-1.328-1.328,1.328,1.328,0,0,0,1.328,1.328" transform="translate(9.226 2.969)" fill="#00a7ff"/>
        <path id="Path_393" data-name="Path 393" d="M60.4,19.629a1.23,1.23,0,1,0-1.23-1.23,1.23,1.23,0,0,0,1.23,1.23" transform="translate(10.283 2.984)" fill="#00a7ff"/>
        <path id="Path_394" data-name="Path 394" d="M66.375,19.449A1.074,1.074,0,1,0,65.3,18.375a1.075,1.075,0,0,0,1.074,1.074" transform="translate(11.349 3.007)" fill="#00a7ff"/>
        <path id="Path_395" data-name="Path 395" d="M72.343,19.2a.859.859,0,1,0-.859-.859.86.86,0,0,0,.859.859" transform="translate(12.423 3.039)" fill="#00a7ff"/>
        <path id="Path_396" data-name="Path 396" d="M78.306,18.911a.606.606,0,1,0-.606-.606.606.606,0,0,0,.606.606" transform="translate(13.503 3.076)" fill="#00a7ff"/>
        <path id="Path_397" data-name="Path 397" d="M84.268,18.62a.352.352,0,1,0-.351-.351.351.351,0,0,0,.351.351" transform="translate(14.584 3.114)" fill="#00a7ff"/>
        <path id="Path_398" data-name="Path 398" d="M90.228,18.306a.078.078,0,0,0,0-.156.078.078,0,1,0,0,.156" transform="translate(15.667 3.154)" fill="#00a7ff"/>
        <path id="Path_399" data-name="Path 399" d="M.219,24.239a.02.02,0,0,0,.02-.02.02.02,0,0,0-.04,0,.02.02,0,0,0,.02.02" transform="translate(0.035 4.206)" fill="#00a7ff"/>
        <path id="Path_400" data-name="Path 400" d="M6.251,24.485a.234.234,0,1,0-.235-.235.235.235,0,0,0,.235.235" transform="translate(1.046 4.174)" fill="#00a7ff"/>
        <path id="Path_401" data-name="Path 401" d="M12.3,24.844a.547.547,0,1,0-.547-.547.548.548,0,0,0,.547.547" transform="translate(2.042 4.127)" fill="#00a7ff"/>
        <path id="Path_402" data-name="Path 402" d="M18.34,25.181a.84.84,0,1,0-.839-.839.839.839,0,0,0,.839.839" transform="translate(3.041 4.084)" fill="#00a7ff"/>
        <path id="Path_403" data-name="Path 403" d="M24.381,25.495a1.113,1.113,0,1,0-1.113-1.113,1.113,1.113,0,0,0,1.113,1.113" transform="translate(4.044 4.044)" fill="#00a7ff"/>
        <path id="Path_404" data-name="Path 404" d="M30.418,25.786a1.367,1.367,0,1,0-1.367-1.367,1.367,1.367,0,0,0,1.367,1.367" transform="translate(5.049 4.006)" fill="#00a7ff"/>
        <path id="Path_405" data-name="Path 405" d="M36.447,26.01a1.562,1.562,0,1,0-1.562-1.562,1.562,1.562,0,0,0,1.562,1.562" transform="translate(6.063 3.977)" fill="#00a7ff"/>
        <path id="Path_406" data-name="Path 406" d="M42.465,26.144a1.68,1.68,0,1,0-1.68-1.68,1.68,1.68,0,0,0,1.68,1.68" transform="translate(7.088 3.96)" fill="#00a7ff"/>
        <path id="Path_407" data-name="Path 407" d="M48.473,26.212a1.738,1.738,0,1,0-1.738-1.738,1.738,1.738,0,0,0,1.738,1.738" transform="translate(8.122 3.951)" fill="#00a7ff"/>
        <path id="Path_408" data-name="Path 408" d="M54.468,26.167a1.7,1.7,0,1,0-1.7-1.7,1.7,1.7,0,0,0,1.7,1.7" transform="translate(9.171 3.957)" fill="#00a7ff"/>
        <path id="Path_409" data-name="Path 409" d="M60.447,26.01a1.562,1.562,0,1,0-1.562-1.562,1.562,1.562,0,0,0,1.562,1.562" transform="translate(10.234 3.977)" fill="#00a7ff"/>
        <path id="Path_410" data-name="Path 410" d="M66.421,25.809a1.387,1.387,0,1,0-1.386-1.386,1.387,1.387,0,0,0,1.386,1.386" transform="translate(11.302 4.003)" fill="#00a7ff"/>
        <path id="Path_411" data-name="Path 411" d="M72.384,25.516a1.133,1.133,0,1,0-1.133-1.133,1.133,1.133,0,0,0,1.133,1.133" transform="translate(12.383 4.041)" fill="#00a7ff"/>
        <path id="Path_412" data-name="Path 412" d="M78.343,25.2a.859.859,0,1,0-.859-.859.86.86,0,0,0,.859.859" transform="translate(13.466 4.081)" fill="#00a7ff"/>
        <path id="Path_413" data-name="Path 413" d="M84.3,24.867a.566.566,0,1,0-.566-.566.566.566,0,0,0,.566.566" transform="translate(14.552 4.125)" fill="#00a7ff"/>
        <path id="Path_414" data-name="Path 414" d="M90.254,24.508A.254.254,0,1,0,90,24.255a.254.254,0,0,0,.254.254" transform="translate(15.641 4.171)" fill="#00a7ff"/>
        <path id="Path_415" data-name="Path 415" d="M96.219,24.239a.02.02,0,0,0,.02-.02.02.02,0,0,0-.04,0,.02.02,0,0,0,.02.02" transform="translate(16.718 4.206)" fill="#00a7ff"/>
        <path id="Path_416" data-name="Path 416" d="M.228,30.306a.078.078,0,1,0-.079-.077.078.078,0,0,0,.079.077" transform="translate(0.026 5.24)" fill="#00a7ff"/>
        <path id="Path_417" data-name="Path 417" d="M6.274,30.665a.391.391,0,1,0-.391-.391.391.391,0,0,0,.391.391" transform="translate(1.022 5.193)" fill="#00a7ff"/>
        <path id="Path_418" data-name="Path 418" d="M12.323,31.046a.722.722,0,1,0-.723-.723.723.723,0,0,0,.723.723" transform="translate(2.016 5.144)" fill="#00a7ff"/>
        <path id="Path_419" data-name="Path 419" d="M18.372,31.427a1.055,1.055,0,1,0-1.054-1.054,1.054,1.054,0,0,0,1.054,1.054" transform="translate(3.01 5.095)" fill="#00a7ff"/>
        <path id="Path_420" data-name="Path 420" d="M24.418,31.786a1.367,1.367,0,1,0-1.367-1.367,1.367,1.367,0,0,0,1.367,1.367" transform="translate(4.006 5.049)" fill="#00a7ff"/>
        <path id="Path_421" data-name="Path 421" d="M30.459,32.1a1.64,1.64,0,1,0-1.641-1.64,1.641,1.641,0,0,0,1.641,1.64" transform="translate(5.008 5.008)" fill="#00a7ff"/>
        <path id="Path_422" data-name="Path 422" d="M36.494,32.369a1.875,1.875,0,1,0-1.875-1.875,1.875,1.875,0,0,0,1.875,1.875" transform="translate(6.016 4.974)" fill="#00a7ff"/>
        <path id="Path_423" data-name="Path 423" d="M42.52,32.57a2.051,2.051,0,1,0-2.051-2.051A2.05,2.05,0,0,0,42.52,32.57" transform="translate(7.033 4.948)" fill="#00a7ff"/>
        <path id="Path_424" data-name="Path 424" d="M48.528,32.638a2.109,2.109,0,1,0-2.109-2.109,2.109,2.109,0,0,0,2.109,2.109" transform="translate(8.067 4.939)" fill="#00a7ff"/>
        <path id="Path_425" data-name="Path 425" d="M54.52,32.57a2.051,2.051,0,1,0-2.051-2.051A2.05,2.05,0,0,0,54.52,32.57" transform="translate(9.119 4.948)" fill="#00a7ff"/>
        <path id="Path_426" data-name="Path 426" d="M60.5,32.391A1.894,1.894,0,1,0,58.6,30.5,1.9,1.9,0,0,0,60.5,32.391" transform="translate(10.184 4.971)" fill="#00a7ff"/>
        <path id="Path_427" data-name="Path 427" d="M66.462,32.122a1.66,1.66,0,1,0-1.66-1.66,1.66,1.66,0,0,0,1.66,1.66" transform="translate(11.262 5.006)" fill="#00a7ff"/>
        <path id="Path_428" data-name="Path 428" d="M72.421,31.809a1.387,1.387,0,1,0-1.386-1.386,1.387,1.387,0,0,0,1.386,1.386" transform="translate(12.345 5.046)" fill="#00a7ff"/>
        <path id="Path_429" data-name="Path 429" d="M78.375,31.449A1.074,1.074,0,1,0,77.3,30.375a1.075,1.075,0,0,0,1.074,1.074" transform="translate(13.434 5.092)" fill="#00a7ff"/>
        <path id="Path_430" data-name="Path 430" d="M84.329,31.091a.762.762,0,1,0-.762-.762.762.762,0,0,0,.762.762" transform="translate(14.523 5.138)" fill="#00a7ff"/>
        <path id="Path_431" data-name="Path 431" d="M90.277,30.687a.41.41,0,1,0-.41-.41.409.409,0,0,0,.41.41" transform="translate(15.618 5.191)" fill="#00a7ff"/>
        <path id="Path_432" data-name="Path 432" d="M96.23,30.329a.1.1,0,1,0-.1-.1.1.1,0,0,0,.1.1" transform="translate(16.707 5.237)" fill="#00a7ff"/>
        <path id="Path_433" data-name="Path 433" d="M.239,36.4a.156.156,0,1,0-.156-.157.156.156,0,0,0,.156.157" transform="translate(0.014 6.271)" fill="#00a7ff"/>
        <path id="Path_434" data-name="Path 434" d="M6.291,36.8a.508.508,0,1,0-.508-.507.508.508,0,0,0,.508.507" transform="translate(1.005 6.219)" fill="#00a7ff"/>
        <path id="Path_435" data-name="Path 435" d="M12.346,37.225a.879.879,0,1,0-.879-.879.879.879,0,0,0,.879.879" transform="translate(1.993 6.164)" fill="#00a7ff"/>
        <path id="Path_436" data-name="Path 436" d="M18.4,37.607a1.211,1.211,0,1,0-1.21-1.21,1.211,1.211,0,0,0,1.21,1.21" transform="translate(2.987 6.115)" fill="#00a7ff"/>
        <path id="Path_437" data-name="Path 437" d="M24.447,38.01a1.562,1.562,0,1,0-1.562-1.562,1.562,1.562,0,0,0,1.562,1.562" transform="translate(3.977 6.063)" fill="#00a7ff"/>
        <path id="Path_438" data-name="Path 438" d="M30.494,38.369a1.875,1.875,0,1,0-1.875-1.875,1.875,1.875,0,0,0,1.875,1.875" transform="translate(4.974 6.016)" fill="#00a7ff"/>
        <path id="Path_439" data-name="Path 439" d="M36.537,38.7a2.168,2.168,0,1,0-2.168-2.168A2.168,2.168,0,0,0,36.537,38.7" transform="translate(5.973 5.973)" fill="#00a7ff"/>
        <path id="Path_440" data-name="Path 440" d="M42.548,38.8A2.246,2.246,0,1,0,40.3,36.55,2.245,2.245,0,0,0,42.548,38.8" transform="translate(7.004 5.961)" fill="#00a7ff"/>
        <path id="Path_441" data-name="Path 441" d="M48.531,38.66A2.129,2.129,0,1,0,46.4,36.532a2.128,2.128,0,0,0,2.129,2.128" transform="translate(8.064 5.979)" fill="#00a7ff"/>
        <path id="Path_442" data-name="Path 442" d="M54.548,38.8A2.246,2.246,0,1,0,52.3,36.55,2.245,2.245,0,0,0,54.548,38.8" transform="translate(9.09 5.961)" fill="#00a7ff"/>
        <path id="Path_443" data-name="Path 443" d="M60.54,38.728a2.187,2.187,0,1,0-2.187-2.187,2.187,2.187,0,0,0,2.187,2.187" transform="translate(10.141 5.97)" fill="#00a7ff"/>
        <path id="Path_444" data-name="Path 444" d="M66.5,38.391A1.894,1.894,0,1,0,64.6,36.5,1.9,1.9,0,0,0,66.5,38.391" transform="translate(11.227 6.013)" fill="#00a7ff"/>
        <path id="Path_445" data-name="Path 445" d="M72.45,38.032a1.582,1.582,0,1,0-1.582-1.582,1.582,1.582,0,0,0,1.582,1.582" transform="translate(12.316 6.06)" fill="#00a7ff"/>
        <path id="Path_446" data-name="Path 446" d="M78.4,37.651a1.25,1.25,0,1,0-1.25-1.25,1.25,1.25,0,0,0,1.25,1.25" transform="translate(13.408 6.109)" fill="#00a7ff"/>
        <path id="Path_447" data-name="Path 447" d="M84.349,37.248a.9.9,0,1,0-.9-.9.9.9,0,0,0,.9.9" transform="translate(14.503 6.161)" fill="#00a7ff"/>
        <path id="Path_448" data-name="Path 448" d="M90.3,36.844a.547.547,0,1,0-.547-.547.548.548,0,0,0,.547.547" transform="translate(15.598 6.213)" fill="#00a7ff"/>
        <path id="Path_449" data-name="Path 449" d="M96.245,36.441a.2.2,0,1,0-.195-.195.194.194,0,0,0,.195.195" transform="translate(16.692 6.265)" fill="#00a7ff"/>
        <path id="Path_450" data-name="Path 450" d="M.251,42.485a.234.234,0,1,0-.235-.235.235.235,0,0,0,.235.235" transform="translate(0.003 7.302)" fill="#00a7ff"/>
        <path id="Path_451" data-name="Path 451" d="M6.306,42.911a.605.605,0,1,0-.606-.606.606.606,0,0,0,.606.606" transform="translate(0.991 7.247)" fill="#00a7ff"/>
        <path id="Path_452" data-name="Path 452" d="M12.358,43.315a.957.957,0,1,0-.957-.957.957.957,0,0,0,.957.957" transform="translate(1.981 7.195)" fill="#00a7ff"/>
        <path id="Path_453" data-name="Path 453" d="M18.413,43.741a1.328,1.328,0,1,0-1.328-1.328,1.328,1.328,0,0,0,1.328,1.328" transform="translate(2.969 7.14)" fill="#00a7ff"/>
        <path id="Path_454" data-name="Path 454" d="M24.465,44.144a1.68,1.68,0,1,0-1.68-1.68,1.68,1.68,0,0,0,1.68,1.68" transform="translate(3.96 7.088)" fill="#00a7ff"/>
        <path id="Path_455" data-name="Path 455" d="M30.52,44.57a2.051,2.051,0,1,0-2.051-2.051A2.05,2.05,0,0,0,30.52,44.57" transform="translate(4.948 7.033)" fill="#00a7ff"/>
        <path id="Path_456" data-name="Path 456" d="M36.548,44.8A2.246,2.246,0,1,0,34.3,42.55,2.245,2.245,0,0,0,36.548,44.8" transform="translate(5.961 7.004)" fill="#00a7ff"/>
        <path id="Path_457" data-name="Path 457" d="M42.453,44.055a1.6,1.6,0,1,0-1.6-1.6,1.6,1.6,0,0,0,1.6,1.6" transform="translate(7.1 7.1)" fill="#00a7ff"/>
        <path id="Path_458" data-name="Path 458" d="M48.387,43.539a1.152,1.152,0,1,0-1.153-1.153,1.152,1.152,0,0,0,1.153,1.153" transform="translate(8.209 7.166)" fill="#00a7ff"/>
        <path id="Path_459" data-name="Path 459" d="M54.444,43.988A1.543,1.543,0,1,0,52.9,42.446a1.542,1.542,0,0,0,1.542,1.542" transform="translate(9.194 7.108)" fill="#00a7ff"/>
        <path id="Path_460" data-name="Path 460" d="M60.546,44.772a2.226,2.226,0,1,0-2.227-2.227,2.226,2.226,0,0,0,2.227,2.227" transform="translate(10.135 7.007)" fill="#00a7ff"/>
        <path id="Path_461" data-name="Path 461" d="M66.523,44.593a2.07,2.07,0,1,0-2.071-2.071,2.071,2.071,0,0,0,2.071,2.071" transform="translate(11.201 7.03)" fill="#00a7ff"/>
        <path id="Path_462" data-name="Path 462" d="M72.47,44.19a1.719,1.719,0,1,0-1.718-1.72,1.719,1.719,0,0,0,1.718,1.72" transform="translate(12.296 7.082)" fill="#00a7ff"/>
        <path id="Path_463" data-name="Path 463" d="M78.416,43.763a1.348,1.348,0,1,0-1.348-1.348,1.348,1.348,0,0,0,1.348,1.348" transform="translate(13.394 7.137)" fill="#00a7ff"/>
        <path id="Path_464" data-name="Path 464" d="M84.364,43.36a1,1,0,1,0-1-1,1,1,0,0,0,1,1" transform="translate(14.488 7.189)" fill="#00a7ff"/>
        <path id="Path_465" data-name="Path 465" d="M90.308,42.934a.625.625,0,1,0-.624-.624.624.624,0,0,0,.624.624" transform="translate(15.586 7.244)" fill="#00a7ff"/>
        <path id="Path_466" data-name="Path 466" d="M96.254,42.508A.254.254,0,1,0,96,42.255a.254.254,0,0,0,.254.254" transform="translate(16.684 7.299)" fill="#00a7ff"/>
        <path id="Path_467" data-name="Path 467" d="M.254,48.508A.254.254,0,1,0,0,48.255a.254.254,0,0,0,.254.254" transform="translate(0 8.342)" fill="#00a7ff"/>
        <path id="Path_468" data-name="Path 468" d="M6.308,48.934a.625.625,0,1,0-.624-.624.624.624,0,0,0,.624.624" transform="translate(0.988 8.287)" fill="#00a7ff"/>
        <path id="Path_469" data-name="Path 469" d="M12.363,49.36a1,1,0,1,0-1-1,1,1,0,0,0,1,1" transform="translate(1.976 8.232)" fill="#00a7ff"/>
        <path id="Path_470" data-name="Path 470" d="M18.418,49.786a1.367,1.367,0,1,0-1.367-1.367,1.367,1.367,0,0,0,1.367,1.367" transform="translate(2.963 8.177)" fill="#00a7ff"/>
        <path id="Path_471" data-name="Path 471" d="M24.473,50.212a1.738,1.738,0,1,0-1.738-1.738,1.738,1.738,0,0,0,1.738,1.738" transform="translate(3.951 8.122)" fill="#00a7ff"/>
        <path id="Path_472" data-name="Path 472" d="M30.528,50.638a2.109,2.109,0,1,0-2.109-2.109,2.109,2.109,0,0,0,2.109,2.109" transform="translate(4.939 8.067)" fill="#00a7ff"/>
        <path id="Path_473" data-name="Path 473" d="M36.531,50.66A2.129,2.129,0,1,0,34.4,48.531a2.128,2.128,0,0,0,2.129,2.129" transform="translate(5.979 8.064)" fill="#00a7ff"/>
        <path id="Path_474" data-name="Path 474" d="M42.387,49.539a1.152,1.152,0,1,0-1.153-1.153,1.152,1.152,0,0,0,1.153,1.153" transform="translate(7.166 8.209)" fill="#00a7ff"/>
        <path id="Path_475" data-name="Path 475" d="M48.277,48.687a.41.41,0,1,0-.41-.41.409.409,0,0,0,.41.41" transform="translate(8.319 8.319)" fill="#00a7ff"/>
        <path id="Path_476" data-name="Path 476" d="M54.375,49.449A1.074,1.074,0,1,0,53.3,48.375a1.075,1.075,0,0,0,1.074,1.074" transform="translate(9.263 8.22)" fill="#00a7ff"/>
        <path id="Path_477" data-name="Path 477" d="M60.523,50.593a2.07,2.07,0,1,0-2.071-2.071,2.071,2.071,0,0,0,2.071,2.071" transform="translate(10.158 8.073)" fill="#00a7ff"/>
        <path id="Path_478" data-name="Path 478" d="M66.531,50.66A2.129,2.129,0,1,0,64.4,48.531a2.128,2.128,0,0,0,2.129,2.129" transform="translate(11.192 8.064)" fill="#00a7ff"/>
        <path id="Path_479" data-name="Path 479" d="M72.476,50.235a1.758,1.758,0,1,0-1.757-1.757,1.757,1.757,0,0,0,1.757,1.757" transform="translate(12.29 8.119)" fill="#00a7ff"/>
        <path id="Path_480" data-name="Path 480" d="M78.421,49.809a1.387,1.387,0,1,0-1.386-1.386,1.387,1.387,0,0,0,1.386,1.386" transform="translate(13.388 8.174)" fill="#00a7ff"/>
        <path id="Path_481" data-name="Path 481" d="M84.369,49.4a1.035,1.035,0,1,0-1.035-1.035A1.035,1.035,0,0,0,84.369,49.4" transform="translate(14.483 8.226)" fill="#00a7ff"/>
        <path id="Path_482" data-name="Path 482" d="M90.314,48.979a.664.664,0,1,0-.664-.664.664.664,0,0,0,.664.664" transform="translate(15.58 8.281)" fill="#00a7ff"/>
        <path id="Path_483" data-name="Path 483" d="M96.259,48.553a.293.293,0,1,0-.293-.292.293.293,0,0,0,.293.292" transform="translate(16.678 8.336)" fill="#00a7ff"/>
        <path id="Path_484" data-name="Path 484" d="M102.219,48.239a.02.02,0,0,0,.02-.02.02.02,0,0,0-.04,0,.02.02,0,0,0,.02.02" transform="translate(17.761 8.377)" fill="#00a7ff"/>
        <path id="Path_485" data-name="Path 485" d="M.251,54.485a.234.234,0,1,0-.235-.235.235.235,0,0,0,.235.235" transform="translate(0.003 9.388)" fill="#00a7ff"/>
        <path id="Path_486" data-name="Path 486" d="M6.306,54.911a.605.605,0,1,0-.606-.606.606.606,0,0,0,.606.606" transform="translate(0.991 9.333)" fill="#00a7ff"/>
        <path id="Path_487" data-name="Path 487" d="M12.361,55.337a.977.977,0,1,0-.977-.977.977.977,0,0,0,.977.977" transform="translate(1.978 9.278)" fill="#00a7ff"/>
        <path id="Path_488" data-name="Path 488" d="M18.413,55.741a1.328,1.328,0,1,0-1.328-1.328,1.328,1.328,0,0,0,1.328,1.328" transform="translate(2.969 9.226)" fill="#00a7ff"/>
        <path id="Path_489" data-name="Path 489" d="M24.467,56.167a1.7,1.7,0,1,0-1.7-1.7,1.7,1.7,0,0,0,1.7,1.7" transform="translate(3.957 9.171)" fill="#00a7ff"/>
        <path id="Path_490" data-name="Path 490" d="M30.52,56.57a2.051,2.051,0,1,0-2.051-2.051A2.05,2.05,0,0,0,30.52,56.57" transform="translate(4.948 9.119)" fill="#00a7ff"/>
        <path id="Path_491" data-name="Path 491" d="M36.548,56.8A2.246,2.246,0,1,0,34.3,54.55,2.245,2.245,0,0,0,36.548,56.8" transform="translate(5.961 9.09)" fill="#00a7ff"/>
        <path id="Path_492" data-name="Path 492" d="M42.444,55.988A1.543,1.543,0,1,0,40.9,54.446a1.542,1.542,0,0,0,1.542,1.542" transform="translate(7.108 9.194)" fill="#00a7ff"/>
        <path id="Path_493" data-name="Path 493" d="M48.375,55.449A1.074,1.074,0,1,0,47.3,54.375a1.075,1.075,0,0,0,1.074,1.074" transform="translate(8.22 9.263)" fill="#00a7ff"/>
        <path id="Path_494" data-name="Path 494" d="M54.436,55.921a1.484,1.484,0,1,0-1.485-1.484,1.484,1.484,0,0,0,1.485,1.484" transform="translate(9.202 9.202)" fill="#00a7ff"/>
        <path id="Path_495" data-name="Path 495" d="M60.543,56.749a2.207,2.207,0,1,0-2.207-2.207,2.207,2.207,0,0,0,2.207,2.207" transform="translate(10.138 9.095)" fill="#00a7ff"/>
        <path id="Path_496" data-name="Path 496" d="M66.525,56.616a2.09,2.09,0,1,0-2.089-2.089,2.089,2.089,0,0,0,2.089,2.089" transform="translate(11.198 9.113)" fill="#00a7ff"/>
        <path id="Path_497" data-name="Path 497" d="M72.47,56.19a1.719,1.719,0,1,0-1.718-1.72,1.719,1.719,0,0,0,1.718,1.72" transform="translate(12.296 9.168)" fill="#00a7ff"/>
        <path id="Path_498" data-name="Path 498" d="M78.418,55.786a1.367,1.367,0,1,0-1.367-1.367,1.367,1.367,0,0,0,1.367,1.367" transform="translate(13.391 9.22)" fill="#00a7ff"/>
        <path id="Path_499" data-name="Path 499" d="M84.364,55.36a1,1,0,1,0-1-1,1,1,0,0,0,1,1" transform="translate(14.488 9.275)" fill="#00a7ff"/>
        <path id="Path_500" data-name="Path 500" d="M90.308,54.934a.625.625,0,1,0-.624-.624.624.624,0,0,0,.624.624" transform="translate(15.586 9.33)" fill="#00a7ff"/>
        <path id="Path_501" data-name="Path 501" d="M96.256,54.53a.273.273,0,1,0-.273-.273.273.273,0,0,0,.273.273" transform="translate(16.681 9.382)" fill="#00a7ff"/>
        <path id="Path_502" data-name="Path 502" d="M.242,60.418a.175.175,0,1,0-.176-.176.176.176,0,0,0,.176.176" transform="translate(0.011 10.439)" fill="#00a7ff"/>
        <path id="Path_503" data-name="Path 503" d="M6.294,60.822a.527.527,0,1,0-.527-.527.527.527,0,0,0,.527.527" transform="translate(1.002 10.387)" fill="#00a7ff"/>
        <path id="Path_504" data-name="Path 504" d="M12.346,61.225a.879.879,0,1,0-.879-.879.879.879,0,0,0,.879.879" transform="translate(1.993 10.335)" fill="#00a7ff"/>
        <path id="Path_505" data-name="Path 505" d="M18.4,61.629a1.23,1.23,0,1,0-1.23-1.23,1.23,1.23,0,0,0,1.23,1.23" transform="translate(2.984 10.283)" fill="#00a7ff"/>
        <path id="Path_506" data-name="Path 506" d="M24.447,62.01a1.562,1.562,0,1,0-1.562-1.562,1.562,1.562,0,0,0,1.562,1.562" transform="translate(3.977 10.234)" fill="#00a7ff"/>
        <path id="Path_507" data-name="Path 507" d="M30.5,62.391A1.894,1.894,0,1,0,28.6,60.5,1.9,1.9,0,0,0,30.5,62.391" transform="translate(4.971 10.184)" fill="#00a7ff"/>
        <path id="Path_508" data-name="Path 508" d="M36.54,62.728a2.187,2.187,0,1,0-2.187-2.187,2.187,2.187,0,0,0,2.187,2.187" transform="translate(5.97 10.141)" fill="#00a7ff"/>
        <path id="Path_509" data-name="Path 509" d="M42.546,62.772a2.226,2.226,0,1,0-2.227-2.227,2.226,2.226,0,0,0,2.227,2.227" transform="translate(7.007 10.135)" fill="#00a7ff"/>
        <path id="Path_510" data-name="Path 510" d="M48.523,62.593a2.07,2.07,0,1,0-2.071-2.071,2.071,2.071,0,0,0,2.071,2.071" transform="translate(8.073 10.159)" fill="#00a7ff"/>
        <path id="Path_511" data-name="Path 511" d="M54.543,62.749a2.207,2.207,0,1,0-2.207-2.207,2.207,2.207,0,0,0,2.207,2.207" transform="translate(9.095 10.138)" fill="#00a7ff"/>
        <path id="Path_512" data-name="Path 512" d="M60.543,62.749a2.207,2.207,0,1,0-2.207-2.207,2.207,2.207,0,0,0,2.207,2.207" transform="translate(10.138 10.138)" fill="#00a7ff"/>
        <path id="Path_513" data-name="Path 513" d="M66.5,62.414A1.914,1.914,0,1,0,64.585,60.5,1.914,1.914,0,0,0,66.5,62.414" transform="translate(11.224 10.182)" fill="#00a7ff"/>
        <path id="Path_514" data-name="Path 514" d="M72.453,62.055a1.6,1.6,0,1,0-1.6-1.6,1.6,1.6,0,0,0,1.6,1.6" transform="translate(12.313 10.228)" fill="#00a7ff"/>
        <path id="Path_515" data-name="Path 515" d="M78.4,61.651a1.25,1.25,0,1,0-1.25-1.25,1.25,1.25,0,0,0,1.25,1.25" transform="translate(13.408 10.28)" fill="#00a7ff"/>
        <path id="Path_516" data-name="Path 516" d="M84.352,61.27a.918.918,0,1,0-.918-.918.918.918,0,0,0,.918.918" transform="translate(14.5 10.329)" fill="#00a7ff"/>
        <path id="Path_517" data-name="Path 517" d="M90.3,60.844a.547.547,0,1,0-.547-.547.548.548,0,0,0,.547.547" transform="translate(15.598 10.384)" fill="#00a7ff"/>
        <path id="Path_518" data-name="Path 518" d="M96.245,60.441a.2.2,0,1,0-.195-.195.194.194,0,0,0,.195.195" transform="translate(16.692 10.436)" fill="#00a7ff"/>
        <path id="Path_519" data-name="Path 519" d="M.228,66.306a.078.078,0,1,0-.079-.077.078.078,0,0,0,.079.077" transform="translate(0.026 11.496)" fill="#00a7ff"/>
        <path id="Path_520" data-name="Path 520" d="M6.277,66.687a.41.41,0,1,0-.41-.41.409.409,0,0,0,.41.41" transform="translate(1.02 11.447)" fill="#00a7ff"/>
        <path id="Path_521" data-name="Path 521" d="M12.326,67.069a.742.742,0,1,0-.742-.742.742.742,0,0,0,.742.742" transform="translate(2.013 11.398)" fill="#00a7ff"/>
        <path id="Path_522" data-name="Path 522" d="M18.375,67.449A1.074,1.074,0,1,0,17.3,66.375a1.075,1.075,0,0,0,1.074,1.074" transform="translate(3.007 11.349)" fill="#00a7ff"/>
        <path id="Path_523" data-name="Path 523" d="M24.421,67.809a1.387,1.387,0,1,0-1.386-1.386,1.387,1.387,0,0,0,1.386,1.386" transform="translate(4.003 11.302)" fill="#00a7ff"/>
        <path id="Path_524" data-name="Path 524" d="M30.462,68.122a1.66,1.66,0,1,0-1.66-1.66,1.66,1.66,0,0,0,1.66,1.66" transform="translate(5.005 11.262)" fill="#00a7ff"/>
        <path id="Path_525" data-name="Path 525" d="M36.5,68.391A1.894,1.894,0,1,0,34.6,66.5,1.9,1.9,0,0,0,36.5,68.391" transform="translate(6.013 11.227)" fill="#00a7ff"/>
        <path id="Path_526" data-name="Path 526" d="M42.523,68.593a2.07,2.07,0,1,0-2.071-2.071,2.071,2.071,0,0,0,2.071,2.071" transform="translate(7.03 11.201)" fill="#00a7ff"/>
        <path id="Path_527" data-name="Path 527" d="M48.531,68.66A2.129,2.129,0,1,0,46.4,66.531a2.128,2.128,0,0,0,2.129,2.129" transform="translate(8.064 11.193)" fill="#00a7ff"/>
        <path id="Path_528" data-name="Path 528" d="M54.525,68.616a2.09,2.09,0,1,0-2.089-2.089,2.089,2.089,0,0,0,2.089,2.089" transform="translate(9.113 11.198)" fill="#00a7ff"/>
        <path id="Path_529" data-name="Path 529" d="M60.5,68.414A1.914,1.914,0,1,0,58.585,66.5,1.914,1.914,0,0,0,60.5,68.414" transform="translate(10.181 11.224)" fill="#00a7ff"/>
        <path id="Path_530" data-name="Path 530" d="M66.465,68.144a1.68,1.68,0,1,0-1.68-1.68,1.68,1.68,0,0,0,1.68,1.68" transform="translate(11.259 11.259)" fill="#00a7ff"/>
        <path id="Path_531" data-name="Path 531" d="M72.424,67.83a1.406,1.406,0,1,0-1.406-1.406,1.406,1.406,0,0,0,1.406,1.406" transform="translate(12.342 11.299)" fill="#00a7ff"/>
        <path id="Path_532" data-name="Path 532" d="M78.378,67.472a1.093,1.093,0,1,0-1.094-1.094,1.094,1.094,0,0,0,1.094,1.094" transform="translate(13.431 11.346)" fill="#00a7ff"/>
        <path id="Path_533" data-name="Path 533" d="M84.329,67.091a.762.762,0,1,0-.762-.762.762.762,0,0,0,.762.762" transform="translate(14.523 11.395)" fill="#00a7ff"/>
        <path id="Path_534" data-name="Path 534" d="M90.28,66.709a.43.43,0,1,0-.43-.43.43.43,0,0,0,.43.43" transform="translate(15.615 11.444)" fill="#00a7ff"/>
        <path id="Path_535" data-name="Path 535" d="M96.23,66.329a.1.1,0,1,0-.1-.1.1.1,0,0,0,.1.1" transform="translate(16.707 11.493)" fill="#00a7ff"/>
        <path id="Path_536" data-name="Path 536" d="M.219,72.239a.02.02,0,0,0,.02-.02.02.02,0,0,0-.04,0,.02.02,0,0,0,.02.02" transform="translate(0.035 12.548)" fill="#00a7ff"/>
        <path id="Path_537" data-name="Path 537" d="M6.251,72.485a.234.234,0,1,0-.235-.235.235.235,0,0,0,.235.235" transform="translate(1.046 12.516)" fill="#00a7ff"/>
        <path id="Path_538" data-name="Path 538" d="M12.3,72.844a.547.547,0,1,0-.547-.547.548.548,0,0,0,.547.547" transform="translate(2.042 12.469)" fill="#00a7ff"/>
        <path id="Path_539" data-name="Path 539" d="M18.343,73.2a.859.859,0,1,0-.859-.859.86.86,0,0,0,.859.859" transform="translate(3.039 12.423)" fill="#00a7ff"/>
        <path id="Path_540" data-name="Path 540" d="M24.384,73.516a1.133,1.133,0,1,0-1.133-1.133,1.133,1.133,0,0,0,1.133,1.133" transform="translate(4.041 12.383)" fill="#00a7ff"/>
        <path id="Path_541" data-name="Path 541" d="M30.421,73.809a1.387,1.387,0,1,0-1.386-1.386,1.387,1.387,0,0,0,1.386,1.386" transform="translate(5.046 12.345)" fill="#00a7ff"/>
        <path id="Path_542" data-name="Path 542" d="M36.45,74.032a1.582,1.582,0,1,0-1.582-1.582,1.582,1.582,0,0,0,1.582,1.582" transform="translate(6.06 12.316)" fill="#00a7ff"/>
        <path id="Path_543" data-name="Path 543" d="M42.47,74.19a1.718,1.718,0,1,0-1.718-1.718A1.718,1.718,0,0,0,42.47,74.19" transform="translate(7.082 12.296)" fill="#00a7ff"/>
        <path id="Path_544" data-name="Path 544" d="M48.476,74.234a1.758,1.758,0,1,0-1.757-1.757,1.757,1.757,0,0,0,1.757,1.757" transform="translate(8.119 12.29)" fill="#00a7ff"/>
        <path id="Path_545" data-name="Path 545" d="M54.47,74.19a1.718,1.718,0,1,0-1.718-1.718A1.718,1.718,0,0,0,54.47,74.19" transform="translate(9.168 12.296)" fill="#00a7ff"/>
        <path id="Path_546" data-name="Path 546" d="M60.453,74.055a1.6,1.6,0,1,0-1.6-1.6,1.6,1.6,0,0,0,1.6,1.6" transform="translate(10.228 12.313)" fill="#00a7ff"/>
        <path id="Path_547" data-name="Path 547" d="M66.424,73.83a1.406,1.406,0,1,0-1.406-1.406,1.406,1.406,0,0,0,1.406,1.406" transform="translate(11.299 12.342)" fill="#00a7ff"/>
        <path id="Path_548" data-name="Path 548" d="M72.387,73.539a1.152,1.152,0,1,0-1.153-1.153,1.152,1.152,0,0,0,1.153,1.153" transform="translate(12.38 12.38)" fill="#00a7ff"/>
        <path id="Path_549" data-name="Path 549" d="M78.346,73.225a.879.879,0,1,0-.879-.879.879.879,0,0,0,.879.879" transform="translate(13.463 12.42)" fill="#00a7ff"/>
        <path id="Path_550" data-name="Path 550" d="M84.3,72.889a.586.586,0,1,0-.586-.586.585.585,0,0,0,.586.586" transform="translate(14.549 12.464)" fill="#00a7ff"/>
        <path id="Path_551" data-name="Path 551" d="M90.257,72.53a.273.273,0,1,0-.273-.273.273.273,0,0,0,.273.273" transform="translate(15.638 12.51)" fill="#00a7ff"/>
        <path id="Path_552" data-name="Path 552" d="M96.219,72.239a.02.02,0,0,0,.02-.02.02.02,0,0,0-.04,0,.02.02,0,0,0,.02.02" transform="translate(16.718 12.548)" fill="#00a7ff"/>
        <path id="Path_553" data-name="Path 553" d="M6.228,78.306a.078.078,0,1,0-.079-.077.078.078,0,0,0,.079.077" transform="translate(1.069 13.582)" fill="#00a7ff"/>
        <path id="Path_554" data-name="Path 554" d="M12.265,78.6a.332.332,0,1,0-.332-.332.333.333,0,0,0,.332.332" transform="translate(2.074 13.544)" fill="#00a7ff"/>
        <path id="Path_555" data-name="Path 555" d="M18.306,78.911a.605.605,0,1,0-.606-.606.606.606,0,0,0,.606.606" transform="translate(3.076 13.504)" fill="#00a7ff"/>
        <path id="Path_556" data-name="Path 556" d="M24.343,79.2a.859.859,0,1,0-.859-.859.86.86,0,0,0,.859.859" transform="translate(4.081 13.466)" fill="#00a7ff"/>
        <path id="Path_557" data-name="Path 557" d="M30.375,79.449A1.074,1.074,0,1,0,29.3,78.375a1.075,1.075,0,0,0,1.074,1.074" transform="translate(5.092 13.434)" fill="#00a7ff"/>
        <path id="Path_558" data-name="Path 558" d="M36.4,79.651a1.25,1.25,0,1,0-1.25-1.25,1.25,1.25,0,0,0,1.25,1.25" transform="translate(6.109 13.408)" fill="#00a7ff"/>
        <path id="Path_559" data-name="Path 559" d="M42.416,79.763a1.348,1.348,0,1,0-1.348-1.348,1.348,1.348,0,0,0,1.348,1.348" transform="translate(7.137 13.394)" fill="#00a7ff"/>
        <path id="Path_560" data-name="Path 560" d="M48.421,79.809a1.387,1.387,0,1,0-1.386-1.386,1.387,1.387,0,0,0,1.386,1.386" transform="translate(8.174 13.388)" fill="#00a7ff"/>
        <path id="Path_561" data-name="Path 561" d="M54.418,79.786a1.367,1.367,0,1,0-1.367-1.367,1.367,1.367,0,0,0,1.367,1.367" transform="translate(9.22 13.391)" fill="#00a7ff"/>
        <path id="Path_562" data-name="Path 562" d="M60.4,79.651a1.25,1.25,0,1,0-1.25-1.25,1.25,1.25,0,0,0,1.25,1.25" transform="translate(10.28 13.408)" fill="#00a7ff"/>
        <path id="Path_563" data-name="Path 563" d="M66.378,79.472a1.093,1.093,0,1,0-1.094-1.094,1.094,1.094,0,0,0,1.094,1.094" transform="translate(11.346 13.431)" fill="#00a7ff"/>
        <path id="Path_564" data-name="Path 564" d="M72.346,79.225a.879.879,0,1,0-.879-.879.879.879,0,0,0,.879.879" transform="translate(12.42 13.463)" fill="#00a7ff"/>
        <path id="Path_565" data-name="Path 565" d="M78.311,78.956a.644.644,0,1,0-.644-.644.645.645,0,0,0,.644.644" transform="translate(13.498 13.498)" fill="#00a7ff"/>
        <path id="Path_566" data-name="Path 566" d="M84.271,78.643a.371.371,0,1,0-.371-.371.37.37,0,0,0,.371.371" transform="translate(14.581 13.538)" fill="#00a7ff"/>
        <path id="Path_567" data-name="Path 567" d="M90.228,78.306a.078.078,0,0,0,0-.156.078.078,0,1,0,0,.156" transform="translate(15.667 13.582)" fill="#00a7ff"/>
        <path id="Path_568" data-name="Path 568" d="M12.23,84.329a.1.1,0,1,0-.1-.1.1.1,0,0,0,.1.1" transform="translate(2.109 14.622)" fill="#00a7ff"/>
        <path id="Path_569" data-name="Path 569" d="M18.268,84.62a.352.352,0,1,0-.351-.351.352.352,0,0,0,.351.351" transform="translate(3.114 14.584)" fill="#00a7ff"/>
        <path id="Path_570" data-name="Path 570" d="M24.3,84.867a.566.566,0,1,0-.566-.566.566.566,0,0,0,.566.566" transform="translate(4.125 14.552)" fill="#00a7ff"/>
        <path id="Path_571" data-name="Path 571" d="M30.329,85.091a.762.762,0,1,0-.762-.762.762.762,0,0,0,.762.762" transform="translate(5.138 14.523)" fill="#00a7ff"/>
        <path id="Path_572" data-name="Path 572" d="M36.349,85.248a.9.9,0,1,0-.9-.9.9.9,0,0,0,.9.9" transform="translate(6.161 14.503)" fill="#00a7ff"/>
        <path id="Path_573" data-name="Path 573" d="M42.364,85.36a1,1,0,1,0-1-1,1,1,0,0,0,1,1" transform="translate(7.189 14.488)" fill="#00a7ff"/>
        <path id="Path_574" data-name="Path 574" d="M48.369,85.4a1.035,1.035,0,1,0-1.035-1.035A1.035,1.035,0,0,0,48.369,85.4" transform="translate(8.226 14.483)" fill="#00a7ff"/>
        <path id="Path_575" data-name="Path 575" d="M54.364,85.36a1,1,0,1,0-1-1,1,1,0,0,0,1,1" transform="translate(9.275 14.488)" fill="#00a7ff"/>
        <path id="Path_576" data-name="Path 576" d="M60.352,85.27a.918.918,0,1,0-.918-.918.918.918,0,0,0,.918.918" transform="translate(10.329 14.5)" fill="#00a7ff"/>
        <path id="Path_577" data-name="Path 577" d="M66.329,85.091a.762.762,0,1,0-.762-.762.762.762,0,0,0,.762.762" transform="translate(11.395 14.523)" fill="#00a7ff"/>
        <path id="Path_578" data-name="Path 578" d="M72.3,84.889a.586.586,0,1,0-.586-.586.585.585,0,0,0,.586.586" transform="translate(12.464 14.549)" fill="#00a7ff"/>
        <path id="Path_579" data-name="Path 579" d="M78.271,84.643a.371.371,0,1,0-.371-.371.37.37,0,0,0,.371.371" transform="translate(13.538 14.581)" fill="#00a7ff"/>
        <path id="Path_580" data-name="Path 580" d="M84.233,84.351a.117.117,0,1,0-.117-.117.118.118,0,0,0,.117.117" transform="translate(14.618 14.618)" fill="#00a7ff"/>
        <path id="Path_581" data-name="Path 581" d="M18.228,90.306a.078.078,0,1,0-.079-.077.078.078,0,0,0,.079.077" transform="translate(3.154 15.667)" fill="#00a7ff"/>
        <path id="Path_582" data-name="Path 582" d="M24.254,90.508A.254.254,0,1,0,24,90.255a.254.254,0,0,0,.254.254" transform="translate(4.171 15.641)" fill="#00a7ff"/>
        <path id="Path_583" data-name="Path 583" d="M30.277,90.687a.41.41,0,1,0-.41-.41.409.409,0,0,0,.41.41" transform="translate(5.191 15.618)" fill="#00a7ff"/>
        <path id="Path_584" data-name="Path 584" d="M36.3,90.844a.547.547,0,1,0-.547-.547.548.548,0,0,0,.547.547" transform="translate(6.213 15.598)" fill="#00a7ff"/>
        <path id="Path_585" data-name="Path 585" d="M42.308,90.934a.625.625,0,1,0-.624-.624.624.624,0,0,0,.624.624" transform="translate(7.244 15.586)" fill="#00a7ff"/>
        <path id="Path_586" data-name="Path 586" d="M48.314,90.979a.664.664,0,1,0-.664-.664.665.665,0,0,0,.664.664" transform="translate(8.281 15.58)" fill="#00a7ff"/>
        <path id="Path_587" data-name="Path 587" d="M54.308,90.934a.625.625,0,1,0-.624-.624.624.624,0,0,0,.624.624" transform="translate(9.33 15.586)" fill="#00a7ff"/>
        <path id="Path_588" data-name="Path 588" d="M60.3,90.844a.547.547,0,1,0-.547-.547.548.548,0,0,0,.547.547" transform="translate(10.384 15.598)" fill="#00a7ff"/>
        <path id="Path_589" data-name="Path 589" d="M66.28,90.709a.43.43,0,1,0-.43-.43.43.43,0,0,0,.43.43" transform="translate(11.444 15.615)" fill="#00a7ff"/>
        <path id="Path_590" data-name="Path 590" d="M72.256,90.53a.273.273,0,1,0-.273-.273.273.273,0,0,0,.273.273" transform="translate(12.51 15.638)" fill="#00a7ff"/>
        <path id="Path_591" data-name="Path 591" d="M78.228,90.306a.078.078,0,0,0,0-.156.078.078,0,1,0,0,.156" transform="translate(13.581 15.667)" fill="#00a7ff"/>
        <path id="Path_592" data-name="Path 592" d="M24.219,96.239a.02.02,0,0,0,.02-.02.02.02,0,0,0-.04,0,.02.02,0,0,0,.02.02" transform="translate(4.206 16.719)" fill="#00a7ff"/>
        <path id="Path_593" data-name="Path 593" d="M30.23,96.329a.1.1,0,1,0-.1-.1.1.1,0,0,0,.1.1" transform="translate(5.237 16.707)" fill="#00a7ff"/>
        <path id="Path_594" data-name="Path 594" d="M36.245,96.441a.2.2,0,1,0-.195-.195.194.194,0,0,0,.195.195" transform="translate(6.265 16.692)" fill="#00a7ff"/>
        <path id="Path_595" data-name="Path 595" d="M42.254,96.508A.254.254,0,1,0,42,96.255a.254.254,0,0,0,.254.254" transform="translate(7.299 16.684)" fill="#00a7ff"/>
        <path id="Path_596" data-name="Path 596" d="M48.259,96.553a.293.293,0,1,0-.293-.292.293.293,0,0,0,.293.292" transform="translate(8.336 16.678)" fill="#00a7ff"/>
        <path id="Path_597" data-name="Path 597" d="M54.256,96.53a.273.273,0,1,0-.273-.273.273.273,0,0,0,.273.273" transform="translate(9.382 16.681)" fill="#00a7ff"/>
        <path id="Path_598" data-name="Path 598" d="M60.245,96.441a.2.2,0,1,0-.195-.195.194.194,0,0,0,.195.195" transform="translate(10.436 16.692)" fill="#00a7ff"/>
        <path id="Path_599" data-name="Path 599" d="M66.23,96.329a.1.1,0,1,0-.1-.1.1.1,0,0,0,.1.1" transform="translate(11.493 16.707)" fill="#00a7ff"/>
        <path id="Path_600" data-name="Path 600" d="M72.219,96.239a.02.02,0,0,0,.02-.02.02.02,0,0,0-.04,0,.02.02,0,0,0,.02.02" transform="translate(12.547 16.719)" fill="#00a7ff"/>
        <path id="Path_601" data-name="Path 601" d="M48.219,102.239a.02.02,0,0,0,.02-.02.02.02,0,0,0-.04,0,.02.02,0,0,0,.02.02" transform="translate(8.376 17.761)" fill="#00a7ff"/>
      </g>
    </g>
  </g>
</svg>
