<svg xmlns="http://www.w3.org/2000/svg" width="24.696" height="37.162" viewBox="0 0 24.696 37.162">
  <g id="pin" transform="translate(-261 -3355)">
    <path id="Path_346" data-name="Path 346" d="M12.349,0A12.348,12.348,0,0,0,0,12.348c0,6.82,12.348,24.814,12.348,24.814S24.7,19.168,24.7,12.348A12.348,12.348,0,0,0,12.349,0m0,17.608a5.8,5.8,0,1,1,5.8-5.8,5.8,5.8,0,0,1-5.8,5.8" transform="translate(260.999 3355)" fill="#0027ff"/>
    <path id="Path_347" data-name="Path 347" d="M23.849,38.387a10.727,10.727,0,0,1,19.23-6.539,10.728,10.728,0,1,0-17.8,11.885,10.678,10.678,0,0,1-1.425-5.346" transform="translate(239.267 3330.045)" fill="#00a7ff"/>
    <path id="Path_348" data-name="Path 348" d="M165.047,218.558c1.683,2.819,2.912,4.723,2.912,4.723s12.348-17.994,12.348-24.814c0-.358-.019-.712-.049-1.062a29.983,29.983,0,0,1-2.022,5.5c-2.337,4.865-5.794,7.983-9.475,11.93-1.187,1.272-2.422,2.531-3.714,3.724" transform="translate(105.389 3168.881)" fill="#001dba"/>
    <rect id="Rectangle_25" data-name="Rectangle 25" width="24.696" height="37.162" transform="translate(261 3355)" fill="none"/>
  </g>
</svg>
