<svg xmlns="http://www.w3.org/2000/svg" xmlns:xlink="http://www.w3.org/1999/xlink" width="602" height="602" viewBox="0 0 602 602">
  <defs>
    <clipPath id="clip-path">
      <rect id="Rectangle_54" data-name="Rectangle 54" width="602" height="602" fill="#00a7ff"/>
    </clipPath>
  </defs>
  <g id="shadow" clip-path="url(#clip-path)">
    <path id="Path_618" data-name="Path 618" d="M24.3.394a.1.1,0,0,0,.1-.1.1.1,0,0,0-.2,0,.1.1,0,0,0,.1.1" transform="translate(118.287 0.978)" fill="#00a7ff"/>
    <path id="Path_619" data-name="Path 619" d="M30.544.933a.392.392,0,1,0-.395-.389.393.393,0,0,0,.395.389" transform="translate(147.371 0.733)" fill="#00a7ff"/>
    <path id="Path_620" data-name="Path 620" d="M36.866,1.65a.783.783,0,1,0,0-1.566.783.783,0,1,0,0,1.566" transform="translate(176.377 0.411)" fill="#00a7ff"/>
    <path id="Path_621" data-name="Path 621" d="M43.194,2.366a1.175,1.175,0,1,0-1.178-1.178,1.177,1.177,0,0,0,1.178,1.178" transform="translate(205.378 0.083)" fill="#00a7ff"/>
    <path id="Path_622" data-name="Path 622" d="M49.272,2.55A1.275,1.275,0,1,0,48,1.278,1.274,1.274,0,0,0,49.272,2.55" transform="translate(234.628)" fill="#00a7ff"/>
    <path id="Path_623" data-name="Path 623" d="M55.194,2.366a1.175,1.175,0,1,0-1.178-1.178,1.177,1.177,0,0,0,1.178,1.178" transform="translate(264.034 0.083)" fill="#00a7ff"/>
    <path id="Path_624" data-name="Path 624" d="M60.949,1.828a.88.88,0,1,0-.883-.883.882.882,0,0,0,.883.883" transform="translate(293.607 0.328)" fill="#00a7ff"/>
    <path id="Path_625" data-name="Path 625" d="M66.544.933a.392.392,0,0,0,0-.783.392.392,0,1,0,0,.783" transform="translate(323.341 0.733)" fill="#00a7ff"/>
    <path id="Path_626" data-name="Path 626" d="M72.3.394a.1.1,0,0,0,.1-.1.1.1,0,0,0-.2,0,.1.1,0,0,0,.1.1" transform="translate(352.914 0.978)" fill="#00a7ff"/>
    <path id="Path_627" data-name="Path 627" d="M18.46,6.755a.292.292,0,0,0,.294-.294.294.294,0,0,0-.589,0,.292.292,0,0,0,.294.294" transform="translate(88.797 30.14)" fill="#00a7ff"/>
    <path id="Path_628" data-name="Path 628" d="M25.194,8.366a1.175,1.175,0,1,0-1.178-1.178,1.177,1.177,0,0,0,1.178,1.178" transform="translate(117.392 29.412)" fill="#00a7ff"/>
    <path id="Path_629" data-name="Path 629" d="M31.844,9.8a1.961,1.961,0,1,0-1.961-1.961A1.96,1.96,0,0,0,31.844,9.8" transform="translate(146.07 28.757)" fill="#00a7ff"/>
    <path id="Path_630" data-name="Path 630" d="M38.333,10.877a2.547,2.547,0,1,0-2.55-2.544,2.549,2.549,0,0,0,2.55,2.544" transform="translate(174.91 28.273)" fill="#00a7ff"/>
    <path id="Path_631" data-name="Path 631" d="M44.738,11.777A3.038,3.038,0,1,0,41.7,8.738a3.038,3.038,0,0,0,3.038,3.038" transform="translate(203.833 27.862)" fill="#00a7ff"/>
    <path id="Path_632" data-name="Path 632" d="M50.816,11.955a3.135,3.135,0,1,0-3.132-3.132,3.131,3.131,0,0,0,3.132,3.132" transform="translate(233.083 27.784)" fill="#00a7ff"/>
    <path id="Path_633" data-name="Path 633" d="M56.738,11.777A3.038,3.038,0,1,0,53.7,8.738a3.038,3.038,0,0,0,3.038,3.038" transform="translate(262.49 27.862)" fill="#00a7ff"/>
    <path id="Path_634" data-name="Path 634" d="M62.411,11.055a2.644,2.644,0,1,0-2.644-2.644,2.644,2.644,0,0,0,2.644,2.644" transform="translate(292.146 28.194)" fill="#00a7ff"/>
    <path id="Path_635" data-name="Path 635" d="M67.922,9.983a2.058,2.058,0,1,0-2.055-2.055,2.053,2.053,0,0,0,2.055,2.055" transform="translate(321.963 28.678)" fill="#00a7ff"/>
    <path id="Path_636" data-name="Path 636" d="M73.194,8.366a1.175,1.175,0,1,0-1.178-1.178,1.177,1.177,0,0,0,1.178,1.178" transform="translate(352.02 29.412)" fill="#00a7ff"/>
    <path id="Path_637" data-name="Path 637" d="M78.544,6.933a.392.392,0,0,0,0-.783.392.392,0,1,0,0,.783" transform="translate(381.998 30.062)" fill="#00a7ff"/>
    <path id="Path_638" data-name="Path 638" d="M12.544,12.933a.392.392,0,1,0-.395-.389.393.393,0,0,0,.395.389" transform="translate(59.385 59.39)" fill="#00a7ff"/>
    <path id="Path_639" data-name="Path 639" d="M19.516,15.083a1.566,1.566,0,1,0-1.566-1.566,1.566,1.566,0,0,0,1.566,1.566" transform="translate(87.741 58.417)" fill="#00a7ff"/>
    <path id="Path_640" data-name="Path 640" d="M26.494,17.238a2.744,2.744,0,1,0-2.744-2.744,2.747,2.747,0,0,0,2.744,2.744" transform="translate(116.092 57.435)" fill="#00a7ff"/>
    <path id="Path_641" data-name="Path 641" d="M33.227,18.849A3.624,3.624,0,1,0,29.6,15.222a3.629,3.629,0,0,0,3.627,3.627" transform="translate(144.687 56.707)" fill="#00a7ff"/>
    <path id="Path_642" data-name="Path 642" d="M39.877,20.282a4.407,4.407,0,1,0-4.41-4.41,4.411,4.411,0,0,0,4.41,4.41" transform="translate(173.365 56.056)" fill="#00a7ff"/>
    <path id="Path_643" data-name="Path 643" d="M46.2,21a4.8,4.8,0,1,0-4.8-4.8A4.8,4.8,0,0,0,46.2,21" transform="translate(202.371 55.729)" fill="#00a7ff"/>
    <path id="Path_644" data-name="Path 644" d="M52.366,21.36a5,5,0,1,0-5-4.993,4.992,4.992,0,0,0,5,4.993" transform="translate(231.534 55.568)" fill="#00a7ff"/>
    <path id="Path_645" data-name="Path 645" d="M58.283,21.182a4.9,4.9,0,1,0-4.9-4.9,4.9,4.9,0,0,0,4.9,4.9" transform="translate(260.945 55.646)" fill="#00a7ff"/>
    <path id="Path_646" data-name="Path 646" d="M63.877,20.282a4.407,4.407,0,1,0-4.41-4.41,4.411,4.411,0,0,0,4.41,4.41" transform="translate(290.679 56.056)" fill="#00a7ff"/>
    <path id="Path_647" data-name="Path 647" d="M69.305,19.032a3.724,3.724,0,1,0-3.721-3.721,3.722,3.722,0,0,0,3.721,3.721" transform="translate(320.58 56.624)" fill="#00a7ff"/>
    <path id="Path_648" data-name="Path 648" d="M74.494,17.238a2.744,2.744,0,1,0-2.744-2.744,2.747,2.747,0,0,0,2.744,2.744" transform="translate(350.72 57.435)" fill="#00a7ff"/>
    <path id="Path_649" data-name="Path 649" d="M79.6,15.266A1.666,1.666,0,1,0,77.933,13.6,1.669,1.669,0,0,0,79.6,15.266" transform="translate(380.943 58.329)" fill="#00a7ff"/>
    <path id="Path_650" data-name="Path 650" d="M84.622,13.111a.489.489,0,1,0-.489-.489.488.488,0,0,0,.489.489" transform="translate(411.249 59.312)" fill="#00a7ff"/>
    <path id="Path_651" data-name="Path 651" d="M6.46,18.755a.292.292,0,0,0,.294-.294.294.294,0,0,0-.589,0,.292.292,0,0,0,.294.294" transform="translate(30.14 88.797)" fill="#00a7ff"/>
    <path id="Path_652" data-name="Path 652" d="M13.516,21.083a1.566,1.566,0,1,0-1.566-1.566,1.566,1.566,0,0,0,1.566,1.566" transform="translate(58.413 87.746)" fill="#00a7ff"/>
    <path id="Path_653" data-name="Path 653" d="M20.655,23.593a2.938,2.938,0,1,0-2.938-2.938,2.931,2.931,0,0,0,2.938,2.938" transform="translate(86.602 86.602)" fill="#00a7ff"/>
    <path id="Path_654" data-name="Path 654" d="M27.711,25.927a4.213,4.213,0,1,0-4.21-4.21,4.209,4.209,0,0,0,4.21,4.21" transform="translate(114.875 85.546)" fill="#00a7ff"/>
    <path id="Path_655" data-name="Path 655" d="M34.606,27.9a5.29,5.29,0,1,0-5.288-5.287A5.287,5.287,0,0,0,34.606,27.9" transform="translate(143.309 84.652)" fill="#00a7ff"/>
    <path id="Path_656" data-name="Path 656" d="M41.26,29.332a6.074,6.074,0,1,0-6.076-6.071,6.07,6.07,0,0,0,6.076,6.071" transform="translate(171.982 84.002)" fill="#00a7ff"/>
    <path id="Path_657" data-name="Path 657" d="M47.744,30.41a6.662,6.662,0,1,0-6.659-6.659,6.66,6.66,0,0,0,6.659,6.659" transform="translate(200.827 83.513)" fill="#00a7ff"/>
    <path id="Path_658" data-name="Path 658" d="M53.911,30.765a6.857,6.857,0,1,0-6.86-6.86,6.859,6.859,0,0,0,6.86,6.86" transform="translate(229.989 83.352)" fill="#00a7ff"/>
    <path id="Path_659" data-name="Path 659" d="M59.744,30.41a6.662,6.662,0,1,0-6.659-6.659,6.66,6.66,0,0,0,6.659,6.659" transform="translate(259.484 83.513)" fill="#00a7ff"/>
    <path id="Path_660" data-name="Path 660" d="M65.339,29.51a6.171,6.171,0,1,0-6.171-6.171,6.169,6.169,0,0,0,6.171,6.171" transform="translate(289.218 83.923)" fill="#00a7ff"/>
    <path id="Path_661" data-name="Path 661" d="M70.689,28.076A5.388,5.388,0,1,0,65.3,22.689a5.39,5.39,0,0,0,5.388,5.388" transform="translate(319.196 84.569)" fill="#00a7ff"/>
    <path id="Path_662" data-name="Path 662" d="M75.794,26.1a4.31,4.31,0,1,0-4.31-4.31,4.312,4.312,0,0,0,4.31,4.31" transform="translate(349.419 85.463)" fill="#00a7ff"/>
    <path id="Path_663" data-name="Path 663" d="M80.738,23.776A3.038,3.038,0,1,0,77.7,20.738a3.038,3.038,0,0,0,3.038,3.038" transform="translate(379.804 86.519)" fill="#00a7ff"/>
    <path id="Path_664" data-name="Path 664" d="M85.678,21.444a1.763,1.763,0,1,0-1.761-1.761,1.762,1.762,0,0,0,1.761,1.761" transform="translate(410.193 87.58)" fill="#00a7ff"/>
    <path id="Path_665" data-name="Path 665" d="M90.544,18.933a.392.392,0,0,0,0-.783.392.392,0,1,0,0,.783" transform="translate(440.655 88.719)" fill="#00a7ff"/>
    <path id="Path_666" data-name="Path 666" d="M.3,24.394a.1.1,0,0,0,.1-.1A.1.1,0,0,0,.3,24.2a.1.1,0,0,0-.1.094.1.1,0,0,0,.1.1" transform="translate(0.973 118.292)" fill="#00a7ff"/>
    <path id="Path_667" data-name="Path 667" d="M7.194,26.366a1.175,1.175,0,1,0-1.178-1.178,1.177,1.177,0,0,0,1.178,1.178" transform="translate(29.407 117.397)" fill="#00a7ff"/>
    <path id="Path_668" data-name="Path 668" d="M14.494,29.238a2.744,2.744,0,1,0-2.744-2.744,2.747,2.747,0,0,0,2.744,2.744" transform="translate(57.435 116.092)" fill="#00a7ff"/>
    <path id="Path_669" data-name="Path 669" d="M21.711,31.927a4.213,4.213,0,1,0-4.21-4.21,4.209,4.209,0,0,0,4.21,4.21" transform="translate(85.546 114.875)" fill="#00a7ff"/>
    <path id="Path_670" data-name="Path 670" d="M28.85,34.438a5.585,5.585,0,1,0-5.582-5.582,5.582,5.582,0,0,0,5.582,5.582" transform="translate(113.736 113.736)" fill="#00a7ff"/>
    <path id="Path_671" data-name="Path 671" d="M35.911,36.765a6.857,6.857,0,1,0-6.86-6.86,6.859,6.859,0,0,0,6.86,6.86" transform="translate(142.004 112.68)" fill="#00a7ff"/>
    <path id="Path_672" data-name="Path 672" d="M42.722,38.559a7.837,7.837,0,1,0-7.837-7.837,7.838,7.838,0,0,0,7.837,7.837" transform="translate(170.521 111.864)" fill="#00a7ff"/>
    <path id="Path_673" data-name="Path 673" d="M49.211,39.637a8.426,8.426,0,1,0-8.426-8.426,8.428,8.428,0,0,0,8.426,8.426" transform="translate(199.36 111.375)" fill="#00a7ff"/>
    <path id="Path_674" data-name="Path 674" d="M55.455,40.175a8.72,8.72,0,1,0-8.72-8.72,8.72,8.72,0,0,0,8.72,8.72" transform="translate(228.444 111.13)" fill="#00a7ff"/>
    <path id="Path_675" data-name="Path 675" d="M61.294,39.815a8.523,8.523,0,1,0-8.526-8.52,8.521,8.521,0,0,0,8.526,8.52" transform="translate(257.934 111.297)" fill="#00a7ff"/>
    <path id="Path_676" data-name="Path 676" d="M66.722,38.559a7.837,7.837,0,1,0-7.837-7.837,7.838,7.838,0,0,0,7.837,7.837" transform="translate(287.835 111.864)" fill="#00a7ff"/>
    <path id="Path_677" data-name="Path 677" d="M71.989,36.949a6.957,6.957,0,1,0-6.954-6.954,6.956,6.956,0,0,0,6.954,6.954" transform="translate(317.896 112.597)" fill="#00a7ff"/>
    <path id="Path_678" data-name="Path 678" d="M76.933,34.615a5.682,5.682,0,1,0-5.682-5.682,5.682,5.682,0,0,0,5.682,5.682" transform="translate(348.28 113.653)" fill="#00a7ff"/>
    <path id="Path_679" data-name="Path 679" d="M81.794,32.1a4.31,4.31,0,1,0-4.31-4.31,4.312,4.312,0,0,0,4.31,4.31" transform="translate(378.748 114.792)" fill="#00a7ff"/>
    <path id="Path_680" data-name="Path 680" d="M86.572,29.416a2.841,2.841,0,1,0-2.838-2.838,2.84,2.84,0,0,0,2.838,2.838" transform="translate(409.298 116.014)" fill="#00a7ff"/>
    <path id="Path_681" data-name="Path 681" d="M91.272,26.55A1.275,1.275,0,1,0,90,25.278a1.274,1.274,0,0,0,1.272,1.272" transform="translate(439.927 117.314)" fill="#00a7ff"/>
    <path id="Path_682" data-name="Path 682" d="M96.3,24.394a.1.1,0,0,0,.1-.1.1.1,0,0,0-.2,0,.1.1,0,0,0,.1.1" transform="translate(470.228 118.292)" fill="#00a7ff"/>
    <path id="Path_683" data-name="Path 683" d="M.544,30.933a.392.392,0,1,0-.395-.389.393.393,0,0,0,.395.389" transform="translate(0.728 147.376)" fill="#00a7ff"/>
    <path id="Path_684" data-name="Path 684" d="M7.844,33.8a1.961,1.961,0,1,0-1.961-1.961A1.96,1.96,0,0,0,7.844,33.8" transform="translate(28.757 146.07)" fill="#00a7ff"/>
    <path id="Path_685" data-name="Path 685" d="M15.227,36.849A3.624,3.624,0,1,0,11.6,33.222a3.629,3.629,0,0,0,3.627,3.627" transform="translate(56.702 144.692)" fill="#00a7ff"/>
    <path id="Path_686" data-name="Path 686" d="M22.605,39.9a5.29,5.29,0,1,0-5.287-5.288A5.287,5.287,0,0,0,22.605,39.9" transform="translate(84.652 143.309)" fill="#00a7ff"/>
    <path id="Path_687" data-name="Path 687" d="M29.911,42.765a6.857,6.857,0,1,0-6.86-6.86,6.859,6.859,0,0,0,6.86,6.86" transform="translate(112.675 142.008)" fill="#00a7ff"/>
    <path id="Path_688" data-name="Path 688" d="M37.05,45.276a8.229,8.229,0,1,0-8.232-8.226,8.231,8.231,0,0,0,8.232,8.226" transform="translate(140.865 140.87)" fill="#00a7ff"/>
    <path id="Path_689" data-name="Path 689" d="M44.022,47.431a9.406,9.406,0,1,0-9.4-9.4,9.4,9.4,0,0,0,9.4,9.4" transform="translate(169.22 139.892)" fill="#00a7ff"/>
    <path id="Path_690" data-name="Path 690" d="M50.755,49.042A10.286,10.286,0,1,0,40.469,38.755,10.285,10.285,0,0,0,50.755,49.042" transform="translate(197.816 139.159)" fill="#00a7ff"/>
    <path id="Path_691" data-name="Path 691" d="M57,49.581A10.581,10.581,0,1,0,46.419,39,10.581,10.581,0,0,0,57,49.581" transform="translate(226.9 138.914)" fill="#00a7ff"/>
    <path id="Path_692" data-name="Path 692" d="M62.755,49.042A10.286,10.286,0,1,0,52.469,38.755,10.285,10.285,0,0,0,62.755,49.042" transform="translate(256.473 139.159)" fill="#00a7ff"/>
    <path id="Path_693" data-name="Path 693" d="M68.105,47.609a9.5,9.5,0,1,0-9.5-9.5,9.506,9.506,0,0,0,9.5,9.5" transform="translate(286.451 139.809)" fill="#00a7ff"/>
    <path id="Path_694" data-name="Path 694" d="M73.128,45.455A8.326,8.326,0,1,0,64.8,37.129a8.325,8.325,0,0,0,8.326,8.326" transform="translate(316.757 140.791)" fill="#00a7ff"/>
    <path id="Path_695" data-name="Path 695" d="M77.989,42.949a6.957,6.957,0,1,0-6.954-6.954,6.956,6.956,0,0,0,6.954,6.954" transform="translate(347.225 141.925)" fill="#00a7ff"/>
    <path id="Path_696" data-name="Path 696" d="M82.689,40.076A5.388,5.388,0,1,0,77.3,34.689a5.39,5.39,0,0,0,5.388,5.388" transform="translate(377.853 143.226)" fill="#00a7ff"/>
    <path id="Path_697" data-name="Path 697" d="M87.388,37.21a3.821,3.821,0,1,0-3.821-3.821,3.825,3.825,0,0,0,3.821,3.821" transform="translate(408.482 144.526)" fill="#00a7ff"/>
    <path id="Path_698" data-name="Path 698" d="M91.922,33.983a2.058,2.058,0,1,0-2.055-2.055,2.053,2.053,0,0,0,2.055,2.055" transform="translate(439.277 145.992)" fill="#00a7ff"/>
    <path id="Path_699" data-name="Path 699" d="M96.622,31.111a.489.489,0,1,0-.489-.489.488.488,0,0,0,.489.489" transform="translate(469.906 147.297)" fill="#00a7ff"/>
    <path id="Path_700" data-name="Path 700" d="M.866,37.65a.783.783,0,1,0-.783-.789.784.784,0,0,0,.783.789" transform="translate(0.406 176.381)" fill="#00a7ff"/>
    <path id="Path_701" data-name="Path 701" d="M8.333,40.877a2.547,2.547,0,1,0-2.55-2.544,2.549,2.549,0,0,0,2.55,2.544" transform="translate(28.268 174.915)" fill="#00a7ff"/>
    <path id="Path_702" data-name="Path 702" d="M15.877,44.282a4.407,4.407,0,1,0-4.41-4.41,4.408,4.408,0,0,0,4.41,4.41" transform="translate(56.052 173.37)" fill="#00a7ff"/>
    <path id="Path_703" data-name="Path 703" d="M23.256,47.332a6.074,6.074,0,1,0-6.071-6.071,6.075,6.075,0,0,0,6.071,6.071" transform="translate(84.002 171.987)" fill="#00a7ff"/>
    <path id="Path_704" data-name="Path 704" d="M30.722,50.559a7.837,7.837,0,1,0-7.837-7.837,7.838,7.838,0,0,0,7.837,7.837" transform="translate(111.864 170.521)" fill="#00a7ff"/>
    <path id="Path_705" data-name="Path 705" d="M38.022,53.431a9.406,9.406,0,1,0-9.4-9.4,9.4,9.4,0,0,0,9.4,9.4" transform="translate(139.892 169.22)" fill="#00a7ff"/>
    <path id="Path_706" data-name="Path 706" d="M45.244,56.12A10.875,10.875,0,1,0,34.369,45.244,10.876,10.876,0,0,0,45.244,56.12" transform="translate(167.998 167.998)" fill="#00a7ff"/>
    <path id="Path_707" data-name="Path 707" d="M51.567,56.837A11.267,11.267,0,1,0,40.3,45.573,11.264,11.264,0,0,0,51.567,56.837" transform="translate(197.004 167.676)" fill="#00a7ff"/>
    <path id="Path_708" data-name="Path 708" d="M57.083,55.759A10.678,10.678,0,1,0,46.4,45.084,10.674,10.674,0,0,0,57.083,55.759" transform="translate(226.817 168.165)" fill="#00a7ff"/>
    <path id="Path_709" data-name="Path 709" d="M63.567,56.837A11.267,11.267,0,1,0,52.3,45.573,11.264,11.264,0,0,0,63.567,56.837" transform="translate(255.661 167.676)" fill="#00a7ff"/>
    <path id="Path_710" data-name="Path 710" d="M69.322,56.3a10.972,10.972,0,1,0-10.969-10.97A10.969,10.969,0,0,0,69.322,56.3" transform="translate(285.234 167.92)" fill="#00a7ff"/>
    <path id="Path_711" data-name="Path 711" d="M74.105,53.609a9.5,9.5,0,1,0-9.5-9.5,9.506,9.506,0,0,0,9.5,9.5" transform="translate(315.78 169.137)" fill="#00a7ff"/>
    <path id="Path_712" data-name="Path 712" d="M78.805,50.737A7.934,7.934,0,1,0,70.868,42.8a7.937,7.937,0,0,0,7.937,7.937" transform="translate(346.408 170.442)" fill="#00a7ff"/>
    <path id="Path_713" data-name="Path 713" d="M83.422,47.693a6.271,6.271,0,1,0-6.271-6.271,6.272,6.272,0,0,0,6.271,6.271" transform="translate(377.12 171.821)" fill="#00a7ff"/>
    <path id="Path_714" data-name="Path 714" d="M87.955,44.466a4.507,4.507,0,1,0-4.5-4.5,4.5,4.5,0,0,0,4.5,4.5" transform="translate(407.915 173.287)" fill="#00a7ff"/>
    <path id="Path_715" data-name="Path 715" d="M92.494,41.238a2.744,2.744,0,1,0-2.744-2.744,2.747,2.747,0,0,0,2.744,2.744" transform="translate(438.705 174.749)" fill="#00a7ff"/>
    <path id="Path_716" data-name="Path 716" d="M97.027,38.011a.98.98,0,1,0-.977-.977.975.975,0,0,0,.977.977" transform="translate(469.5 176.215)" fill="#00a7ff"/>
    <path id="Path_717" data-name="Path 717" d="M1.194,44.366A1.175,1.175,0,1,0,.016,43.189a1.177,1.177,0,0,0,1.178,1.178" transform="translate(0.078 205.382)" fill="#00a7ff"/>
    <path id="Path_718" data-name="Path 718" d="M8.738,47.772A3.035,3.035,0,1,0,5.7,44.733a3.038,3.038,0,0,0,3.038,3.038" transform="translate(27.862 203.838)" fill="#00a7ff"/>
    <path id="Path_719" data-name="Path 719" d="M16.2,51a4.8,4.8,0,1,0-4.8-4.8A4.8,4.8,0,0,0,16.2,51" transform="translate(55.729 202.371)" fill="#00a7ff"/>
    <path id="Path_720" data-name="Path 720" d="M23.744,54.41a6.662,6.662,0,1,0-6.659-6.659,6.66,6.66,0,0,0,6.659,6.659" transform="translate(83.513 200.827)" fill="#00a7ff"/>
    <path id="Path_721" data-name="Path 721" d="M31.211,57.637a8.426,8.426,0,1,0-8.426-8.426,8.428,8.428,0,0,0,8.426,8.426" transform="translate(111.375 199.36)" fill="#00a7ff"/>
    <path id="Path_722" data-name="Path 722" d="M38.755,61.042A10.286,10.286,0,1,0,28.469,50.755,10.285,10.285,0,0,0,38.755,61.042" transform="translate(139.159 197.816)" fill="#00a7ff"/>
    <path id="Path_723" data-name="Path 723" d="M45.567,62.837A11.267,11.267,0,1,0,34.3,51.573,11.264,11.264,0,0,0,45.567,62.837" transform="translate(167.676 197.004)" fill="#00a7ff"/>
    <path id="Path_724" data-name="Path 724" d="M48.883,56.921a8.034,8.034,0,1,0-8.031-8.031,8.034,8.034,0,0,0,8.031,8.031" transform="translate(199.688 199.688)" fill="#00a7ff"/>
    <path id="Path_725" data-name="Path 725" d="M53.016,52.793a5.779,5.779,0,1,0-5.782-5.782,5.781,5.781,0,0,0,5.782,5.782" transform="translate(230.884 201.56)" fill="#00a7ff"/>
    <path id="Path_726" data-name="Path 726" d="M60.639,56.382A7.74,7.74,0,1,0,52.9,48.645a7.735,7.735,0,0,0,7.737,7.737" transform="translate(258.589 199.932)" fill="#00a7ff"/>
    <path id="Path_727" data-name="Path 727" d="M69.489,62.653a11.167,11.167,0,1,0-11.17-11.17,11.167,11.167,0,0,0,11.17,11.17" transform="translate(285.068 197.087)" fill="#00a7ff"/>
    <path id="Path_728" data-name="Path 728" d="M74.839,61.22A10.384,10.384,0,1,0,64.452,50.834,10.388,10.388,0,0,0,74.839,61.22" transform="translate(315.046 197.737)" fill="#00a7ff"/>
    <path id="Path_729" data-name="Path 729" d="M79.372,58a8.623,8.623,0,1,0-8.62-8.626A8.622,8.622,0,0,0,79.372,58" transform="translate(345.841 199.199)" fill="#00a7ff"/>
    <path id="Path_730" data-name="Path 730" d="M83.828,54.587a6.76,6.76,0,1,0-6.76-6.759,6.76,6.76,0,0,0,6.76,6.759" transform="translate(376.714 200.744)" fill="#00a7ff"/>
    <path id="Path_731" data-name="Path 731" d="M88.366,51.36a5,5,0,1,0-5-4.993,4.992,4.992,0,0,0,5,4.993" transform="translate(407.504 202.21)" fill="#00a7ff"/>
    <path id="Path_732" data-name="Path 732" d="M92.817,47.955a3.135,3.135,0,1,0-3.133-3.132,3.131,3.131,0,0,0,3.133,3.132" transform="translate(438.382 203.755)" fill="#00a7ff"/>
    <path id="Path_733" data-name="Path 733" d="M97.272,44.55A1.275,1.275,0,1,0,96,43.278a1.274,1.274,0,0,0,1.272,1.272" transform="translate(469.256 205.299)" fill="#00a7ff"/>
    <path id="Path_734" data-name="Path 734" d="M1.272,50.55A1.275,1.275,0,1,0,0,49.278,1.274,1.274,0,0,0,1.272,50.55" transform="translate(0 234.628)" fill="#00a7ff"/>
    <path id="Path_735" data-name="Path 735" d="M8.816,53.955a3.135,3.135,0,1,0-3.132-3.133,3.131,3.131,0,0,0,3.132,3.133" transform="translate(27.784 233.083)" fill="#00a7ff"/>
    <path id="Path_736" data-name="Path 736" d="M16.361,57.36a5,5,0,1,0-4.993-4.993,5,5,0,0,0,4.993,4.993" transform="translate(55.568 231.539)" fill="#00a7ff"/>
    <path id="Path_737" data-name="Path 737" d="M23.911,60.765a6.857,6.857,0,1,0-6.86-6.86,6.859,6.859,0,0,0,6.86,6.86" transform="translate(83.347 229.994)" fill="#00a7ff"/>
    <path id="Path_738" data-name="Path 738" d="M31.455,64.175a8.72,8.72,0,1,0-8.72-8.72,8.72,8.72,0,0,0,8.72,8.72" transform="translate(111.13 228.444)" fill="#00a7ff"/>
    <path id="Path_739" data-name="Path 739" d="M39,67.581A10.581,10.581,0,1,0,28.419,57,10.581,10.581,0,0,0,39,67.581" transform="translate(138.914 226.9)" fill="#00a7ff"/>
    <path id="Path_740" data-name="Path 740" d="M45.083,67.759A10.678,10.678,0,1,0,34.4,57.078,10.675,10.675,0,0,0,45.083,67.759" transform="translate(168.16 226.822)" fill="#00a7ff"/>
    <path id="Path_741" data-name="Path 741" d="M47.016,58.793a5.779,5.779,0,1,0-5.782-5.782,5.781,5.781,0,0,0,5.782,5.782" transform="translate(201.555 230.888)" fill="#00a7ff"/>
    <path id="Path_742" data-name="Path 742" d="M49.922,51.983a2.058,2.058,0,1,0-2.055-2.055,2.053,2.053,0,0,0,2.055,2.055" transform="translate(233.978 233.978)" fill="#00a7ff"/>
    <path id="Path_743" data-name="Path 743" d="M58.689,58.076A5.388,5.388,0,1,0,53.3,52.689a5.39,5.39,0,0,0,5.388,5.388" transform="translate(260.539 231.211)" fill="#00a7ff"/>
    <path id="Path_744" data-name="Path 744" d="M68.839,67.22A10.384,10.384,0,1,0,58.452,56.834,10.388,10.388,0,0,0,68.839,67.22" transform="translate(285.718 227.066)" fill="#00a7ff"/>
    <path id="Path_745" data-name="Path 745" d="M75.083,67.759A10.678,10.678,0,1,0,64.4,57.078,10.675,10.675,0,0,0,75.083,67.759" transform="translate(314.802 226.822)" fill="#00a7ff"/>
    <path id="Path_746" data-name="Path 746" d="M79.534,64.354a8.817,8.817,0,1,0-8.814-8.814,8.813,8.813,0,0,0,8.814,8.814" transform="translate(345.68 228.366)" fill="#00a7ff"/>
    <path id="Path_747" data-name="Path 747" d="M83.989,60.949a6.957,6.957,0,1,0-6.954-6.954,6.956,6.956,0,0,0,6.954,6.954" transform="translate(376.553 229.911)" fill="#00a7ff"/>
    <path id="Path_748" data-name="Path 748" d="M88.527,57.721a5.193,5.193,0,1,0-5.193-5.193,5.194,5.194,0,0,0,5.193,5.193" transform="translate(407.343 231.372)" fill="#00a7ff"/>
    <path id="Path_749" data-name="Path 749" d="M92.983,54.31a3.33,3.33,0,1,0-3.333-3.333,3.333,3.333,0,0,0,3.333,3.333" transform="translate(438.216 232.922)" fill="#00a7ff"/>
    <path id="Path_750" data-name="Path 750" d="M97.438,50.905a1.469,1.469,0,1,0-1.472-1.466,1.471,1.471,0,0,0,1.472,1.466" transform="translate(469.089 234.467)" fill="#00a7ff"/>
    <path id="Path_751" data-name="Path 751" d="M102.3,48.394a.1.1,0,0,0,.1-.1.1.1,0,0,0-.2,0,.1.1,0,0,0,.1.1" transform="translate(499.557 235.605)" fill="#00a7ff"/>
    <path id="Path_752" data-name="Path 752" d="M1.194,56.366A1.175,1.175,0,1,0,.016,55.189a1.177,1.177,0,0,0,1.178,1.178" transform="translate(0.078 264.039)" fill="#00a7ff"/>
    <path id="Path_753" data-name="Path 753" d="M8.738,59.772A3.035,3.035,0,1,0,5.7,56.733a3.038,3.038,0,0,0,3.038,3.038" transform="translate(27.862 262.495)" fill="#00a7ff"/>
    <path id="Path_754" data-name="Path 754" d="M16.283,63.182a4.9,4.9,0,1,0-4.9-4.9,4.9,4.9,0,0,0,4.9,4.9" transform="translate(55.646 260.945)" fill="#00a7ff"/>
    <path id="Path_755" data-name="Path 755" d="M23.744,66.41a6.662,6.662,0,1,0-6.659-6.659,6.66,6.66,0,0,0,6.659,6.659" transform="translate(83.513 259.484)" fill="#00a7ff"/>
    <path id="Path_756" data-name="Path 756" d="M31.289,69.815a8.523,8.523,0,1,0-8.52-8.52,8.526,8.526,0,0,0,8.52,8.52" transform="translate(111.297 257.939)" fill="#00a7ff"/>
    <path id="Path_757" data-name="Path 757" d="M38.755,73.042A10.286,10.286,0,1,0,28.469,62.755,10.285,10.285,0,0,0,38.755,73.042" transform="translate(139.159 256.473)" fill="#00a7ff"/>
    <path id="Path_758" data-name="Path 758" d="M45.567,74.837A11.267,11.267,0,1,0,34.3,63.573,11.264,11.264,0,0,0,45.567,74.837" transform="translate(167.676 255.661)" fill="#00a7ff"/>
    <path id="Path_759" data-name="Path 759" d="M48.639,68.382A7.74,7.74,0,1,0,40.9,60.645a7.735,7.735,0,0,0,7.737,7.737" transform="translate(199.932 258.589)" fill="#00a7ff"/>
    <path id="Path_760" data-name="Path 760" d="M52.689,64.076A5.388,5.388,0,1,0,47.3,58.689a5.39,5.39,0,0,0,5.388,5.388" transform="translate(231.211 260.54)" fill="#00a7ff"/>
    <path id="Path_761" data-name="Path 761" d="M60.4,67.843A7.445,7.445,0,1,0,52.951,60.4,7.443,7.443,0,0,0,60.4,67.843" transform="translate(258.829 258.834)" fill="#00a7ff"/>
    <path id="Path_762" data-name="Path 762" d="M69.406,74.475a11.07,11.07,0,1,0-11.07-11.07,11.072,11.072,0,0,0,11.07,11.07" transform="translate(285.151 255.823)" fill="#00a7ff"/>
    <path id="Path_763" data-name="Path 763" d="M74.917,73.4A10.484,10.484,0,1,0,64.436,62.923,10.481,10.481,0,0,0,74.917,73.4" transform="translate(314.968 256.311)" fill="#00a7ff"/>
    <path id="Path_764" data-name="Path 764" d="M79.372,70a8.623,8.623,0,1,0-8.62-8.626A8.622,8.622,0,0,0,79.372,70" transform="translate(345.841 257.856)" fill="#00a7ff"/>
    <path id="Path_765" data-name="Path 765" d="M83.911,66.765a6.857,6.857,0,1,0-6.86-6.86,6.859,6.859,0,0,0,6.86,6.86" transform="translate(376.631 259.322)" fill="#00a7ff"/>
    <path id="Path_766" data-name="Path 766" d="M88.366,63.36a5,5,0,1,0-5-4.993,4.992,4.992,0,0,0,5,4.993" transform="translate(407.504 260.867)" fill="#00a7ff"/>
    <path id="Path_767" data-name="Path 767" d="M92.817,59.955a3.135,3.135,0,1,0-3.133-3.132,3.131,3.131,0,0,0,3.133,3.132" transform="translate(438.382 262.412)" fill="#00a7ff"/>
    <path id="Path_768" data-name="Path 768" d="M97.355,56.727a1.372,1.372,0,1,0-1.372-1.372,1.37,1.37,0,0,0,1.372,1.372" transform="translate(469.172 263.873)" fill="#00a7ff"/>
    <path id="Path_769" data-name="Path 769" d="M.949,61.828a.88.88,0,1,0-.883-.883.882.882,0,0,0,.883.883" transform="translate(0.323 293.612)" fill="#00a7ff"/>
    <path id="Path_770" data-name="Path 770" d="M8.411,65.056a2.644,2.644,0,1,0-2.644-2.644,2.644,2.644,0,0,0,2.644,2.644" transform="translate(28.19 292.151)" fill="#00a7ff"/>
    <path id="Path_771" data-name="Path 771" d="M15.877,68.283a4.407,4.407,0,1,0-4.41-4.41,4.408,4.408,0,0,0,4.41,4.41" transform="translate(56.052 290.684)" fill="#00a7ff"/>
    <path id="Path_772" data-name="Path 772" d="M23.339,71.51a6.171,6.171,0,1,0-6.171-6.171,6.169,6.169,0,0,0,6.171,6.171" transform="translate(83.919 289.223)" fill="#00a7ff"/>
    <path id="Path_773" data-name="Path 773" d="M30.722,74.559a7.837,7.837,0,1,0-7.837-7.837,7.838,7.838,0,0,0,7.837,7.837" transform="translate(111.864 287.835)" fill="#00a7ff"/>
    <path id="Path_774" data-name="Path 774" d="M38.105,77.609a9.5,9.5,0,1,0-9.5-9.5,9.506,9.506,0,0,0,9.5,9.5" transform="translate(139.809 286.451)" fill="#00a7ff"/>
    <path id="Path_775" data-name="Path 775" d="M45.322,80.3a10.972,10.972,0,1,0-10.969-10.97A10.969,10.969,0,0,0,45.322,80.3" transform="translate(167.92 285.234)" fill="#00a7ff"/>
    <path id="Path_776" data-name="Path 776" d="M51.489,80.654a11.167,11.167,0,1,0-11.17-11.17,11.167,11.167,0,0,0,11.17,11.17" transform="translate(197.082 285.073)" fill="#00a7ff"/>
    <path id="Path_777" data-name="Path 777" d="M56.839,79.22A10.384,10.384,0,1,0,46.452,68.834,10.388,10.388,0,0,0,56.839,79.22" transform="translate(227.061 285.723)" fill="#00a7ff"/>
    <path id="Path_778" data-name="Path 778" d="M63.406,80.475a11.07,11.07,0,1,0-11.07-11.07,11.072,11.072,0,0,0,11.07,11.07" transform="translate(255.822 285.151)" fill="#00a7ff"/>
    <path id="Path_779" data-name="Path 779" d="M69.406,80.475a11.07,11.07,0,1,0-11.07-11.07,11.072,11.072,0,0,0,11.07,11.07" transform="translate(285.151 285.151)" fill="#00a7ff"/>
    <path id="Path_780" data-name="Path 780" d="M74.189,77.787a9.6,9.6,0,1,0-9.6-9.6,9.6,9.6,0,0,0,9.6,9.6" transform="translate(315.697 286.373)" fill="#00a7ff"/>
    <path id="Path_781" data-name="Path 781" d="M78.883,74.921a8.034,8.034,0,1,0-8.031-8.031,8.034,8.034,0,0,0,8.031,8.031" transform="translate(346.33 287.673)" fill="#00a7ff"/>
    <path id="Path_782" data-name="Path 782" d="M83.422,71.693a6.271,6.271,0,1,0-6.271-6.271,6.272,6.272,0,0,0,6.271,6.271" transform="translate(377.12 289.135)" fill="#00a7ff"/>
    <path id="Path_783" data-name="Path 783" d="M88.039,68.643a4.6,4.6,0,1,0-4.6-4.6,4.6,4.6,0,0,0,4.6,4.6" transform="translate(407.832 290.518)" fill="#00a7ff"/>
    <path id="Path_784" data-name="Path 784" d="M92.494,65.238a2.744,2.744,0,1,0-2.744-2.744,2.747,2.747,0,0,0,2.744,2.744" transform="translate(438.705 292.063)" fill="#00a7ff"/>
    <path id="Path_785" data-name="Path 785" d="M97.027,62.011a.98.98,0,1,0-.977-.977.975.975,0,0,0,.977.977" transform="translate(469.5 293.529)" fill="#00a7ff"/>
    <path id="Path_786" data-name="Path 786" d="M.544,66.933a.392.392,0,1,0-.395-.389.393.393,0,0,0,.395.389" transform="translate(0.728 323.346)" fill="#00a7ff"/>
    <path id="Path_787" data-name="Path 787" d="M7.922,69.983a2.058,2.058,0,1,0-2.055-2.055,2.053,2.053,0,0,0,2.055,2.055" transform="translate(28.678 321.963)" fill="#00a7ff"/>
    <path id="Path_788" data-name="Path 788" d="M15.305,73.028a3.721,3.721,0,1,0-3.721-3.721,3.722,3.722,0,0,0,3.721,3.721" transform="translate(56.624 320.585)" fill="#00a7ff"/>
    <path id="Path_789" data-name="Path 789" d="M22.689,76.076A5.388,5.388,0,1,0,17.3,70.689a5.39,5.39,0,0,0,5.388,5.388" transform="translate(84.569 319.196)" fill="#00a7ff"/>
    <path id="Path_790" data-name="Path 790" d="M29.989,78.949a6.957,6.957,0,1,0-6.954-6.954,6.956,6.956,0,0,0,6.954,6.954" transform="translate(112.597 317.896)" fill="#00a7ff"/>
    <path id="Path_791" data-name="Path 791" d="M37.128,81.454A8.326,8.326,0,1,0,28.8,73.129a8.325,8.325,0,0,0,8.326,8.326" transform="translate(140.786 316.762)" fill="#00a7ff"/>
    <path id="Path_792" data-name="Path 792" d="M44.105,83.609a9.5,9.5,0,1,0-9.5-9.5,9.506,9.506,0,0,0,9.5,9.5" transform="translate(169.137 315.78)" fill="#00a7ff"/>
    <path id="Path_793" data-name="Path 793" d="M50.839,85.22A10.384,10.384,0,1,0,40.452,74.834,10.388,10.388,0,0,0,50.839,85.22" transform="translate(197.733 315.051)" fill="#00a7ff"/>
    <path id="Path_794" data-name="Path 794" d="M57.083,85.759A10.678,10.678,0,1,0,46.4,75.078,10.675,10.675,0,0,0,57.083,85.759" transform="translate(226.817 314.807)" fill="#00a7ff"/>
    <path id="Path_795" data-name="Path 795" d="M62.917,85.4A10.484,10.484,0,1,0,52.436,74.923,10.481,10.481,0,0,0,62.917,85.4" transform="translate(256.311 314.968)" fill="#00a7ff"/>
    <path id="Path_796" data-name="Path 796" d="M68.189,83.787a9.6,9.6,0,1,0-9.6-9.6,9.6,9.6,0,0,0,9.6,9.6" transform="translate(286.368 315.702)" fill="#00a7ff"/>
    <path id="Path_797" data-name="Path 797" d="M73.211,81.637a8.426,8.426,0,1,0-8.426-8.426,8.428,8.428,0,0,0,8.426,8.426" transform="translate(316.674 316.674)" fill="#00a7ff"/>
    <path id="Path_798" data-name="Path 798" d="M78.072,79.126a7.054,7.054,0,1,0-7.054-7.054,7.051,7.051,0,0,0,7.054,7.054" transform="translate(347.142 317.813)" fill="#00a7ff"/>
    <path id="Path_799" data-name="Path 799" d="M82.772,76.254a5.485,5.485,0,1,0-5.488-5.488,5.486,5.486,0,0,0,5.488,5.488" transform="translate(377.77 319.118)" fill="#00a7ff"/>
    <path id="Path_800" data-name="Path 800" d="M87.388,73.21a3.821,3.821,0,1,0-3.821-3.821,3.821,3.821,0,0,0,3.821,3.821" transform="translate(408.482 320.497)" fill="#00a7ff"/>
    <path id="Path_801" data-name="Path 801" d="M92.005,70.16a2.155,2.155,0,1,0-2.155-2.155,2.156,2.156,0,0,0,2.155,2.155" transform="translate(439.194 321.88)" fill="#00a7ff"/>
    <path id="Path_802" data-name="Path 802" d="M96.622,67.111a.489.489,0,1,0-.489-.489.488.488,0,0,0,.489.489" transform="translate(469.906 323.268)" fill="#00a7ff"/>
    <path id="Path_803" data-name="Path 803" d="M.3,72.394a.1.1,0,0,0,.1-.1A.1.1,0,0,0,.3,72.2a.1.1,0,0,0-.1.094.1.1,0,0,0,.1.1" transform="translate(0.973 352.919)" fill="#00a7ff"/>
    <path id="Path_804" data-name="Path 804" d="M7.194,74.366a1.175,1.175,0,1,0-1.178-1.178,1.177,1.177,0,0,0,1.178,1.178" transform="translate(29.407 352.025)" fill="#00a7ff"/>
    <path id="Path_805" data-name="Path 805" d="M14.494,77.238a2.744,2.744,0,1,0-2.744-2.744,2.747,2.747,0,0,0,2.744,2.744" transform="translate(57.435 350.72)" fill="#00a7ff"/>
    <path id="Path_806" data-name="Path 806" d="M21.794,80.1a4.31,4.31,0,1,0-4.31-4.31,4.312,4.312,0,0,0,4.31,4.31" transform="translate(85.463 349.419)" fill="#00a7ff"/>
    <path id="Path_807" data-name="Path 807" d="M28.933,82.615a5.682,5.682,0,1,0-5.682-5.682,5.682,5.682,0,0,0,5.682,5.682" transform="translate(113.653 348.281)" fill="#00a7ff"/>
    <path id="Path_808" data-name="Path 808" d="M35.989,84.949a6.957,6.957,0,1,0-6.954-6.954,6.956,6.956,0,0,0,6.954,6.954" transform="translate(141.925 347.225)" fill="#00a7ff"/>
    <path id="Path_809" data-name="Path 809" d="M42.805,86.737A7.934,7.934,0,1,0,34.868,78.8a7.937,7.937,0,0,0,7.937,7.937" transform="translate(170.438 346.413)" fill="#00a7ff"/>
    <path id="Path_810" data-name="Path 810" d="M49.372,87.993a8.62,8.62,0,1,0-8.62-8.62,8.62,8.62,0,0,0,8.62,8.62" transform="translate(199.199 345.846)" fill="#00a7ff"/>
    <path id="Path_811" data-name="Path 811" d="M55.533,88.354a8.817,8.817,0,1,0-8.814-8.814,8.813,8.813,0,0,0,8.814,8.814" transform="translate(228.366 345.68)" fill="#00a7ff"/>
    <path id="Path_812" data-name="Path 812" d="M61.372,87.993a8.62,8.62,0,1,0-8.62-8.62,8.62,8.62,0,0,0,8.62,8.62" transform="translate(257.856 345.846)" fill="#00a7ff"/>
    <path id="Path_813" data-name="Path 813" d="M66.883,86.921a8.034,8.034,0,1,0-8.031-8.031,8.034,8.034,0,0,0,8.031,8.031" transform="translate(287.673 346.33)" fill="#00a7ff"/>
    <path id="Path_814" data-name="Path 814" d="M72.072,85.126a7.054,7.054,0,1,0-7.054-7.054,7.051,7.051,0,0,0,7.054,7.054" transform="translate(317.813 347.142)" fill="#00a7ff"/>
    <path id="Path_815" data-name="Path 815" d="M77.016,82.793a5.779,5.779,0,1,0-5.782-5.782,5.781,5.781,0,0,0,5.782,5.782" transform="translate(348.197 348.202)" fill="#00a7ff"/>
    <path id="Path_816" data-name="Path 816" d="M81.877,80.282a4.407,4.407,0,1,0-4.41-4.41,4.411,4.411,0,0,0,4.41,4.41" transform="translate(378.665 349.341)" fill="#00a7ff"/>
    <path id="Path_817" data-name="Path 817" d="M86.655,77.594a2.938,2.938,0,1,0-2.938-2.938,2.935,2.935,0,0,0,2.938,2.938" transform="translate(409.215 350.563)" fill="#00a7ff"/>
    <path id="Path_818" data-name="Path 818" d="M91.355,74.727a1.372,1.372,0,1,0-1.372-1.372,1.37,1.37,0,0,0,1.372,1.372" transform="translate(439.844 351.859)" fill="#00a7ff"/>
    <path id="Path_819" data-name="Path 819" d="M96.3,72.394a.1.1,0,0,0,.1-.1.1.1,0,0,0-.2,0,.1.1,0,0,0,.1.1" transform="translate(470.228 352.919)" fill="#00a7ff"/>
    <path id="Path_820" data-name="Path 820" d="M6.544,78.933a.392.392,0,1,0-.395-.389.393.393,0,0,0,.395.389" transform="translate(30.057 382.003)" fill="#00a7ff"/>
    <path id="Path_821" data-name="Path 821" d="M13.6,81.266A1.666,1.666,0,1,0,11.933,79.6,1.669,1.669,0,0,0,13.6,81.266" transform="translate(58.329 380.943)" fill="#00a7ff"/>
    <path id="Path_822" data-name="Path 822" d="M20.738,83.772A3.035,3.035,0,1,0,17.7,80.733a3.038,3.038,0,0,0,3.038,3.038" transform="translate(86.519 379.809)" fill="#00a7ff"/>
    <path id="Path_823" data-name="Path 823" d="M27.794,86.1a4.31,4.31,0,1,0-4.31-4.31,4.312,4.312,0,0,0,4.31,4.31" transform="translate(114.792 378.748)" fill="#00a7ff"/>
    <path id="Path_824" data-name="Path 824" d="M34.689,88.076A5.388,5.388,0,1,0,29.3,82.689a5.39,5.39,0,0,0,5.388,5.388" transform="translate(143.226 377.853)" fill="#00a7ff"/>
    <path id="Path_825" data-name="Path 825" d="M41.422,89.693a6.271,6.271,0,1,0-6.271-6.271,6.272,6.272,0,0,0,6.271,6.271" transform="translate(171.821 377.12)" fill="#00a7ff"/>
    <path id="Path_826" data-name="Path 826" d="M47.827,90.587a6.759,6.759,0,1,0-6.759-6.76,6.76,6.76,0,0,0,6.759,6.76" transform="translate(200.744 376.715)" fill="#00a7ff"/>
    <path id="Path_827" data-name="Path 827" d="M53.989,90.949a6.957,6.957,0,1,0-6.954-6.954,6.956,6.956,0,0,0,6.954,6.954" transform="translate(229.911 376.553)" fill="#00a7ff"/>
    <path id="Path_828" data-name="Path 828" d="M59.911,90.765a6.857,6.857,0,1,0-6.86-6.86,6.859,6.859,0,0,0,6.86,6.86" transform="translate(259.317 376.636)" fill="#00a7ff"/>
    <path id="Path_829" data-name="Path 829" d="M65.422,89.693a6.271,6.271,0,1,0-6.271-6.271,6.272,6.272,0,0,0,6.271,6.271" transform="translate(289.135 377.12)" fill="#00a7ff"/>
    <path id="Path_830" data-name="Path 830" d="M70.772,88.254a5.485,5.485,0,1,0-5.488-5.488,5.486,5.486,0,0,0,5.488,5.488" transform="translate(319.113 377.775)" fill="#00a7ff"/>
    <path id="Path_831" data-name="Path 831" d="M75.877,86.282a4.407,4.407,0,1,0-4.41-4.41,4.411,4.411,0,0,0,4.41,4.41" transform="translate(349.336 378.67)" fill="#00a7ff"/>
    <path id="Path_832" data-name="Path 832" d="M80.9,84.132A3.233,3.233,0,1,0,77.667,80.9,3.234,3.234,0,0,0,80.9,84.132" transform="translate(379.642 379.642)" fill="#00a7ff"/>
    <path id="Path_833" data-name="Path 833" d="M85.761,81.622A1.861,1.861,0,1,0,83.9,79.762a1.857,1.857,0,0,0,1.861,1.861" transform="translate(410.11 380.786)" fill="#00a7ff"/>
    <path id="Path_834" data-name="Path 834" d="M90.544,78.933a.392.392,0,0,0,0-.783.392.392,0,1,0,0,.783" transform="translate(440.655 382.003)" fill="#00a7ff"/>
    <path id="Path_835" data-name="Path 835" d="M12.622,85.111a.489.489,0,1,0-.489-.489.488.488,0,0,0,.489.489" transform="translate(59.307 411.254)" fill="#00a7ff"/>
    <path id="Path_836" data-name="Path 836" d="M19.678,87.444a1.763,1.763,0,1,0-1.761-1.76,1.767,1.767,0,0,0,1.761,1.76" transform="translate(87.58 410.193)" fill="#00a7ff"/>
    <path id="Path_837" data-name="Path 837" d="M26.572,89.416a2.841,2.841,0,1,0-2.838-2.838,2.841,2.841,0,0,0,2.838,2.838" transform="translate(116.014 409.298)" fill="#00a7ff"/>
    <path id="Path_838" data-name="Path 838" d="M33.388,91.21a3.821,3.821,0,1,0-3.821-3.821,3.821,3.821,0,0,0,3.821,3.821" transform="translate(144.526 408.482)" fill="#00a7ff"/>
    <path id="Path_839" data-name="Path 839" d="M39.955,92.466a4.507,4.507,0,1,0-4.5-4.5,4.5,4.5,0,0,0,4.5,4.5" transform="translate(173.287 407.915)" fill="#00a7ff"/>
    <path id="Path_840" data-name="Path 840" d="M46.366,93.36a5,5,0,1,0-5-4.993,4.992,4.992,0,0,0,5,4.993" transform="translate(202.205 407.509)" fill="#00a7ff"/>
    <path id="Path_841" data-name="Path 841" d="M52.527,93.721a5.193,5.193,0,1,0-5.193-5.193,5.194,5.194,0,0,0,5.193,5.193" transform="translate(231.372 407.343)" fill="#00a7ff"/>
    <path id="Path_842" data-name="Path 842" d="M58.366,93.36a5,5,0,1,0-5-4.993,4.992,4.992,0,0,0,5,4.993" transform="translate(260.862 407.509)" fill="#00a7ff"/>
    <path id="Path_843" data-name="Path 843" d="M64.039,92.643a4.6,4.6,0,1,0-4.6-4.6,4.6,4.6,0,0,0,4.6,4.6" transform="translate(290.518 407.832)" fill="#00a7ff"/>
    <path id="Path_844" data-name="Path 844" d="M69.388,91.21a3.821,3.821,0,1,0-3.821-3.821,3.821,3.821,0,0,0,3.821,3.821" transform="translate(320.497 408.482)" fill="#00a7ff"/>
    <path id="Path_845" data-name="Path 845" d="M74.655,89.594a2.938,2.938,0,1,0-2.938-2.938,2.935,2.935,0,0,0,2.938,2.938" transform="translate(350.558 409.22)" fill="#00a7ff"/>
    <path id="Path_846" data-name="Path 846" d="M79.761,87.622A1.861,1.861,0,1,0,77.9,85.762a1.857,1.857,0,0,0,1.861,1.861" transform="translate(380.781 410.115)" fill="#00a7ff"/>
    <path id="Path_847" data-name="Path 847" d="M84.7,85.294a.589.589,0,1,0-.589-.589.591.591,0,0,0,.589.589" transform="translate(411.166 411.166)" fill="#00a7ff"/>
    <path id="Path_848" data-name="Path 848" d="M18.543,90.933a.392.392,0,1,0-.394-.389.393.393,0,0,0,.394.389" transform="translate(88.714 440.66)" fill="#00a7ff"/>
    <path id="Path_849" data-name="Path 849" d="M25.272,92.55A1.275,1.275,0,1,0,24,91.278a1.274,1.274,0,0,0,1.272,1.272" transform="translate(117.314 439.927)" fill="#00a7ff"/>
    <path id="Path_850" data-name="Path 850" d="M31.922,93.983a2.058,2.058,0,1,0-2.055-2.055,2.053,2.053,0,0,0,2.055,2.055" transform="translate(145.992 439.277)" fill="#00a7ff"/>
    <path id="Path_851" data-name="Path 851" d="M38.494,95.238a2.744,2.744,0,1,0-2.744-2.744,2.747,2.747,0,0,0,2.744,2.744" transform="translate(174.749 438.705)" fill="#00a7ff"/>
    <path id="Path_852" data-name="Path 852" d="M44.816,95.955a3.135,3.135,0,1,0-3.132-3.132,3.131,3.131,0,0,0,3.132,3.132" transform="translate(203.755 438.383)" fill="#00a7ff"/>
    <path id="Path_853" data-name="Path 853" d="M50.983,96.31a3.33,3.33,0,1,0-3.333-3.333,3.333,3.333,0,0,0,3.333,3.333" transform="translate(232.917 438.221)" fill="#00a7ff"/>
    <path id="Path_854" data-name="Path 854" d="M56.816,95.955a3.135,3.135,0,1,0-3.133-3.132,3.131,3.131,0,0,0,3.133,3.132" transform="translate(262.412 438.383)" fill="#00a7ff"/>
    <path id="Path_855" data-name="Path 855" d="M62.494,95.238a2.744,2.744,0,1,0-2.744-2.744,2.747,2.747,0,0,0,2.744,2.744" transform="translate(292.063 438.705)" fill="#00a7ff"/>
    <path id="Path_856" data-name="Path 856" d="M68.005,94.16a2.155,2.155,0,1,0-2.155-2.155,2.156,2.156,0,0,0,2.155,2.155" transform="translate(321.88 439.194)" fill="#00a7ff"/>
    <path id="Path_857" data-name="Path 857" d="M73.355,92.727a1.372,1.372,0,1,0-1.372-1.372,1.369,1.369,0,0,0,1.372,1.372" transform="translate(351.859 439.844)" fill="#00a7ff"/>
    <path id="Path_858" data-name="Path 858" d="M78.544,90.933a.392.392,0,0,0,0-.783.392.392,0,1,0,0,.783" transform="translate(381.998 440.66)" fill="#00a7ff"/>
    <path id="Path_859" data-name="Path 859" d="M24.3,96.394a.1.1,0,0,0,.1-.1.1.1,0,0,0-.2,0,.1.1,0,0,0,.1.1" transform="translate(118.287 470.233)" fill="#00a7ff"/>
    <path id="Path_860" data-name="Path 860" d="M30.622,97.111a.489.489,0,1,0-.489-.489.488.488,0,0,0,.489.489" transform="translate(147.292 469.911)" fill="#00a7ff"/>
    <path id="Path_861" data-name="Path 861" d="M37.027,98.011a.98.98,0,1,0-.977-.977.975.975,0,0,0,.977.977" transform="translate(176.215 469.5)" fill="#00a7ff"/>
    <path id="Path_862" data-name="Path 862" d="M43.272,98.55A1.275,1.275,0,1,0,42,97.278a1.274,1.274,0,0,0,1.272,1.272" transform="translate(205.299 469.256)" fill="#00a7ff"/>
    <path id="Path_863" data-name="Path 863" d="M49.438,98.905a1.469,1.469,0,1,0-1.472-1.466,1.471,1.471,0,0,0,1.472,1.466" transform="translate(234.462 469.094)" fill="#00a7ff"/>
    <path id="Path_864" data-name="Path 864" d="M55.355,98.727a1.372,1.372,0,1,0-1.372-1.372,1.37,1.37,0,0,0,1.372,1.372" transform="translate(263.873 469.173)" fill="#00a7ff"/>
    <path id="Path_865" data-name="Path 865" d="M61.027,98.011a.98.98,0,1,0-.977-.977.975.975,0,0,0,.977.977" transform="translate(293.529 469.5)" fill="#00a7ff"/>
    <path id="Path_866" data-name="Path 866" d="M66.622,97.111a.489.489,0,1,0-.489-.489.488.488,0,0,0,.489.489" transform="translate(323.263 469.911)" fill="#00a7ff"/>
    <path id="Path_867" data-name="Path 867" d="M72.3,96.394a.1.1,0,0,0,.1-.1.1.1,0,0,0-.2,0,.1.1,0,0,0,.1.1" transform="translate(352.914 470.233)" fill="#00a7ff"/>
    <path id="Path_868" data-name="Path 868" d="M48.3,102.394a.1.1,0,0,0,.1-.1.1.1,0,0,0-.2,0,.1.1,0,0,0,.1.1" transform="translate(235.6 499.562)" fill="#00a7ff"/>
  </g>
</svg>
