<svg xmlns="http://www.w3.org/2000/svg" xmlns:xlink="http://www.w3.org/1999/xlink" width="432.968" height="432.969" viewBox="0 0 432.968 432.969">
  <defs>
    <clipPath id="clip-path"/>
  </defs>
  <g id="shadow2" opacity="0.5" clip-path="url(#clip-path)">
    <path id="Path_869" data-name="Path 869" d="M24.271.34a.071.071,0,0,0,.072-.072.072.072,0,0,0-.144,0,.071.071,0,0,0,.072.072" transform="translate(78.286 0.647)" fill="#00a7ff"/>
    <path id="Path_870" data-name="Path 870" d="M30.433.713a.282.282,0,1,0-.284-.28.283.283,0,0,0,.284.28" transform="translate(97.535 0.485)" fill="#00a7ff"/>
    <path id="Path_871" data-name="Path 871" d="M36.646,1.211a.563.563,0,1,0,0-1.127.563.563,0,1,0,0,1.127" transform="translate(116.733 0.272)" fill="#00a7ff"/>
    <path id="Path_872" data-name="Path 872" d="M42.863,1.707A.845.845,0,1,0,42.016.86a.847.847,0,0,0,.847.847" transform="translate(135.926 0.055)" fill="#00a7ff"/>
    <path id="Path_873" data-name="Path 873" d="M48.915,1.834A.917.917,0,1,0,48,.919a.916.916,0,0,0,.915.915" transform="translate(155.285)" fill="#00a7ff"/>
    <path id="Path_874" data-name="Path 874" d="M54.863,1.707A.845.845,0,1,0,54.016.86a.847.847,0,0,0,.847.847" transform="translate(174.748 0.055)" fill="#00a7ff"/>
    <path id="Path_875" data-name="Path 875" d="M60.7,1.333A.633.633,0,1,0,60.066.7a.634.634,0,0,0,.635.635" transform="translate(194.32 0.217)" fill="#00a7ff"/>
    <path id="Path_876" data-name="Path 876" d="M66.433.713a.282.282,0,0,0,0-.563.282.282,0,1,0,0,.563" transform="translate(213.999 0.485)" fill="#00a7ff"/>
    <path id="Path_877" data-name="Path 877" d="M72.271.34a.071.071,0,0,0,.072-.072.072.072,0,0,0-.144,0,.071.071,0,0,0,.072.072" transform="translate(233.572 0.647)" fill="#00a7ff"/>
    <path id="Path_878" data-name="Path 878" d="M18.378,6.59a.21.21,0,0,0,.212-.212.212.212,0,0,0-.424,0,.21.21,0,0,0,.212.212" transform="translate(58.769 19.948)" fill="#00a7ff"/>
    <path id="Path_879" data-name="Path 879" d="M24.863,7.707a.845.845,0,1,0-.847-.847.847.847,0,0,0,.847.847" transform="translate(77.694 19.466)" fill="#00a7ff"/>
    <path id="Path_880" data-name="Path 880" d="M31.293,8.7a1.41,1.41,0,1,0-1.41-1.41,1.41,1.41,0,0,0,1.41,1.41" transform="translate(96.675 19.032)" fill="#00a7ff"/>
    <path id="Path_881" data-name="Path 881" d="M37.617,9.447a1.832,1.832,0,1,0-1.834-1.83,1.834,1.834,0,0,0,1.834,1.83" transform="translate(115.762 18.712)" fill="#00a7ff"/>
    <path id="Path_882" data-name="Path 882" d="M43.885,10.071A2.185,2.185,0,1,0,41.7,7.885a2.185,2.185,0,0,0,2.185,2.185" transform="translate(134.904 18.44)" fill="#00a7ff"/>
    <path id="Path_883" data-name="Path 883" d="M49.937,10.194a2.255,2.255,0,1,0-2.253-2.253,2.252,2.252,0,0,0,2.253,2.253" transform="translate(154.263 18.388)" fill="#00a7ff"/>
    <path id="Path_884" data-name="Path 884" d="M55.885,10.071A2.185,2.185,0,1,0,53.7,7.885a2.185,2.185,0,0,0,2.185,2.185" transform="translate(173.726 18.44)" fill="#00a7ff"/>
    <path id="Path_885" data-name="Path 885" d="M61.669,9.571a1.9,1.9,0,1,0-1.9-1.9,1.9,1.9,0,0,0,1.9,1.9" transform="translate(193.353 18.66)" fill="#00a7ff"/>
    <path id="Path_886" data-name="Path 886" d="M67.345,8.827a1.48,1.48,0,1,0-1.478-1.478,1.477,1.477,0,0,0,1.478,1.478" transform="translate(213.087 18.98)" fill="#00a7ff"/>
    <path id="Path_887" data-name="Path 887" d="M72.863,7.707a.845.845,0,1,0-.847-.847.847.847,0,0,0,.847.847" transform="translate(232.98 19.466)" fill="#00a7ff"/>
    <path id="Path_888" data-name="Path 888" d="M78.433,6.713a.282.282,0,0,0,0-.563.282.282,0,1,0,0,.563" transform="translate(252.821 19.896)" fill="#00a7ff"/>
    <path id="Path_889" data-name="Path 889" d="M12.433,12.713a.282.282,0,1,0-.284-.28.283.283,0,0,0,.284.28" transform="translate(39.303 39.307)" fill="#00a7ff"/>
    <path id="Path_890" data-name="Path 890" d="M19.077,14.2a1.127,1.127,0,1,0-1.127-1.127A1.126,1.126,0,0,0,19.077,14.2" transform="translate(58.07 38.663)" fill="#00a7ff"/>
    <path id="Path_891" data-name="Path 891" d="M25.724,15.7a1.974,1.974,0,1,0-1.974-1.974A1.976,1.976,0,0,0,25.724,15.7" transform="translate(76.834 38.013)" fill="#00a7ff"/>
    <path id="Path_892" data-name="Path 892" d="M32.209,16.814A2.607,2.607,0,1,0,29.6,14.206a2.61,2.61,0,0,0,2.609,2.609" transform="translate(95.759 37.531)" fill="#00a7ff"/>
    <path id="Path_893" data-name="Path 893" d="M38.639,17.808a3.17,3.17,0,1,0-3.172-3.172,3.173,3.173,0,0,0,3.172,3.172" transform="translate(114.74 37.1)" fill="#00a7ff"/>
    <path id="Path_894" data-name="Path 894" d="M44.853,18.308A3.454,3.454,0,1,0,41.4,14.857a3.452,3.452,0,0,0,3.452,3.452" transform="translate(133.937 36.884)" fill="#00a7ff"/>
    <path id="Path_895" data-name="Path 895" d="M50.963,18.555a3.593,3.593,0,1,0-3.6-3.591,3.59,3.59,0,0,0,3.6,3.591" transform="translate(153.238 36.777)" fill="#00a7ff"/>
    <path id="Path_896" data-name="Path 896" d="M56.908,18.431a3.524,3.524,0,1,0-3.524-3.524,3.524,3.524,0,0,0,3.524,3.524" transform="translate(172.703 36.829)" fill="#00a7ff"/>
    <path id="Path_897" data-name="Path 897" d="M62.639,17.808a3.17,3.17,0,1,0-3.172-3.172,3.173,3.173,0,0,0,3.172,3.172" transform="translate(192.382 37.1)" fill="#00a7ff"/>
    <path id="Path_898" data-name="Path 898" d="M68.261,16.941a2.679,2.679,0,1,0-2.677-2.677,2.677,2.677,0,0,0,2.677,2.677" transform="translate(212.172 37.476)" fill="#00a7ff"/>
    <path id="Path_899" data-name="Path 899" d="M73.724,15.7a1.974,1.974,0,1,0-1.974-1.974A1.976,1.976,0,0,0,73.724,15.7" transform="translate(232.119 38.013)" fill="#00a7ff"/>
    <path id="Path_900" data-name="Path 900" d="M79.132,14.33a1.2,1.2,0,1,0-1.2-1.2,1.2,1.2,0,0,0,1.2,1.2" transform="translate(252.122 38.605)" fill="#00a7ff"/>
    <path id="Path_901" data-name="Path 901" d="M84.485,12.837a.352.352,0,1,0-.352-.352.351.351,0,0,0,.352.352" transform="translate(272.18 39.255)" fill="#00a7ff"/>
    <path id="Path_902" data-name="Path 902" d="M6.378,18.59a.21.21,0,0,0,.212-.212.212.212,0,0,0-.424,0,.21.21,0,0,0,.212.212" transform="translate(19.948 58.769)" fill="#00a7ff"/>
    <path id="Path_903" data-name="Path 903" d="M13.077,20.2a1.127,1.127,0,1,0-1.127-1.127A1.126,1.126,0,0,0,13.077,20.2" transform="translate(38.66 58.074)" fill="#00a7ff"/>
    <path id="Path_904" data-name="Path 904" d="M19.83,21.944a2.113,2.113,0,1,0-2.113-2.113,2.108,2.108,0,0,0,2.113,2.113" transform="translate(57.316 57.317)" fill="#00a7ff"/>
    <path id="Path_905" data-name="Path 905" d="M26.529,23.561A3.03,3.03,0,1,0,23.5,20.533a3.027,3.027,0,0,0,3.028,3.028" transform="translate(76.028 56.618)" fill="#00a7ff"/>
    <path id="Path_906" data-name="Path 906" d="M33.121,24.929a3.805,3.805,0,1,0-3.8-3.8,3.8,3.8,0,0,0,3.8,3.8" transform="translate(94.847 56.026)" fill="#00a7ff"/>
    <path id="Path_907" data-name="Path 907" d="M39.555,25.922a4.369,4.369,0,1,0-4.371-4.366,4.366,4.366,0,0,0,4.371,4.366" transform="translate(113.824 55.595)" fill="#00a7ff"/>
    <path id="Path_908" data-name="Path 908" d="M45.875,26.669a4.792,4.792,0,1,0-4.79-4.79,4.791,4.791,0,0,0,4.79,4.79" transform="translate(132.915 55.272)" fill="#00a7ff"/>
    <path id="Path_909" data-name="Path 909" d="M51.985,26.916a4.932,4.932,0,1,0-4.934-4.934,4.933,4.933,0,0,0,4.934,4.934" transform="translate(152.215 55.165)" fill="#00a7ff"/>
    <path id="Path_910" data-name="Path 910" d="M57.875,26.669a4.792,4.792,0,1,0-4.79-4.79,4.791,4.791,0,0,0,4.79,4.79" transform="translate(171.736 55.272)" fill="#00a7ff"/>
    <path id="Path_911" data-name="Path 911" d="M63.606,26.046a4.438,4.438,0,1,0-4.438-4.438,4.437,4.437,0,0,0,4.438,4.438" transform="translate(191.415 55.544)" fill="#00a7ff"/>
    <path id="Path_912" data-name="Path 912" d="M69.176,25.051A3.875,3.875,0,1,0,65.3,21.176a3.877,3.877,0,0,0,3.875,3.875" transform="translate(211.256 55.971)" fill="#00a7ff"/>
    <path id="Path_913" data-name="Path 913" d="M74.584,23.684a3.1,3.1,0,1,0-3.1-3.1,3.1,3.1,0,0,0,3.1,3.1" transform="translate(231.259 56.563)" fill="#00a7ff"/>
    <path id="Path_914" data-name="Path 914" d="M79.885,22.071A2.185,2.185,0,1,0,77.7,19.885a2.185,2.185,0,0,0,2.185,2.185" transform="translate(251.368 57.262)" fill="#00a7ff"/>
    <path id="Path_915" data-name="Path 915" d="M85.183,20.454a1.268,1.268,0,1,0-1.266-1.266,1.267,1.267,0,0,0,1.266,1.266" transform="translate(271.481 57.964)" fill="#00a7ff"/>
    <path id="Path_916" data-name="Path 916" d="M90.433,18.713a.282.282,0,0,0,0-.563.282.282,0,1,0,0,.563" transform="translate(291.642 58.717)" fill="#00a7ff"/>
    <path id="Path_917" data-name="Path 917" d="M.271,24.34a.071.071,0,0,0,.072-.072A.071.071,0,0,0,.271,24.2a.071.071,0,0,0-.072.068.071.071,0,0,0,.072.072" transform="translate(0.644 78.29)" fill="#00a7ff"/>
    <path id="Path_918" data-name="Path 918" d="M6.863,25.707a.845.845,0,1,0-.847-.847.847.847,0,0,0,.847.847" transform="translate(19.462 77.698)" fill="#00a7ff"/>
    <path id="Path_919" data-name="Path 919" d="M13.724,27.7a1.974,1.974,0,1,0-1.974-1.974A1.976,1.976,0,0,0,13.724,27.7" transform="translate(38.013 76.834)" fill="#00a7ff"/>
    <path id="Path_920" data-name="Path 920" d="M20.529,29.561A3.03,3.03,0,1,0,17.5,26.533a3.027,3.027,0,0,0,3.028,3.028" transform="translate(56.618 76.028)" fill="#00a7ff"/>
    <path id="Path_921" data-name="Path 921" d="M27.283,31.3a4.017,4.017,0,1,0-4.015-4.015A4.015,4.015,0,0,0,27.283,31.3" transform="translate(75.275 75.275)" fill="#00a7ff"/>
    <path id="Path_922" data-name="Path 922" d="M33.985,32.916a4.932,4.932,0,1,0-4.934-4.934,4.933,4.933,0,0,0,4.934,4.934" transform="translate(93.983 74.576)" fill="#00a7ff"/>
    <path id="Path_923" data-name="Path 923" d="M40.522,34.159a5.637,5.637,0,1,0-5.637-5.637,5.637,5.637,0,0,0,5.637,5.637" transform="translate(112.857 74.036)" fill="#00a7ff"/>
    <path id="Path_924" data-name="Path 924" d="M46.845,34.906a6.06,6.06,0,1,0-6.06-6.06,6.062,6.062,0,0,0,6.06,6.06" transform="translate(131.944 73.712)" fill="#00a7ff"/>
    <path id="Path_925" data-name="Path 925" d="M53.007,35.279a6.272,6.272,0,1,0-6.272-6.272,6.272,6.272,0,0,0,6.272,6.272" transform="translate(151.193 73.55)" fill="#00a7ff"/>
    <path id="Path_926" data-name="Path 926" d="M58.9,35.03A6.13,6.13,0,1,0,52.768,28.9,6.129,6.129,0,0,0,58.9,35.03" transform="translate(170.71 73.66)" fill="#00a7ff"/>
    <path id="Path_927" data-name="Path 927" d="M64.522,34.159a5.637,5.637,0,1,0-5.637-5.637,5.637,5.637,0,0,0,5.637,5.637" transform="translate(190.5 74.036)" fill="#00a7ff"/>
    <path id="Path_928" data-name="Path 928" d="M70.037,33.043a5,5,0,1,0-5-5,5,5,0,0,0,5,5" transform="translate(210.396 74.521)" fill="#00a7ff"/>
    <path id="Path_929" data-name="Path 929" d="M75.338,31.425a4.087,4.087,0,1,0-4.087-4.087,4.087,4.087,0,0,0,4.087,4.087" transform="translate(230.505 75.22)" fill="#00a7ff"/>
    <path id="Path_930" data-name="Path 930" d="M80.584,29.684a3.1,3.1,0,1,0-3.1-3.1,3.1,3.1,0,0,0,3.1,3.1" transform="translate(250.67 75.973)" fill="#00a7ff"/>
    <path id="Path_931" data-name="Path 931" d="M85.775,27.821a2.043,2.043,0,1,0-2.041-2.041,2.042,2.042,0,0,0,2.041,2.041" transform="translate(270.889 76.782)" fill="#00a7ff"/>
    <path id="Path_932" data-name="Path 932" d="M90.915,25.834A.917.917,0,1,0,90,24.919a.916.916,0,0,0,.915.915" transform="translate(291.16 77.643)" fill="#00a7ff"/>
    <path id="Path_933" data-name="Path 933" d="M96.271,24.34a.071.071,0,0,0,.072-.072.072.072,0,0,0-.144,0,.071.071,0,0,0,.072.072" transform="translate(311.215 78.29)" fill="#00a7ff"/>
    <path id="Path_934" data-name="Path 934" d="M.433,30.713a.282.282,0,1,0-.284-.28.283.283,0,0,0,.284.28" transform="translate(0.482 97.539)" fill="#00a7ff"/>
    <path id="Path_935" data-name="Path 935" d="M7.293,32.7a1.41,1.41,0,1,0-1.41-1.41,1.41,1.41,0,0,0,1.41,1.41" transform="translate(19.032 96.675)" fill="#00a7ff"/>
    <path id="Path_936" data-name="Path 936" d="M14.209,34.814A2.607,2.607,0,1,0,11.6,32.206a2.61,2.61,0,0,0,2.609,2.609" transform="translate(37.527 95.763)" fill="#00a7ff"/>
    <path id="Path_937" data-name="Path 937" d="M21.121,36.929a3.805,3.805,0,1,0-3.8-3.8,3.8,3.8,0,0,0,3.8,3.8" transform="translate(56.026 94.847)" fill="#00a7ff"/>
    <path id="Path_938" data-name="Path 938" d="M27.985,38.916a4.932,4.932,0,1,0-4.934-4.934,4.933,4.933,0,0,0,4.934,4.934" transform="translate(74.573 93.987)" fill="#00a7ff"/>
    <path id="Path_939" data-name="Path 939" d="M34.739,40.656a5.919,5.919,0,1,0-5.921-5.916,5.92,5.92,0,0,0,5.921,5.916" transform="translate(93.229 93.233)" fill="#00a7ff"/>
    <path id="Path_940" data-name="Path 940" d="M41.382,42.15a6.766,6.766,0,1,0-6.763-6.763,6.763,6.763,0,0,0,6.763,6.763" transform="translate(111.996 92.586)" fill="#00a7ff"/>
    <path id="Path_941" data-name="Path 941" d="M47.868,43.266a7.4,7.4,0,1,0-7.4-7.4,7.4,7.4,0,0,0,7.4,7.4" transform="translate(130.922 92.1)" fill="#00a7ff"/>
    <path id="Path_942" data-name="Path 942" d="M54.03,43.64a7.61,7.61,0,1,0-7.611-7.61,7.61,7.61,0,0,0,7.611,7.61" transform="translate(150.171 91.939)" fill="#00a7ff"/>
    <path id="Path_943" data-name="Path 943" d="M59.868,43.266a7.4,7.4,0,1,0-7.4-7.4,7.4,7.4,0,0,0,7.4,7.4" transform="translate(169.743 92.1)" fill="#00a7ff"/>
    <path id="Path_944" data-name="Path 944" d="M65.437,42.273A6.835,6.835,0,1,0,58.6,35.437a6.838,6.838,0,0,0,6.835,6.835" transform="translate(189.584 92.531)" fill="#00a7ff"/>
    <path id="Path_945" data-name="Path 945" d="M70.79,40.78A5.988,5.988,0,1,0,64.8,34.791,5.988,5.988,0,0,0,70.79,40.78" transform="translate(209.642 93.181)" fill="#00a7ff"/>
    <path id="Path_946" data-name="Path 946" d="M76.037,39.043a5,5,0,1,0-5-5,5,5,0,0,0,5,5" transform="translate(229.806 93.932)" fill="#00a7ff"/>
    <path id="Path_947" data-name="Path 947" d="M81.176,37.051A3.875,3.875,0,1,0,77.3,33.176a3.877,3.877,0,0,0,3.875,3.875" transform="translate(250.077 94.792)" fill="#00a7ff"/>
    <path id="Path_948" data-name="Path 948" d="M86.316,35.064a2.749,2.749,0,1,0-2.749-2.749,2.751,2.751,0,0,0,2.749,2.749" transform="translate(270.349 95.653)" fill="#00a7ff"/>
    <path id="Path_949" data-name="Path 949" d="M91.345,32.827a1.48,1.48,0,1,0-1.478-1.478,1.477,1.477,0,0,0,1.478,1.478" transform="translate(290.73 96.623)" fill="#00a7ff"/>
    <path id="Path_950" data-name="Path 950" d="M96.485,30.837a.352.352,0,1,0-.351-.352.351.351,0,0,0,.351.352" transform="translate(311.001 97.487)" fill="#00a7ff"/>
    <path id="Path_951" data-name="Path 951" d="M.646,37.211a.563.563,0,1,0-.563-.568.564.564,0,0,0,.563.568" transform="translate(0.269 116.736)" fill="#00a7ff"/>
    <path id="Path_952" data-name="Path 952" d="M7.617,39.447a1.832,1.832,0,1,0-1.834-1.83,1.834,1.834,0,0,0,1.834,1.83" transform="translate(18.709 115.765)" fill="#00a7ff"/>
    <path id="Path_953" data-name="Path 953" d="M14.639,41.808a3.17,3.17,0,1,0-3.172-3.172,3.17,3.17,0,0,0,3.172,3.172" transform="translate(37.097 114.743)" fill="#00a7ff"/>
    <path id="Path_954" data-name="Path 954" d="M21.551,43.922a4.369,4.369,0,1,0-4.366-4.366,4.37,4.37,0,0,0,4.366,4.366" transform="translate(55.595 113.827)" fill="#00a7ff"/>
    <path id="Path_955" data-name="Path 955" d="M28.522,46.159a5.637,5.637,0,1,0-5.637-5.637,5.637,5.637,0,0,0,5.637,5.637" transform="translate(74.036 112.857)" fill="#00a7ff"/>
    <path id="Path_956" data-name="Path 956" d="M35.382,48.15a6.766,6.766,0,1,0-6.763-6.763,6.763,6.763,0,0,0,6.763,6.763" transform="translate(92.586 111.996)" fill="#00a7ff"/>
    <path id="Path_957" data-name="Path 957" d="M42.191,50.014a7.822,7.822,0,1,0-7.822-7.822,7.823,7.823,0,0,0,7.822,7.822" transform="translate(111.188 111.188)" fill="#00a7ff"/>
    <path id="Path_958" data-name="Path 958" d="M48.4,50.511a8.1,8.1,0,1,0-8.1-8.1,8.1,8.1,0,0,0,8.1,8.1" transform="translate(130.385 110.974)" fill="#00a7ff"/>
    <path id="Path_959" data-name="Path 959" d="M54.084,49.764A7.68,7.68,0,1,0,46.4,42.085a7.677,7.677,0,0,0,7.682,7.678" transform="translate(150.116 111.298)" fill="#00a7ff"/>
    <path id="Path_960" data-name="Path 960" d="M60.4,50.511a8.1,8.1,0,1,0-8.1-8.1,8.1,8.1,0,0,0,8.1,8.1" transform="translate(169.206 110.974)" fill="#00a7ff"/>
    <path id="Path_961" data-name="Path 961" d="M66.243,50.137a7.892,7.892,0,1,0-7.89-7.89,7.89,7.89,0,0,0,7.89,7.89" transform="translate(188.779 111.136)" fill="#00a7ff"/>
    <path id="Path_962" data-name="Path 962" d="M71.437,48.273A6.835,6.835,0,1,0,64.6,41.437a6.838,6.838,0,0,0,6.835,6.835" transform="translate(208.995 111.941)" fill="#00a7ff"/>
    <path id="Path_963" data-name="Path 963" d="M76.577,46.283a5.707,5.707,0,1,0-5.709-5.709,5.709,5.709,0,0,0,5.709,5.709" transform="translate(229.266 112.805)" fill="#00a7ff"/>
    <path id="Path_964" data-name="Path 964" d="M81.661,44.172a4.51,4.51,0,1,0-4.51-4.51,4.511,4.511,0,0,0,4.51,4.51" transform="translate(249.592 113.717)" fill="#00a7ff"/>
    <path id="Path_965" data-name="Path 965" d="M86.691,41.935a3.242,3.242,0,1,0-3.24-3.24,3.24,3.24,0,0,0,3.24,3.24" transform="translate(269.973 114.688)" fill="#00a7ff"/>
    <path id="Path_966" data-name="Path 966" d="M91.724,39.7a1.974,1.974,0,1,0-1.974-1.974A1.976,1.976,0,0,0,91.724,39.7" transform="translate(290.351 115.655)" fill="#00a7ff"/>
    <path id="Path_967" data-name="Path 967" d="M96.753,37.46a.705.705,0,1,0-.7-.7.7.7,0,0,0,.7.7" transform="translate(310.733 116.626)" fill="#00a7ff"/>
    <path id="Path_968" data-name="Path 968" d="M.863,43.707a.845.845,0,1,0-.847-.847.847.847,0,0,0,.847.847" transform="translate(0.052 135.93)" fill="#00a7ff"/>
    <path id="Path_969" data-name="Path 969" d="M7.885,46.067A2.183,2.183,0,1,0,5.7,43.882a2.185,2.185,0,0,0,2.185,2.185" transform="translate(18.44 134.907)" fill="#00a7ff"/>
    <path id="Path_970" data-name="Path 970" d="M14.853,48.308A3.454,3.454,0,1,0,11.4,44.857a3.452,3.452,0,0,0,3.452,3.452" transform="translate(36.884 133.937)" fill="#00a7ff"/>
    <path id="Path_971" data-name="Path 971" d="M21.875,50.669a4.792,4.792,0,1,0-4.79-4.79,4.791,4.791,0,0,0,4.79,4.79" transform="translate(55.272 132.915)" fill="#00a7ff"/>
    <path id="Path_972" data-name="Path 972" d="M28.845,52.906a6.06,6.06,0,1,0-6.06-6.06,6.062,6.062,0,0,0,6.06,6.06" transform="translate(73.712 131.944)" fill="#00a7ff"/>
    <path id="Path_973" data-name="Path 973" d="M35.868,55.266a7.4,7.4,0,1,0-7.4-7.4,7.4,7.4,0,0,0,7.4,7.4" transform="translate(92.1 130.922)" fill="#00a7ff"/>
    <path id="Path_974" data-name="Path 974" d="M42.4,56.511a8.1,8.1,0,1,0-8.1-8.1,8.1,8.1,0,0,0,8.1,8.1" transform="translate(110.974 130.385)" fill="#00a7ff"/>
    <path id="Path_975" data-name="Path 975" d="M46.629,52.41a5.779,5.779,0,1,0-5.777-5.777,5.778,5.778,0,0,0,5.777,5.777" transform="translate(132.161 132.161)" fill="#00a7ff"/>
    <path id="Path_976" data-name="Path 976" d="M51.393,49.549a4.157,4.157,0,1,0-4.159-4.159,4.158,4.158,0,0,0,4.159,4.159" transform="translate(152.807 133.4)" fill="#00a7ff"/>
    <path id="Path_977" data-name="Path 977" d="M58.467,52.036A5.567,5.567,0,1,0,52.9,46.471a5.563,5.563,0,0,0,5.565,5.565" transform="translate(171.144 132.323)" fill="#00a7ff"/>
    <path id="Path_978" data-name="Path 978" d="M66.353,56.384a8.032,8.032,0,1,0-8.034-8.034,8.032,8.032,0,0,0,8.034,8.034" transform="translate(188.669 130.44)" fill="#00a7ff"/>
    <path id="Path_979" data-name="Path 979" d="M71.923,55.39a7.469,7.469,0,1,0-7.471-7.471,7.472,7.472,0,0,0,7.471,7.471" transform="translate(208.51 130.87)" fill="#00a7ff"/>
    <path id="Path_980" data-name="Path 980" d="M76.952,53.157a6.2,6.2,0,1,0-6.2-6.2,6.2,6.2,0,0,0,6.2,6.2" transform="translate(228.891 131.837)" fill="#00a7ff"/>
    <path id="Path_981" data-name="Path 981" d="M81.93,50.792a4.862,4.862,0,1,0-4.862-4.862,4.862,4.862,0,0,0,4.862,4.862" transform="translate(249.324 132.86)" fill="#00a7ff"/>
    <path id="Path_982" data-name="Path 982" d="M86.963,48.555a3.593,3.593,0,1,0-3.6-3.591,3.591,3.591,0,0,0,3.6,3.591" transform="translate(269.702 133.83)" fill="#00a7ff"/>
    <path id="Path_983" data-name="Path 983" d="M91.937,46.194a2.255,2.255,0,1,0-2.253-2.253,2.252,2.252,0,0,0,2.253,2.253" transform="translate(290.138 134.852)" fill="#00a7ff"/>
    <path id="Path_984" data-name="Path 984" d="M96.915,43.834A.917.917,0,1,0,96,42.919a.916.916,0,0,0,.915.915" transform="translate(310.571 135.875)" fill="#00a7ff"/>
    <path id="Path_985" data-name="Path 985" d="M.915,49.834A.917.917,0,1,0,0,48.919a.916.916,0,0,0,.915.915" transform="translate(0 155.285)" fill="#00a7ff"/>
    <path id="Path_986" data-name="Path 986" d="M7.937,52.194a2.255,2.255,0,1,0-2.253-2.253,2.252,2.252,0,0,0,2.253,2.253" transform="translate(18.388 154.263)" fill="#00a7ff"/>
    <path id="Path_987" data-name="Path 987" d="M14.959,54.555a3.593,3.593,0,1,0-3.591-3.591,3.594,3.594,0,0,0,3.591,3.591" transform="translate(36.777 153.241)" fill="#00a7ff"/>
    <path id="Path_988" data-name="Path 988" d="M21.985,56.916a4.932,4.932,0,1,0-4.934-4.934,4.933,4.933,0,0,0,4.934,4.934" transform="translate(55.162 152.219)" fill="#00a7ff"/>
    <path id="Path_989" data-name="Path 989" d="M29.007,59.279a6.272,6.272,0,1,0-6.272-6.272,6.272,6.272,0,0,0,6.272,6.272" transform="translate(73.55 151.193)" fill="#00a7ff"/>
    <path id="Path_990" data-name="Path 990" d="M36.029,61.64a7.611,7.611,0,1,0-7.61-7.611,7.61,7.61,0,0,0,7.61,7.611" transform="translate(91.939 150.171)" fill="#00a7ff"/>
    <path id="Path_991" data-name="Path 991" d="M42.084,61.764A7.68,7.68,0,1,0,34.4,54.081a7.678,7.678,0,0,0,7.683,7.682" transform="translate(111.294 150.119)" fill="#00a7ff"/>
    <path id="Path_992" data-name="Path 992" d="M45.393,55.549a4.157,4.157,0,1,0-4.159-4.159,4.158,4.158,0,0,0,4.159,4.159" transform="translate(133.397 152.811)" fill="#00a7ff"/>
    <path id="Path_993" data-name="Path 993" d="M49.345,50.827a1.48,1.48,0,1,0-1.478-1.478,1.477,1.477,0,0,0,1.478,1.478" transform="translate(154.855 154.855)" fill="#00a7ff"/>
    <path id="Path_994" data-name="Path 994" d="M57.176,55.051A3.875,3.875,0,1,0,53.3,51.176a3.877,3.877,0,0,0,3.875,3.875" transform="translate(172.435 153.024)" fill="#00a7ff"/>
    <path id="Path_995" data-name="Path 995" d="M65.923,61.39a7.469,7.469,0,1,0-7.471-7.471,7.472,7.472,0,0,0,7.471,7.471" transform="translate(189.099 150.281)" fill="#00a7ff"/>
    <path id="Path_996" data-name="Path 996" d="M72.084,61.764A7.68,7.68,0,1,0,64.4,54.081a7.678,7.678,0,0,0,7.682,7.682" transform="translate(208.348 150.119)" fill="#00a7ff"/>
    <path id="Path_997" data-name="Path 997" d="M77.059,59.4a6.342,6.342,0,1,0-6.34-6.34,6.339,6.339,0,0,0,6.34,6.34" transform="translate(228.784 151.141)" fill="#00a7ff"/>
    <path id="Path_998" data-name="Path 998" d="M82.037,57.043a5,5,0,1,0-5-5,5,5,0,0,0,5,5" transform="translate(249.217 152.164)" fill="#00a7ff"/>
    <path id="Path_999" data-name="Path 999" d="M87.069,54.8a3.735,3.735,0,1,0-3.735-3.735A3.736,3.736,0,0,0,87.069,54.8" transform="translate(269.595 153.131)" fill="#00a7ff"/>
    <path id="Path_1000" data-name="Path 1000" d="M92.047,52.441a2.395,2.395,0,1,0-2.4-2.4,2.4,2.4,0,0,0,2.4,2.4" transform="translate(290.028 154.156)" fill="#00a7ff"/>
    <path id="Path_1001" data-name="Path 1001" d="M97.025,50.08a1.057,1.057,0,1,0-1.059-1.055,1.058,1.058,0,0,0,1.059,1.055" transform="translate(310.461 155.179)" fill="#00a7ff"/>
    <path id="Path_1002" data-name="Path 1002" d="M102.271,48.34a.071.071,0,0,0,.072-.072.072.072,0,0,0-.144,0,.071.071,0,0,0,.072.072" transform="translate(330.625 155.932)" fill="#00a7ff"/>
    <path id="Path_1003" data-name="Path 1003" d="M.863,55.707a.845.845,0,1,0-.847-.847.847.847,0,0,0,.847.847" transform="translate(0.052 174.751)" fill="#00a7ff"/>
    <path id="Path_1004" data-name="Path 1004" d="M7.885,58.067A2.183,2.183,0,1,0,5.7,55.882a2.185,2.185,0,0,0,2.185,2.185" transform="translate(18.44 173.729)" fill="#00a7ff"/>
    <path id="Path_1005" data-name="Path 1005" d="M14.908,60.431a3.524,3.524,0,1,0-3.524-3.524,3.524,3.524,0,0,0,3.524,3.524" transform="translate(36.829 172.703)" fill="#00a7ff"/>
    <path id="Path_1006" data-name="Path 1006" d="M21.875,62.669a4.792,4.792,0,1,0-4.79-4.79,4.791,4.791,0,0,0,4.79,4.79" transform="translate(55.272 171.736)" fill="#00a7ff"/>
    <path id="Path_1007" data-name="Path 1007" d="M28.9,65.03A6.13,6.13,0,1,0,22.769,58.9,6.133,6.133,0,0,0,28.9,65.03" transform="translate(73.66 170.714)" fill="#00a7ff"/>
    <path id="Path_1008" data-name="Path 1008" d="M35.868,67.267a7.4,7.4,0,1,0-7.4-7.4,7.4,7.4,0,0,0,7.4,7.4" transform="translate(92.1 169.743)" fill="#00a7ff"/>
    <path id="Path_1009" data-name="Path 1009" d="M42.4,68.511a8.1,8.1,0,1,0-8.1-8.1,8.1,8.1,0,0,0,8.1,8.1" transform="translate(110.974 169.206)" fill="#00a7ff"/>
    <path id="Path_1010" data-name="Path 1010" d="M46.467,64.036A5.567,5.567,0,1,0,40.9,58.471a5.563,5.563,0,0,0,5.565,5.565" transform="translate(132.323 171.144)" fill="#00a7ff"/>
    <path id="Path_1011" data-name="Path 1011" d="M51.176,61.051A3.875,3.875,0,1,0,47.3,57.176a3.877,3.877,0,0,0,3.875,3.875" transform="translate(153.024 172.435)" fill="#00a7ff"/>
    <path id="Path_1012" data-name="Path 1012" d="M58.308,63.663a5.355,5.355,0,1,0-5.357-5.353,5.354,5.354,0,0,0,5.357,5.353" transform="translate(171.302 171.306)" fill="#00a7ff"/>
    <path id="Path_1013" data-name="Path 1013" d="M66.3,68.26A7.962,7.962,0,1,0,58.336,60.3,7.964,7.964,0,0,0,66.3,68.26" transform="translate(188.724 169.313)" fill="#00a7ff"/>
    <path id="Path_1014" data-name="Path 1014" d="M71.975,67.517a7.541,7.541,0,1,0-7.539-7.539,7.539,7.539,0,0,0,7.539,7.539" transform="translate(208.458 169.636)" fill="#00a7ff"/>
    <path id="Path_1015" data-name="Path 1015" d="M76.952,65.157a6.2,6.2,0,1,0-6.2-6.2,6.2,6.2,0,0,0,6.2,6.2" transform="translate(228.891 170.659)" fill="#00a7ff"/>
    <path id="Path_1016" data-name="Path 1016" d="M81.985,62.916a4.932,4.932,0,1,0-4.934-4.934,4.933,4.933,0,0,0,4.934,4.934" transform="translate(249.269 171.629)" fill="#00a7ff"/>
    <path id="Path_1017" data-name="Path 1017" d="M86.963,60.555a3.593,3.593,0,1,0-3.6-3.591,3.591,3.591,0,0,0,3.6,3.591" transform="translate(269.702 172.652)" fill="#00a7ff"/>
    <path id="Path_1018" data-name="Path 1018" d="M91.937,58.194a2.255,2.255,0,1,0-2.253-2.253,2.252,2.252,0,0,0,2.253,2.253" transform="translate(290.138 173.674)" fill="#00a7ff"/>
    <path id="Path_1019" data-name="Path 1019" d="M96.97,55.957a.987.987,0,1,0-.987-.987.985.985,0,0,0,.987.987" transform="translate(310.516 174.641)" fill="#00a7ff"/>
    <path id="Path_1020" data-name="Path 1020" d="M.7,61.333A.633.633,0,1,0,.066,60.7a.634.634,0,0,0,.635.635" transform="translate(0.214 194.324)" fill="#00a7ff"/>
    <path id="Path_1021" data-name="Path 1021" d="M7.669,63.571a1.9,1.9,0,1,0-1.9-1.9,1.9,1.9,0,0,0,1.9,1.9" transform="translate(18.657 193.356)" fill="#00a7ff"/>
    <path id="Path_1022" data-name="Path 1022" d="M14.639,65.808a3.17,3.17,0,1,0-3.172-3.172,3.17,3.17,0,0,0,3.172,3.172" transform="translate(37.097 192.386)" fill="#00a7ff"/>
    <path id="Path_1023" data-name="Path 1023" d="M21.606,68.046a4.438,4.438,0,1,0-4.438-4.438,4.437,4.437,0,0,0,4.438,4.438" transform="translate(55.54 191.418)" fill="#00a7ff"/>
    <path id="Path_1024" data-name="Path 1024" d="M28.522,70.159a5.637,5.637,0,1,0-5.637-5.637,5.637,5.637,0,0,0,5.637,5.637" transform="translate(74.036 190.5)" fill="#00a7ff"/>
    <path id="Path_1025" data-name="Path 1025" d="M35.437,72.273A6.835,6.835,0,1,0,28.6,65.437a6.838,6.838,0,0,0,6.835,6.835" transform="translate(92.531 189.584)" fill="#00a7ff"/>
    <path id="Path_1026" data-name="Path 1026" d="M42.243,74.137a7.892,7.892,0,1,0-7.89-7.89,7.89,7.89,0,0,0,7.89,7.89" transform="translate(111.136 188.779)" fill="#00a7ff"/>
    <path id="Path_1027" data-name="Path 1027" d="M48.353,74.384a8.032,8.032,0,1,0-8.034-8.034,8.032,8.032,0,0,0,8.034,8.034" transform="translate(130.437 188.672)" fill="#00a7ff"/>
    <path id="Path_1028" data-name="Path 1028" d="M53.923,73.39a7.469,7.469,0,1,0-7.471-7.471,7.472,7.472,0,0,0,7.471,7.471" transform="translate(150.277 189.102)" fill="#00a7ff"/>
    <path id="Path_1029" data-name="Path 1029" d="M60.3,74.26A7.962,7.962,0,1,0,52.336,66.3,7.964,7.964,0,0,0,60.3,74.26" transform="translate(169.313 188.724)" fill="#00a7ff"/>
    <path id="Path_1030" data-name="Path 1030" d="M66.3,74.26A7.962,7.962,0,1,0,58.336,66.3,7.964,7.964,0,0,0,66.3,74.26" transform="translate(188.724 188.724)" fill="#00a7ff"/>
    <path id="Path_1031" data-name="Path 1031" d="M71.493,72.4a6.905,6.905,0,1,0-6.908-6.9,6.9,6.9,0,0,0,6.908,6.9" transform="translate(208.94 189.532)" fill="#00a7ff"/>
    <path id="Path_1032" data-name="Path 1032" d="M76.629,70.41a5.779,5.779,0,1,0-5.777-5.777,5.778,5.778,0,0,0,5.777,5.777" transform="translate(229.214 190.393)" fill="#00a7ff"/>
    <path id="Path_1033" data-name="Path 1033" d="M81.661,68.172a4.51,4.51,0,1,0-4.51-4.51,4.511,4.511,0,0,0,4.51,4.51" transform="translate(249.592 191.36)" fill="#00a7ff"/>
    <path id="Path_1034" data-name="Path 1034" d="M86.746,66.058a3.312,3.312,0,1,0-3.312-3.312,3.311,3.311,0,0,0,3.312,3.312" transform="translate(269.918 192.276)" fill="#00a7ff"/>
    <path id="Path_1035" data-name="Path 1035" d="M91.724,63.7a1.974,1.974,0,1,0-1.974-1.974A1.976,1.976,0,0,0,91.724,63.7" transform="translate(290.351 193.298)" fill="#00a7ff"/>
    <path id="Path_1036" data-name="Path 1036" d="M96.753,61.46a.705.705,0,1,0-.7-.7.7.7,0,0,0,.7.7" transform="translate(310.733 194.269)" fill="#00a7ff"/>
    <path id="Path_1037" data-name="Path 1037" d="M.433,66.713a.282.282,0,1,0-.284-.28.283.283,0,0,0,.284.28" transform="translate(0.482 214.003)" fill="#00a7ff"/>
    <path id="Path_1038" data-name="Path 1038" d="M7.345,68.827a1.48,1.48,0,1,0-1.478-1.478,1.477,1.477,0,0,0,1.478,1.478" transform="translate(18.98 213.087)" fill="#00a7ff"/>
    <path id="Path_1039" data-name="Path 1039" d="M14.261,70.938a2.677,2.677,0,1,0-2.677-2.677,2.677,2.677,0,0,0,2.677,2.677" transform="translate(37.476 212.175)" fill="#00a7ff"/>
    <path id="Path_1040" data-name="Path 1040" d="M21.176,73.051A3.875,3.875,0,1,0,17.3,69.176a3.877,3.877,0,0,0,3.875,3.875" transform="translate(55.971 211.256)" fill="#00a7ff"/>
    <path id="Path_1041" data-name="Path 1041" d="M28.037,75.043a5,5,0,1,0-5-5,5,5,0,0,0,5,5" transform="translate(74.521 210.396)" fill="#00a7ff"/>
    <path id="Path_1042" data-name="Path 1042" d="M34.79,76.78A5.988,5.988,0,1,0,28.8,70.791,5.988,5.988,0,0,0,34.79,76.78" transform="translate(93.178 209.645)" fill="#00a7ff"/>
    <path id="Path_1043" data-name="Path 1043" d="M41.437,78.273A6.835,6.835,0,1,0,34.6,71.437a6.838,6.838,0,0,0,6.835,6.835" transform="translate(111.941 208.995)" fill="#00a7ff"/>
    <path id="Path_1044" data-name="Path 1044" d="M47.923,79.39a7.469,7.469,0,1,0-7.471-7.471,7.472,7.472,0,0,0,7.471,7.471" transform="translate(130.867 208.513)" fill="#00a7ff"/>
    <path id="Path_1045" data-name="Path 1045" d="M54.084,79.764A7.68,7.68,0,1,0,46.4,72.081a7.678,7.678,0,0,0,7.682,7.682" transform="translate(150.116 208.351)" fill="#00a7ff"/>
    <path id="Path_1046" data-name="Path 1046" d="M59.975,79.517a7.541,7.541,0,1,0-7.539-7.538,7.539,7.539,0,0,0,7.539,7.538" transform="translate(169.636 208.458)" fill="#00a7ff"/>
    <path id="Path_1047" data-name="Path 1047" d="M65.493,78.4a6.905,6.905,0,1,0-6.907-6.9,6.9,6.9,0,0,0,6.907,6.9" transform="translate(189.529 208.943)" fill="#00a7ff"/>
    <path id="Path_1048" data-name="Path 1048" d="M70.845,76.906a6.06,6.06,0,1,0-6.06-6.06,6.062,6.062,0,0,0,6.06,6.06" transform="translate(209.587 209.587)" fill="#00a7ff"/>
    <path id="Path_1049" data-name="Path 1049" d="M76.092,75.165a5.074,5.074,0,1,0-5.074-5.074,5.072,5.072,0,0,0,5.074,5.074" transform="translate(229.751 210.341)" fill="#00a7ff"/>
    <path id="Path_1050" data-name="Path 1050" d="M81.231,73.175a3.945,3.945,0,1,0-3.947-3.947,3.946,3.946,0,0,0,3.947,3.947" transform="translate(250.022 211.204)" fill="#00a7ff"/>
    <path id="Path_1051" data-name="Path 1051" d="M86.316,71.064a2.749,2.749,0,1,0-2.749-2.749,2.748,2.748,0,0,0,2.749,2.749" transform="translate(270.349 212.117)" fill="#00a7ff"/>
    <path id="Path_1052" data-name="Path 1052" d="M91.4,68.95a1.55,1.55,0,1,0-1.55-1.55,1.551,1.551,0,0,0,1.55,1.55" transform="translate(290.675 213.032)" fill="#00a7ff"/>
    <path id="Path_1053" data-name="Path 1053" d="M96.485,66.837a.352.352,0,1,0-.351-.352.351.351,0,0,0,.351.352" transform="translate(311.001 213.951)" fill="#00a7ff"/>
    <path id="Path_1054" data-name="Path 1054" d="M.271,72.34a.071.071,0,0,0,.072-.072A.071.071,0,0,0,.271,72.2a.071.071,0,0,0-.072.068.071.071,0,0,0,.072.072" transform="translate(0.644 233.575)" fill="#00a7ff"/>
    <path id="Path_1055" data-name="Path 1055" d="M6.863,73.707a.845.845,0,1,0-.847-.847.847.847,0,0,0,.847.847" transform="translate(19.462 232.983)" fill="#00a7ff"/>
    <path id="Path_1056" data-name="Path 1056" d="M13.724,75.7a1.974,1.974,0,1,0-1.974-1.974A1.976,1.976,0,0,0,13.724,75.7" transform="translate(38.013 232.119)" fill="#00a7ff"/>
    <path id="Path_1057" data-name="Path 1057" d="M20.584,77.684a3.1,3.1,0,1,0-3.1-3.1,3.1,3.1,0,0,0,3.1,3.1" transform="translate(56.563 231.259)" fill="#00a7ff"/>
    <path id="Path_1058" data-name="Path 1058" d="M27.338,79.425a4.087,4.087,0,1,0-4.087-4.087,4.087,4.087,0,0,0,4.087,4.087" transform="translate(75.22 230.505)" fill="#00a7ff"/>
    <path id="Path_1059" data-name="Path 1059" d="M34.037,81.043a5,5,0,1,0-5-5,5,5,0,0,0,5,5" transform="translate(93.931 229.806)" fill="#00a7ff"/>
    <path id="Path_1060" data-name="Path 1060" d="M40.577,82.283a5.707,5.707,0,1,0-5.709-5.709,5.709,5.709,0,0,0,5.709,5.709" transform="translate(112.802 229.269)" fill="#00a7ff"/>
    <path id="Path_1061" data-name="Path 1061" d="M46.952,83.153a6.2,6.2,0,1,0-6.2-6.2,6.2,6.2,0,0,0,6.2,6.2" transform="translate(131.837 228.894)" fill="#00a7ff"/>
    <path id="Path_1062" data-name="Path 1062" d="M53.059,83.4a6.342,6.342,0,1,0-6.34-6.34,6.339,6.339,0,0,0,6.34,6.34" transform="translate(151.141 228.784)" fill="#00a7ff"/>
    <path id="Path_1063" data-name="Path 1063" d="M58.952,83.153a6.2,6.2,0,1,0-6.2-6.2,6.2,6.2,0,0,0,6.2,6.2" transform="translate(170.659 228.894)" fill="#00a7ff"/>
    <path id="Path_1064" data-name="Path 1064" d="M64.629,82.41a5.779,5.779,0,1,0-5.777-5.777,5.778,5.778,0,0,0,5.777,5.777" transform="translate(190.393 229.214)" fill="#00a7ff"/>
    <path id="Path_1065" data-name="Path 1065" d="M70.092,81.165a5.074,5.074,0,1,0-5.074-5.074,5.072,5.072,0,0,0,5.074,5.074" transform="translate(210.341 229.751)" fill="#00a7ff"/>
    <path id="Path_1066" data-name="Path 1066" d="M75.393,79.549a4.157,4.157,0,1,0-4.159-4.159,4.158,4.158,0,0,0,4.159,4.159" transform="translate(230.45 230.453)" fill="#00a7ff"/>
    <path id="Path_1067" data-name="Path 1067" d="M80.639,77.808a3.17,3.17,0,1,0-3.172-3.172,3.173,3.173,0,0,0,3.172,3.172" transform="translate(250.615 231.207)" fill="#00a7ff"/>
    <path id="Path_1068" data-name="Path 1068" d="M85.83,75.945a2.113,2.113,0,1,0-2.113-2.113,2.111,2.111,0,0,0,2.113,2.113" transform="translate(270.834 232.016)" fill="#00a7ff"/>
    <path id="Path_1069" data-name="Path 1069" d="M90.97,73.957a.987.987,0,1,0-.987-.987.985.985,0,0,0,.987.987" transform="translate(291.105 232.873)" fill="#00a7ff"/>
    <path id="Path_1070" data-name="Path 1070" d="M96.271,72.34a.071.071,0,0,0,.072-.072.072.072,0,0,0-.144,0,.071.071,0,0,0,.072.072" transform="translate(311.215 233.575)" fill="#00a7ff"/>
    <path id="Path_1071" data-name="Path 1071" d="M6.433,78.713a.282.282,0,1,0-.284-.279.283.283,0,0,0,.284.279" transform="translate(19.893 252.824)" fill="#00a7ff"/>
    <path id="Path_1072" data-name="Path 1072" d="M13.132,80.33a1.2,1.2,0,1,0-1.2-1.2,1.2,1.2,0,0,0,1.2,1.2" transform="translate(38.605 252.122)" fill="#00a7ff"/>
    <path id="Path_1073" data-name="Path 1073" d="M19.885,82.067A2.183,2.183,0,1,0,17.7,79.882a2.185,2.185,0,0,0,2.185,2.185" transform="translate(57.262 251.372)" fill="#00a7ff"/>
    <path id="Path_1074" data-name="Path 1074" d="M26.584,83.684a3.1,3.1,0,1,0-3.1-3.1,3.1,3.1,0,0,0,3.1,3.1" transform="translate(75.973 250.67)" fill="#00a7ff"/>
    <path id="Path_1075" data-name="Path 1075" d="M33.176,85.051A3.875,3.875,0,1,0,29.3,81.176a3.877,3.877,0,0,0,3.875,3.875" transform="translate(94.792 250.078)" fill="#00a7ff"/>
    <path id="Path_1076" data-name="Path 1076" d="M39.661,86.172a4.51,4.51,0,1,0-4.51-4.51,4.511,4.511,0,0,0,4.51,4.51" transform="translate(113.717 249.592)" fill="#00a7ff"/>
    <path id="Path_1077" data-name="Path 1077" d="M45.93,86.792a4.862,4.862,0,1,0-4.862-4.862,4.862,4.862,0,0,0,4.862,4.862" transform="translate(132.86 249.324)" fill="#00a7ff"/>
    <path id="Path_1078" data-name="Path 1078" d="M52.037,87.043a5,5,0,1,0-5-5,5,5,0,0,0,5,5" transform="translate(152.164 249.217)" fill="#00a7ff"/>
    <path id="Path_1079" data-name="Path 1079" d="M57.985,86.916a4.932,4.932,0,1,0-4.934-4.934,4.933,4.933,0,0,0,4.934,4.934" transform="translate(171.626 249.272)" fill="#00a7ff"/>
    <path id="Path_1080" data-name="Path 1080" d="M63.661,86.172a4.51,4.51,0,1,0-4.51-4.51,4.511,4.511,0,0,0,4.51,4.51" transform="translate(191.36 249.592)" fill="#00a7ff"/>
    <path id="Path_1081" data-name="Path 1081" d="M69.231,85.175a3.945,3.945,0,1,0-3.947-3.947,3.946,3.946,0,0,0,3.947,3.947" transform="translate(211.201 250.026)" fill="#00a7ff"/>
    <path id="Path_1082" data-name="Path 1082" d="M74.639,83.808a3.17,3.17,0,1,0-3.172-3.172,3.173,3.173,0,0,0,3.172,3.172" transform="translate(231.204 250.618)" fill="#00a7ff"/>
    <path id="Path_1083" data-name="Path 1083" d="M79.992,82.317a2.325,2.325,0,1,0-2.325-2.325,2.326,2.326,0,0,0,2.325,2.325" transform="translate(251.262 251.262)" fill="#00a7ff"/>
    <path id="Path_1084" data-name="Path 1084" d="M85.238,80.578A1.338,1.338,0,1,0,83.9,79.239a1.336,1.336,0,0,0,1.338,1.338" transform="translate(271.426 252.019)" fill="#00a7ff"/>
    <path id="Path_1085" data-name="Path 1085" d="M90.433,78.713a.282.282,0,0,0,0-.563.282.282,0,1,0,0,.563" transform="translate(291.642 252.824)" fill="#00a7ff"/>
    <path id="Path_1086" data-name="Path 1086" d="M12.485,84.837a.352.352,0,1,0-.352-.352.351.351,0,0,0,.352.352" transform="translate(39.252 272.183)" fill="#00a7ff"/>
    <path id="Path_1087" data-name="Path 1087" d="M19.183,86.454a1.268,1.268,0,1,0-1.266-1.266,1.271,1.271,0,0,0,1.266,1.266" transform="translate(57.964 271.481)" fill="#00a7ff"/>
    <path id="Path_1088" data-name="Path 1088" d="M25.775,87.821a2.043,2.043,0,1,0-2.041-2.041,2.043,2.043,0,0,0,2.041,2.041" transform="translate(76.782 270.889)" fill="#00a7ff"/>
    <path id="Path_1089" data-name="Path 1089" d="M32.316,89.064a2.749,2.749,0,1,0-2.749-2.749,2.748,2.748,0,0,0,2.749,2.749" transform="translate(95.653 270.349)" fill="#00a7ff"/>
    <path id="Path_1090" data-name="Path 1090" d="M38.691,89.935a3.242,3.242,0,1,0-3.24-3.24,3.24,3.24,0,0,0,3.24,3.24" transform="translate(114.688 269.973)" fill="#00a7ff"/>
    <path id="Path_1091" data-name="Path 1091" d="M44.963,90.555a3.594,3.594,0,1,0-3.6-3.591,3.591,3.591,0,0,0,3.6,3.591" transform="translate(133.827 269.705)" fill="#00a7ff"/>
    <path id="Path_1092" data-name="Path 1092" d="M51.069,90.8a3.735,3.735,0,1,0-3.735-3.735A3.736,3.736,0,0,0,51.069,90.8" transform="translate(153.131 269.595)" fill="#00a7ff"/>
    <path id="Path_1093" data-name="Path 1093" d="M56.963,90.555a3.594,3.594,0,1,0-3.6-3.591,3.59,3.59,0,0,0,3.6,3.591" transform="translate(172.648 269.705)" fill="#00a7ff"/>
    <path id="Path_1094" data-name="Path 1094" d="M62.746,90.058a3.312,3.312,0,1,0-3.312-3.312,3.311,3.311,0,0,0,3.312,3.312" transform="translate(192.276 269.918)" fill="#00a7ff"/>
    <path id="Path_1095" data-name="Path 1095" d="M68.316,89.064a2.749,2.749,0,1,0-2.749-2.749,2.748,2.748,0,0,0,2.749,2.749" transform="translate(212.117 270.349)" fill="#00a7ff"/>
    <path id="Path_1096" data-name="Path 1096" d="M73.83,87.945a2.113,2.113,0,1,0-2.113-2.113,2.111,2.111,0,0,0,2.113,2.113" transform="translate(232.013 270.837)" fill="#00a7ff"/>
    <path id="Path_1097" data-name="Path 1097" d="M79.238,86.578A1.338,1.338,0,1,0,77.9,85.239a1.336,1.336,0,0,0,1.338,1.338" transform="translate(252.015 271.429)" fill="#00a7ff"/>
    <path id="Path_1098" data-name="Path 1098" d="M84.54,84.963a.424.424,0,1,0-.424-.424.425.425,0,0,0,.424.424" transform="translate(272.125 272.125)" fill="#00a7ff"/>
    <path id="Path_1099" data-name="Path 1099" d="M18.433,90.713a.282.282,0,1,0-.284-.279.283.283,0,0,0,.284.279" transform="translate(58.714 291.645)" fill="#00a7ff"/>
    <path id="Path_1100" data-name="Path 1100" d="M24.915,91.834A.917.917,0,1,0,24,90.919a.916.916,0,0,0,.915.915" transform="translate(77.643 291.16)" fill="#00a7ff"/>
    <path id="Path_1101" data-name="Path 1101" d="M31.345,92.827a1.48,1.48,0,1,0-1.478-1.478,1.477,1.477,0,0,0,1.478,1.478" transform="translate(96.623 290.73)" fill="#00a7ff"/>
    <path id="Path_1102" data-name="Path 1102" d="M37.724,93.7a1.974,1.974,0,1,0-1.974-1.974A1.976,1.976,0,0,0,37.724,93.7" transform="translate(115.655 290.351)" fill="#00a7ff"/>
    <path id="Path_1103" data-name="Path 1103" d="M43.937,94.194a2.255,2.255,0,1,0-2.253-2.253,2.252,2.252,0,0,0,2.253,2.253" transform="translate(134.852 290.138)" fill="#00a7ff"/>
    <path id="Path_1104" data-name="Path 1104" d="M50.047,94.441a2.395,2.395,0,1,0-2.4-2.4,2.4,2.4,0,0,0,2.4,2.4" transform="translate(154.153 290.031)" fill="#00a7ff"/>
    <path id="Path_1105" data-name="Path 1105" d="M55.937,94.194a2.255,2.255,0,1,0-2.253-2.253,2.252,2.252,0,0,0,2.253,2.253" transform="translate(173.674 290.138)" fill="#00a7ff"/>
    <path id="Path_1106" data-name="Path 1106" d="M61.724,93.7a1.974,1.974,0,1,0-1.974-1.974A1.976,1.976,0,0,0,61.724,93.7" transform="translate(193.298 290.351)" fill="#00a7ff"/>
    <path id="Path_1107" data-name="Path 1107" d="M67.4,92.95a1.55,1.55,0,1,0-1.55-1.55,1.551,1.551,0,0,0,1.55,1.55" transform="translate(213.032 290.675)" fill="#00a7ff"/>
    <path id="Path_1108" data-name="Path 1108" d="M72.97,91.957a.987.987,0,1,0-.987-.987.985.985,0,0,0,.987.987" transform="translate(232.873 291.105)" fill="#00a7ff"/>
    <path id="Path_1109" data-name="Path 1109" d="M78.433,90.713a.282.282,0,0,0,0-.563.282.282,0,1,0,0,.563" transform="translate(252.821 291.645)" fill="#00a7ff"/>
    <path id="Path_1110" data-name="Path 1110" d="M24.271,96.34a.071.071,0,0,0,.072-.072.072.072,0,0,0-.144,0,.071.071,0,0,0,.072.072" transform="translate(78.286 311.218)" fill="#00a7ff"/>
    <path id="Path_1111" data-name="Path 1111" d="M30.485,96.837a.352.352,0,1,0-.352-.352.351.351,0,0,0,.352.352" transform="translate(97.484 311.004)" fill="#00a7ff"/>
    <path id="Path_1112" data-name="Path 1112" d="M36.753,97.46a.705.705,0,1,0-.7-.7.7.7,0,0,0,.7.7" transform="translate(116.626 310.733)" fill="#00a7ff"/>
    <path id="Path_1113" data-name="Path 1113" d="M42.915,97.834A.917.917,0,1,0,42,96.919a.916.916,0,0,0,.915.915" transform="translate(135.875 310.571)" fill="#00a7ff"/>
    <path id="Path_1114" data-name="Path 1114" d="M49.025,98.08a1.057,1.057,0,1,0-1.059-1.055,1.058,1.058,0,0,0,1.059,1.055" transform="translate(155.175 310.464)" fill="#00a7ff"/>
    <path id="Path_1115" data-name="Path 1115" d="M54.97,97.957a.987.987,0,1,0-.987-.987.985.985,0,0,0,.987.987" transform="translate(174.641 310.516)" fill="#00a7ff"/>
    <path id="Path_1116" data-name="Path 1116" d="M60.753,97.46a.705.705,0,1,0-.7-.7.7.7,0,0,0,.7.7" transform="translate(194.269 310.733)" fill="#00a7ff"/>
    <path id="Path_1117" data-name="Path 1117" d="M66.485,96.837a.352.352,0,1,0-.352-.352.351.351,0,0,0,.352.352" transform="translate(213.948 311.004)" fill="#00a7ff"/>
    <path id="Path_1118" data-name="Path 1118" d="M72.271,96.34a.071.071,0,0,0,.072-.072.072.072,0,0,0-.144,0,.071.071,0,0,0,.072.072" transform="translate(233.572 311.218)" fill="#00a7ff"/>
    <path id="Path_1119" data-name="Path 1119" d="M48.271,102.34a.071.071,0,0,0,.072-.072.072.072,0,0,0-.144,0,.071.071,0,0,0,.072.072" transform="translate(155.929 330.629)" fill="#00a7ff"/>
  </g>
</svg>
